<?xml version="1.0" encoding="UTF-8"?>
<svg id="Layer_1" data-name="Layer 1" xmlns="http://www.w3.org/2000/svg" viewBox="0 0 750.15 535.75">
  <defs>
    <style>
      .cls-1 {
        fill: #9d0208;
        stroke: #9d0208;
      }

      .cls-1, .cls-2 {
        stroke-miterlimit: 10;
      }

      .cls-2 {
        fill: #e5e5e5;
        stroke: #e5e5e5;
      }

      .cls-3 {
        font-family: HelveticaNeue-Bold, 'Helvetica Neue';
      }

      .cls-3, .cls-4 {
        font-size: 24px;
        font-weight: 700;
      }

      .cls-5 {
        font-family: HelveticaNeue, 'Helvetica Neue';
        font-size: 21px;
      }

      .cls-4 {
        font-family: MyriadPro-Bold, 'Myriad Pro';
      }
    </style>
  </defs>
  <g>
    <g>
      <path class="cls-1" d="M56.33,49.05c-1.77.19-3.34-.87-3.51-2.39-.17-1.51,1.13-2.9,2.9-3.09s3.34.87,3.51,2.39-1.13,2.9-2.9,3.09Z"/>
      <rect class="cls-1" x="61.56" y="51.07" width="1.55" height="4.24"/>
      <path class="cls-1" d="M62.98,51.77c-3.27.36-6.18-1.62-6.49-4.42s2.09-5.37,5.37-5.73c3.27-.36,6.18,1.62,6.49,4.42s-2.09,5.37-5.37,5.73Z"/>
      <polygon class="cls-1" points="62.17 75.35 74.7 96.54 48.42 96.9 62.17 75.35"/>
      <polygon class="cls-1" points="62.17 76.12 74.7 54.92 49.37 55.51 62.17 76.12"/>
      <polygon class="cls-1" points="67.35 93.91 73.29 104.83 65.94 119.86 68.51 122.59 69.62 122.59 67.49 119.47 74.46 104.83 68.26 93.65 67.35 93.91"/>
      <polygon class="cls-1" points="56.8 94.07 50.86 104.98 58.21 120.01 55.64 122.75 54.53 122.75 56.66 119.63 49.7 104.98 55.89 93.81 56.8 94.07"/>
      <g>
        <path class="cls-1" d="M45.83,62.05c1.74-2.61,2.6-5.32,2.82-6.18.05-.18.08-.27.08-.27l.18.07s-.92,3.4-3,6.53c-.03-.04-.05-.09-.08-.13h0v-.02Z"/>
        <path class="cls-1" d="M51.16,78.85c-3.08-6.74-4.58-13.74-4.96-15.95-.08-.46-.14-.7-.14-.7l-.32.18s1.61,8.77,5.28,16.85c.05-.1.1-.22.14-.33v-.03h0Z"/>
        <path class="cls-1" d="M77.58,62.31c-1.58-2.96-2.36-6.03-2.56-7.01-.04-.2-.07-.31-.07-.31l-.17.08s.83,3.85,2.72,7.4c.02-.05.05-.1.07-.14h0v-.02Z"/>
        <path class="cls-1" d="M74.11,77.86c1.95-6.31,2.9-12.85,3.14-14.93.05-.43.09-.65.09-.65l.2.17s-1.02,8.2-3.34,15.77c-.03-.1-.06-.21-.09-.31v-.03s0-.01,0-.01Z"/>
      </g>
    </g>
    <g>
      <rect class="cls-1" x="16.18" y="51.07" width="1.55" height="4.24"/>
      <path class="cls-1" d="M17.6,51.77c-3.27.36-6.18-1.62-6.49-4.42s2.09-5.37,5.37-5.73,6.18,1.62,6.49,4.42-2.09,5.37-5.37,5.73Z"/>
      <polygon class="cls-1" points="16.79 75.35 29.31 96.54 3.04 96.9 16.79 75.35"/>
      <polygon class="cls-1" points="16.79 76.12 29.31 54.92 3.98 55.51 16.79 76.12"/>
      <polygon class="cls-1" points="22.29 93.91 28.23 104.83 20.88 119.86 23.45 122.59 24.56 122.59 22.43 119.47 29.39 104.83 23.2 93.65 22.29 93.91"/>
      <polygon class="cls-1" points="12.39 94.07 6.45 104.98 13.8 120.01 11.23 122.75 10.13 122.75 12.25 119.63 5.29 104.98 11.48 93.81 12.39 94.07"/>
      <g>
        <path class="cls-1" d="M.64,62.32c1.74-2.61,2.6-5.32,2.82-6.18.05-.18.08-.27.08-.27l.18.07s-.92,3.4-3,6.53c-.03-.04-.05-.09-.08-.13h0v-.02Z"/>
        <path class="cls-1" d="M5.97,79.12c-3.08-6.74-4.58-13.74-4.96-15.95-.08-.46-.14-.7-.14-.7l-.32.18s1.61,8.77,5.28,16.85c.05-.1.1-.22.14-.33v-.03h0Z"/>
        <path class="cls-1" d="M32.39,62.58c-1.58-2.96-2.36-6.03-2.56-7.01-.04-.2-.07-.31-.07-.31l-.17.08s.83,3.85,2.72,7.4c.02-.05.05-.1.07-.14h0v-.02Z"/>
        <path class="cls-1" d="M28.92,78.13c1.95-6.31,2.9-12.85,3.14-14.93.05-.43.09-.65.09-.65l.2.17s-1.02,8.2-3.34,15.77c-.03-.1-.06-.21-.09-.31v-.03s0-.01,0-.01Z"/>
      </g>
    </g>
    <g>
      <path class="cls-1" d="M144.25,49.05c-1.77.19-3.34-.87-3.51-2.39-.17-1.51,1.13-2.9,2.9-3.09s3.34.87,3.51,2.39-1.13,2.9-2.9,3.09Z"/>
      <rect class="cls-1" x="149.48" y="51.07" width="1.55" height="4.24"/>
      <path class="cls-1" d="M150.9,51.77c-3.27.36-6.18-1.62-6.49-4.42s2.09-5.37,5.37-5.73c3.27-.36,6.18,1.62,6.49,4.42s-2.09,5.37-5.37,5.73Z"/>
      <polygon class="cls-1" points="150.09 75.35 162.62 96.54 136.34 96.9 150.09 75.35"/>
      <polygon class="cls-1" points="150.09 76.12 162.62 54.92 137.29 55.51 150.09 76.12"/>
      <polygon class="cls-1" points="155.27 93.91 161.21 104.83 153.86 119.86 156.43 122.59 157.54 122.59 155.41 119.47 162.38 104.83 156.18 93.65 155.27 93.91"/>
      <polygon class="cls-1" points="144.72 94.07 138.78 104.98 146.13 120.01 143.56 122.75 142.45 122.75 144.58 119.63 137.62 104.98 143.81 93.81 144.72 94.07"/>
      <g>
        <path class="cls-1" d="M133.76,62.05c1.74-2.61,2.6-5.32,2.82-6.18.05-.18.08-.27.08-.27l.18.07s-.92,3.4-3,6.53c-.03-.04-.05-.09-.08-.13h0v-.02Z"/>
        <path class="cls-1" d="M139.09,78.85c-3.08-6.74-4.58-13.74-4.96-15.95-.08-.46-.14-.7-.14-.7l-.32.18s1.61,8.77,5.28,16.85c.05-.1.1-.22.14-.33v-.03h0Z"/>
        <path class="cls-1" d="M165.51,62.31c-1.58-2.96-2.36-6.03-2.56-7.01-.04-.2-.07-.31-.07-.31l-.17.08s.83,3.85,2.72,7.4c.02-.05.05-.1.07-.14h0v-.02Z"/>
        <path class="cls-1" d="M162.04,77.86c1.95-6.31,2.9-12.85,3.14-14.93.05-.43.09-.65.09-.65l.2.17s-1.02,8.2-3.34,15.77c-.03-.1-.06-.21-.09-.31v-.03s0-.01,0-.01Z"/>
      </g>
    </g>
    <g>
      <rect class="cls-1" x="104.1" y="51.07" width="1.55" height="4.24"/>
      <path class="cls-1" d="M105.52,51.77c-3.27.36-6.18-1.62-6.49-4.42s2.09-5.37,5.37-5.73,6.18,1.62,6.49,4.42-2.09,5.37-5.37,5.73Z"/>
      <polygon class="cls-1" points="104.71 75.35 117.23 96.54 90.96 96.9 104.71 75.35"/>
      <polygon class="cls-1" points="104.71 76.12 117.23 54.92 91.9 55.51 104.71 76.12"/>
      <polygon class="cls-1" points="110.21 93.91 116.15 104.83 108.8 119.86 111.37 122.59 112.48 122.59 110.35 119.47 117.31 104.83 111.12 93.65 110.21 93.91"/>
      <polygon class="cls-1" points="100.31 94.07 94.37 104.98 101.72 120.01 99.15 122.75 98.05 122.75 100.17 119.63 93.21 104.98 99.4 93.81 100.31 94.07"/>
      <g>
        <path class="cls-1" d="M88.57,62.32c1.74-2.61,2.6-5.32,2.82-6.18.05-.18.08-.27.08-.27l.18.07s-.92,3.4-3,6.53c-.03-.04-.05-.09-.08-.13h0v-.02Z"/>
        <path class="cls-1" d="M93.9,79.12c-3.08-6.74-4.58-13.74-4.96-15.95-.08-.46-.14-.7-.14-.7l-.32.18s1.61,8.77,5.28,16.85c.05-.1.1-.22.14-.33v-.03h0Z"/>
        <path class="cls-1" d="M120.32,62.58c-1.58-2.96-2.36-6.03-2.56-7.01-.04-.2-.07-.31-.07-.31l-.17.08s.83,3.85,2.72,7.4c.02-.05.05-.1.07-.14h0v-.02Z"/>
        <path class="cls-1" d="M116.85,78.13c1.95-6.31,2.9-12.85,3.14-14.93.05-.43.09-.65.09-.65l.2.17s-1.02,8.2-3.34,15.77c-.03-.1-.06-.21-.09-.31v-.03s0-.01,0-.01Z"/>
      </g>
    </g>
    <g>
      <path class="cls-1" d="M233.04,49.05c-1.77.19-3.34-.87-3.51-2.39-.17-1.51,1.13-2.9,2.9-3.09s3.34.87,3.51,2.39-1.13,2.9-2.9,3.09Z"/>
      <rect class="cls-1" x="238.27" y="51.07" width="1.55" height="4.24"/>
      <path class="cls-1" d="M239.69,51.77c-3.27.36-6.18-1.62-6.49-4.42s2.09-5.37,5.37-5.73c3.27-.36,6.18,1.62,6.49,4.42s-2.09,5.37-5.37,5.73Z"/>
      <polygon class="cls-1" points="238.88 75.35 251.41 96.54 225.13 96.9 238.88 75.35"/>
      <polygon class="cls-1" points="238.88 76.12 251.41 54.92 226.08 55.51 238.88 76.12"/>
      <polygon class="cls-1" points="244.06 93.91 250 104.83 242.65 119.86 245.22 122.59 246.33 122.59 244.2 119.47 251.17 104.83 244.97 93.65 244.06 93.91"/>
      <polygon class="cls-1" points="233.51 94.07 227.57 104.98 234.92 120.01 232.35 122.75 231.24 122.75 233.37 119.63 226.41 104.98 232.6 93.81 233.51 94.07"/>
      <g>
        <path class="cls-1" d="M222.54,62.05c1.74-2.61,2.6-5.32,2.82-6.18.05-.18.08-.27.08-.27l.18.07s-.92,3.4-3,6.53c-.03-.04-.05-.09-.08-.13h0v-.02Z"/>
        <path class="cls-1" d="M227.88,78.85c-3.08-6.74-4.58-13.74-4.96-15.95-.08-.46-.14-.7-.14-.7l-.32.18s1.61,8.77,5.28,16.85c.05-.1.1-.22.14-.33v-.03h0Z"/>
        <path class="cls-1" d="M254.3,62.31c-1.58-2.96-2.36-6.03-2.56-7.01-.04-.2-.07-.31-.07-.31l-.17.08s.83,3.85,2.72,7.4c.02-.05.05-.1.07-.14h0v-.02Z"/>
        <path class="cls-1" d="M250.82,77.86c1.95-6.31,2.9-12.85,3.14-14.93.05-.43.09-.65.09-.65l.2.17s-1.02,8.2-3.34,15.77c-.03-.1-.06-.21-.09-.31v-.03s0-.01,0-.01Z"/>
      </g>
    </g>
    <g>
      <rect class="cls-1" x="192.89" y="51.07" width="1.55" height="4.24"/>
      <path class="cls-1" d="M194.31,51.77c-3.27.36-6.18-1.62-6.49-4.42s2.09-5.37,5.37-5.73,6.18,1.62,6.49,4.42-2.09,5.37-5.37,5.73Z"/>
      <polygon class="cls-1" points="193.5 75.35 206.02 96.54 179.75 96.9 193.5 75.35"/>
      <polygon class="cls-1" points="193.5 76.12 206.02 54.92 180.69 55.51 193.5 76.12"/>
      <polygon class="cls-1" points="199 93.91 204.94 104.83 197.59 119.86 200.16 122.59 201.27 122.59 199.14 119.47 206.1 104.83 199.91 93.65 199 93.91"/>
      <polygon class="cls-1" points="189.1 94.07 183.16 104.98 190.51 120.01 187.94 122.75 186.84 122.75 188.96 119.63 182 104.98 188.19 93.81 189.1 94.07"/>
      <g>
        <path class="cls-1" d="M177.36,62.32c1.74-2.61,2.6-5.32,2.82-6.18.05-.18.08-.27.08-.27l.18.07s-.92,3.4-3,6.53c-.03-.04-.05-.09-.08-.13h0v-.02Z"/>
        <path class="cls-1" d="M182.69,79.12c-3.08-6.74-4.58-13.74-4.96-15.95-.08-.46-.14-.7-.14-.7l-.32.18s1.61,8.77,5.28,16.85c.05-.1.1-.22.14-.33v-.03h0Z"/>
        <path class="cls-1" d="M209.11,62.58c-1.58-2.96-2.36-6.03-2.56-7.01-.04-.2-.07-.31-.07-.31l-.17.08s.83,3.85,2.72,7.4c.02-.05.05-.1.07-.14h0v-.02Z"/>
        <path class="cls-1" d="M205.64,78.13c1.95-6.31,2.9-12.85,3.14-14.93.05-.43.09-.65.09-.65l.2.17s-1.02,8.2-3.34,15.77c-.03-.1-.06-.21-.09-.31v-.03s0-.01,0-.01Z"/>
      </g>
    </g>
    <g>
      <path class="cls-1" d="M320.97,49.05c-1.77.19-3.34-.87-3.51-2.39-.17-1.51,1.13-2.9,2.9-3.09s3.34.87,3.51,2.39-1.13,2.9-2.9,3.09Z"/>
      <rect class="cls-1" x="326.2" y="51.07" width="1.55" height="4.24"/>
      <path class="cls-1" d="M327.62,51.77c-3.27.36-6.18-1.62-6.49-4.42s2.09-5.37,5.37-5.73c3.27-.36,6.18,1.62,6.49,4.42s-2.09,5.37-5.37,5.73Z"/>
      <polygon class="cls-1" points="326.81 75.35 339.34 96.54 313.06 96.9 326.81 75.35"/>
      <polygon class="cls-1" points="326.81 76.12 339.34 54.92 314.01 55.51 326.81 76.12"/>
      <polygon class="cls-1" points="331.99 93.91 337.93 104.83 330.58 119.86 333.15 122.59 334.26 122.59 332.13 119.47 339.1 104.83 332.9 93.65 331.99 93.91"/>
      <polygon class="cls-1" points="321.44 94.07 315.5 104.98 322.85 120.01 320.28 122.75 319.17 122.75 321.3 119.63 314.34 104.98 320.53 93.81 321.44 94.07"/>
      <g>
        <path class="cls-1" d="M310.47,62.05c1.74-2.61,2.6-5.32,2.82-6.18.05-.18.08-.27.08-.27l.18.07s-.92,3.4-3,6.53c-.03-.04-.05-.09-.08-.13h0v-.02Z"/>
        <path class="cls-1" d="M315.8,78.85c-3.08-6.74-4.58-13.74-4.96-15.95-.08-.46-.14-.7-.14-.7l-.32.18s1.61,8.77,5.28,16.85c.05-.1.1-.22.14-.33v-.03h0Z"/>
        <path class="cls-1" d="M342.22,62.31c-1.58-2.96-2.36-6.03-2.56-7.01-.04-.2-.07-.31-.07-.31l-.17.08s.83,3.85,2.72,7.4c.02-.05.05-.1.07-.14h0v-.02Z"/>
        <path class="cls-1" d="M338.75,77.86c1.95-6.31,2.9-12.85,3.14-14.93.05-.43.09-.65.09-.65l.2.17s-1.02,8.2-3.34,15.77c-.03-.1-.06-.21-.09-.31v-.03s0-.01,0-.01Z"/>
      </g>
    </g>
    <g>
      <rect class="cls-1" x="280.82" y="51.07" width="1.55" height="4.24"/>
      <path class="cls-1" d="M282.24,51.77c-3.27.36-6.18-1.62-6.49-4.42s2.09-5.37,5.37-5.73,6.18,1.62,6.49,4.42-2.09,5.37-5.37,5.73Z"/>
      <polygon class="cls-1" points="281.43 75.35 293.95 96.54 267.68 96.9 281.43 75.35"/>
      <polygon class="cls-1" points="281.43 76.12 293.95 54.92 268.62 55.51 281.43 76.12"/>
      <polygon class="cls-1" points="286.93 93.91 292.87 104.83 285.52 119.86 288.09 122.59 289.2 122.59 287.07 119.47 294.03 104.83 287.84 93.65 286.93 93.91"/>
      <polygon class="cls-1" points="277.03 94.07 271.09 104.98 278.44 120.01 275.87 122.75 274.77 122.75 276.89 119.63 269.93 104.98 276.12 93.81 277.03 94.07"/>
      <g>
        <path class="cls-1" d="M265.28,62.32c1.74-2.61,2.6-5.32,2.82-6.18.05-.18.08-.27.08-.27l.18.07s-.92,3.4-3,6.53c-.03-.04-.05-.09-.08-.13h0v-.02Z"/>
        <path class="cls-1" d="M270.61,79.12c-3.08-6.74-4.58-13.74-4.96-15.95-.08-.46-.14-.7-.14-.7l-.32.18s1.61,8.77,5.28,16.85c.05-.1.1-.22.14-.33v-.03h0Z"/>
        <path class="cls-1" d="M297.04,62.58c-1.58-2.96-2.36-6.03-2.56-7.01-.04-.2-.07-.31-.07-.31l-.17.08s.83,3.85,2.72,7.4c.02-.05.05-.1.07-.14h0v-.02Z"/>
        <path class="cls-1" d="M293.56,78.13c1.95-6.31,2.9-12.85,3.14-14.93.05-.43.09-.65.09-.65l.2.17s-1.02,8.2-3.34,15.77c-.03-.1-.06-.21-.09-.31v-.03s0-.01,0-.01Z"/>
      </g>
    </g>
    <g>
      <path class="cls-1" d="M408.36,49.05c-1.77.19-3.34-.87-3.51-2.39-.17-1.51,1.13-2.9,2.9-3.09s3.34.87,3.51,2.39-1.13,2.9-2.9,3.09Z"/>
      <rect class="cls-1" x="413.59" y="51.07" width="1.55" height="4.24"/>
      <path class="cls-1" d="M415.01,51.77c-3.27.36-6.18-1.62-6.49-4.42s2.09-5.37,5.37-5.73c3.27-.36,6.18,1.62,6.49,4.42s-2.09,5.37-5.37,5.73Z"/>
      <polygon class="cls-1" points="414.2 75.35 426.73 96.54 400.45 96.9 414.2 75.35"/>
      <polygon class="cls-1" points="414.2 76.12 426.73 54.92 401.4 55.51 414.2 76.12"/>
      <polygon class="cls-1" points="419.38 93.91 425.32 104.83 417.97 119.86 420.54 122.59 421.65 122.59 419.52 119.47 426.49 104.83 420.29 93.65 419.38 93.91"/>
      <polygon class="cls-1" points="408.83 94.07 402.89 104.98 410.24 120.01 407.67 122.75 406.56 122.75 408.69 119.63 401.73 104.98 407.92 93.81 408.83 94.07"/>
      <g>
        <path class="cls-1" d="M397.86,62.05c1.74-2.61,2.6-5.32,2.82-6.18.05-.18.08-.27.08-.27l.18.07s-.92,3.4-3,6.53c-.03-.04-.05-.09-.08-.13h0v-.02Z"/>
        <path class="cls-1" d="M403.19,78.85c-3.08-6.74-4.58-13.74-4.96-15.95-.08-.46-.14-.7-.14-.7l-.32.18s1.61,8.77,5.28,16.85c.05-.1.1-.22.14-.33v-.03h0Z"/>
        <path class="cls-1" d="M429.62,62.31c-1.58-2.96-2.36-6.03-2.56-7.01-.04-.2-.07-.31-.07-.31l-.17.08s.83,3.85,2.72,7.4c.02-.05.05-.1.07-.14h0v-.02Z"/>
        <path class="cls-1" d="M426.14,77.86c1.95-6.31,2.9-12.85,3.14-14.93.05-.43.09-.65.09-.65l.2.17s-1.02,8.2-3.34,15.77c-.03-.1-.06-.21-.09-.31v-.03s0-.01,0-.01Z"/>
      </g>
    </g>
    <g>
      <rect class="cls-1" x="368.21" y="51.07" width="1.55" height="4.24"/>
      <path class="cls-1" d="M369.63,51.77c-3.27.36-6.18-1.62-6.49-4.42s2.09-5.37,5.37-5.73,6.18,1.62,6.49,4.42-2.09,5.37-5.37,5.73Z"/>
      <polygon class="cls-1" points="368.82 75.35 381.34 96.54 355.07 96.9 368.82 75.35"/>
      <polygon class="cls-1" points="368.82 76.12 381.34 54.92 356.01 55.51 368.82 76.12"/>
      <polygon class="cls-1" points="374.32 93.91 380.26 104.83 372.91 119.86 375.48 122.59 376.59 122.59 374.46 119.47 381.42 104.83 375.23 93.65 374.32 93.91"/>
      <polygon class="cls-1" points="364.42 94.07 358.48 104.98 365.83 120.01 363.26 122.75 362.16 122.75 364.28 119.63 357.32 104.98 363.51 93.81 364.42 94.07"/>
      <g>
        <path class="cls-1" d="M352.67,62.32c1.74-2.61,2.6-5.32,2.82-6.18.05-.18.08-.27.08-.27l.18.07s-.92,3.4-3,6.53c-.03-.04-.05-.09-.08-.13h0v-.02Z"/>
        <path class="cls-1" d="M358.01,79.12c-3.08-6.74-4.58-13.74-4.96-15.95-.08-.46-.14-.7-.14-.7l-.32.18s1.61,8.77,5.28,16.85c.05-.1.1-.22.14-.33v-.03h0Z"/>
        <path class="cls-1" d="M384.43,62.58c-1.58-2.96-2.36-6.03-2.56-7.01-.04-.2-.07-.31-.07-.31l-.17.08s.83,3.85,2.72,7.4c.02-.05.05-.1.07-.14h0v-.02Z"/>
        <path class="cls-1" d="M380.95,78.13c1.95-6.31,2.9-12.85,3.14-14.93.05-.43.09-.65.09-.65l.2.17s-1.02,8.2-3.34,15.77c-.03-.1-.06-.21-.09-.31v-.03s0-.01,0-.01Z"/>
      </g>
    </g>
  </g>
  <g>
    <path class="cls-1" d="M56.33,146.37c-1.77.19-3.34-.87-3.51-2.39-.17-1.51,1.13-2.9,2.9-3.09s3.34.87,3.51,2.39-1.13,2.9-2.9,3.09Z"/>
    <rect class="cls-1" x="61.56" y="148.39" width="1.55" height="4.24"/>
    <path class="cls-1" d="M62.98,149.09c-3.27.36-6.18-1.62-6.49-4.42s2.09-5.37,5.37-5.73c3.27-.36,6.18,1.62,6.49,4.42s-2.09,5.37-5.37,5.73Z"/>
    <polygon class="cls-1" points="62.17 172.67 74.7 193.86 48.42 194.22 62.17 172.67"/>
    <polygon class="cls-1" points="62.17 173.44 74.7 152.24 49.37 152.83 62.17 173.44"/>
    <polygon class="cls-1" points="67.35 191.23 73.29 202.15 65.94 217.18 68.51 219.91 69.62 219.91 67.49 216.79 74.46 202.15 68.26 190.97 67.35 191.23"/>
    <polygon class="cls-1" points="56.8 191.39 50.86 202.3 58.21 217.33 55.64 220.07 54.53 220.07 56.66 216.95 49.7 202.3 55.89 191.13 56.8 191.39"/>
    <g>
      <path class="cls-1" d="M45.83,159.37c1.74-2.61,2.6-5.32,2.82-6.18.05-.18.08-.27.08-.27l.18.07s-.92,3.4-3,6.53c-.03-.04-.05-.09-.08-.13h0v-.02Z"/>
      <path class="cls-1" d="M51.16,176.17c-3.08-6.74-4.58-13.74-4.96-15.95-.08-.46-.14-.7-.14-.7l-.32.18s1.61,8.77,5.28,16.85c.05-.1.1-.22.14-.33v-.03h0Z"/>
      <path class="cls-1" d="M77.58,159.63c-1.58-2.96-2.36-6.03-2.56-7.01-.04-.2-.07-.31-.07-.31l-.17.08s.83,3.85,2.72,7.4c.02-.05.05-.1.07-.14h0v-.02Z"/>
      <path class="cls-1" d="M74.11,175.18c1.95-6.31,2.9-12.85,3.14-14.93.05-.43.09-.65.09-.65l.2.17s-1.02,8.2-3.34,15.77c-.03-.1-.06-.21-.09-.31v-.03s0-.01,0-.01Z"/>
    </g>
  </g>
  <g>
    <rect class="cls-1" x="16.18" y="148.39" width="1.55" height="4.24"/>
    <path class="cls-1" d="M17.6,149.09c-3.27.36-6.18-1.62-6.49-4.42s2.09-5.37,5.37-5.73,6.18,1.62,6.49,4.42-2.09,5.37-5.37,5.73Z"/>
    <polygon class="cls-1" points="16.79 172.67 29.31 193.86 3.04 194.22 16.79 172.67"/>
    <polygon class="cls-1" points="16.79 173.44 29.31 152.24 3.98 152.83 16.79 173.44"/>
    <polygon class="cls-1" points="22.29 191.23 28.23 202.15 20.88 217.18 23.45 219.91 24.56 219.91 22.43 216.79 29.39 202.15 23.2 190.97 22.29 191.23"/>
    <polygon class="cls-1" points="12.39 191.39 6.45 202.3 13.8 217.33 11.23 220.07 10.13 220.07 12.25 216.95 5.29 202.3 11.48 191.13 12.39 191.39"/>
    <g>
      <path class="cls-1" d="M.64,159.64c1.74-2.61,2.6-5.32,2.82-6.18.05-.18.08-.27.08-.27l.18.07s-.92,3.4-3,6.53c-.03-.04-.05-.09-.08-.13h0v-.02Z"/>
      <path class="cls-1" d="M5.97,176.44c-3.08-6.74-4.58-13.74-4.96-15.95-.08-.46-.14-.7-.14-.7l-.32.18s1.61,8.77,5.28,16.85c.05-.1.1-.22.14-.33v-.03h0Z"/>
      <path class="cls-1" d="M32.39,159.9c-1.58-2.96-2.36-6.03-2.56-7.01-.04-.2-.07-.31-.07-.31l-.17.08s.83,3.85,2.72,7.4c.02-.05.05-.1.07-.14h0v-.02Z"/>
      <path class="cls-1" d="M28.92,175.45c1.95-6.31,2.9-12.85,3.14-14.93.05-.43.09-.65.09-.65l.2.17s-1.02,8.2-3.34,15.77c-.03-.1-.06-.21-.09-.31v-.03s0-.01,0-.01Z"/>
    </g>
  </g>
  <g>
    <path class="cls-1" d="M144.25,146.37c-1.77.19-3.34-.87-3.51-2.39-.17-1.51,1.13-2.9,2.9-3.09s3.34.87,3.51,2.39-1.13,2.9-2.9,3.09Z"/>
    <rect class="cls-1" x="149.48" y="148.39" width="1.55" height="4.24"/>
    <path class="cls-1" d="M150.9,149.09c-3.27.36-6.18-1.62-6.49-4.42s2.09-5.37,5.37-5.73c3.27-.36,6.18,1.62,6.49,4.42s-2.09,5.37-5.37,5.73Z"/>
    <polygon class="cls-1" points="150.09 172.67 162.62 193.86 136.34 194.22 150.09 172.67"/>
    <polygon class="cls-1" points="150.09 173.44 162.62 152.24 137.29 152.83 150.09 173.44"/>
    <polygon class="cls-1" points="155.27 191.23 161.21 202.15 153.86 217.18 156.43 219.91 157.54 219.91 155.41 216.79 162.38 202.15 156.18 190.97 155.27 191.23"/>
    <polygon class="cls-1" points="144.72 191.39 138.78 202.3 146.13 217.33 143.56 220.07 142.45 220.07 144.58 216.95 137.62 202.3 143.81 191.13 144.72 191.39"/>
    <g>
      <path class="cls-1" d="M133.76,159.37c1.74-2.61,2.6-5.32,2.82-6.18.05-.18.08-.27.08-.27l.18.07s-.92,3.4-3,6.53c-.03-.04-.05-.09-.08-.13h0v-.02Z"/>
      <path class="cls-1" d="M139.09,176.17c-3.08-6.74-4.58-13.74-4.96-15.95-.08-.46-.14-.7-.14-.7l-.32.18s1.61,8.77,5.28,16.85c.05-.1.1-.22.14-.33v-.03h0Z"/>
      <path class="cls-1" d="M165.51,159.63c-1.58-2.96-2.36-6.03-2.56-7.01-.04-.2-.07-.31-.07-.31l-.17.08s.83,3.85,2.72,7.4c.02-.05.05-.1.07-.14h0v-.02Z"/>
      <path class="cls-1" d="M162.04,175.18c1.95-6.31,2.9-12.85,3.14-14.93.05-.43.09-.65.09-.65l.2.17s-1.02,8.2-3.34,15.77c-.03-.1-.06-.21-.09-.31v-.03s0-.01,0-.01Z"/>
    </g>
  </g>
  <g>
    <rect class="cls-1" x="104.1" y="148.39" width="1.55" height="4.24"/>
    <path class="cls-1" d="M105.52,149.09c-3.27.36-6.18-1.62-6.49-4.42s2.09-5.37,5.37-5.73,6.18,1.62,6.49,4.42-2.09,5.37-5.37,5.73Z"/>
    <polygon class="cls-1" points="104.71 172.67 117.23 193.86 90.96 194.22 104.71 172.67"/>
    <polygon class="cls-1" points="104.71 173.44 117.23 152.24 91.9 152.83 104.71 173.44"/>
    <polygon class="cls-1" points="110.21 191.23 116.15 202.15 108.8 217.18 111.37 219.91 112.48 219.91 110.35 216.79 117.31 202.15 111.12 190.97 110.21 191.23"/>
    <polygon class="cls-1" points="100.31 191.39 94.37 202.3 101.72 217.33 99.15 220.07 98.05 220.07 100.17 216.95 93.21 202.3 99.4 191.13 100.31 191.39"/>
    <g>
      <path class="cls-1" d="M88.57,159.64c1.74-2.61,2.6-5.32,2.82-6.18.05-.18.08-.27.08-.27l.18.07s-.92,3.4-3,6.53c-.03-.04-.05-.09-.08-.13h0v-.02Z"/>
      <path class="cls-1" d="M93.9,176.44c-3.08-6.74-4.58-13.74-4.96-15.95-.08-.46-.14-.7-.14-.7l-.32.18s1.61,8.77,5.28,16.85c.05-.1.1-.22.14-.33v-.03h0Z"/>
      <path class="cls-1" d="M120.32,159.9c-1.58-2.96-2.36-6.03-2.56-7.01-.04-.2-.07-.31-.07-.31l-.17.08s.83,3.85,2.72,7.4c.02-.05.05-.1.07-.14h0v-.02Z"/>
      <path class="cls-1" d="M116.85,175.45c1.95-6.31,2.9-12.85,3.14-14.93.05-.43.09-.65.09-.65l.2.17s-1.02,8.2-3.34,15.77c-.03-.1-.06-.21-.09-.31v-.03s0-.01,0-.01Z"/>
    </g>
  </g>
  <g>
    <path class="cls-1" d="M233.04,146.37c-1.77.19-3.34-.87-3.51-2.39-.17-1.51,1.13-2.9,2.9-3.09s3.34.87,3.51,2.39-1.13,2.9-2.9,3.09Z"/>
    <rect class="cls-1" x="238.27" y="148.39" width="1.55" height="4.24"/>
    <path class="cls-1" d="M239.69,149.09c-3.27.36-6.18-1.62-6.49-4.42s2.09-5.37,5.37-5.73c3.27-.36,6.18,1.62,6.49,4.42s-2.09,5.37-5.37,5.73Z"/>
    <polygon class="cls-1" points="238.88 172.67 251.41 193.86 225.13 194.22 238.88 172.67"/>
    <polygon class="cls-1" points="238.88 173.44 251.41 152.24 226.08 152.83 238.88 173.44"/>
    <polygon class="cls-1" points="244.06 191.23 250 202.15 242.65 217.18 245.22 219.91 246.33 219.91 244.2 216.79 251.17 202.15 244.97 190.97 244.06 191.23"/>
    <polygon class="cls-1" points="233.51 191.39 227.57 202.3 234.92 217.33 232.35 220.07 231.24 220.07 233.37 216.95 226.41 202.3 232.6 191.13 233.51 191.39"/>
    <g>
      <path class="cls-1" d="M222.54,159.37c1.74-2.61,2.6-5.32,2.82-6.18.05-.18.08-.27.08-.27l.18.07s-.92,3.4-3,6.53c-.03-.04-.05-.09-.08-.13h0v-.02Z"/>
      <path class="cls-1" d="M227.88,176.17c-3.08-6.74-4.58-13.74-4.96-15.95-.08-.46-.14-.7-.14-.7l-.32.18s1.61,8.77,5.28,16.85c.05-.1.1-.22.14-.33v-.03h0Z"/>
      <path class="cls-1" d="M254.3,159.63c-1.58-2.96-2.36-6.03-2.56-7.01-.04-.2-.07-.31-.07-.31l-.17.08s.83,3.85,2.72,7.4c.02-.05.05-.1.07-.14h0v-.02Z"/>
      <path class="cls-1" d="M250.82,175.18c1.95-6.31,2.9-12.85,3.14-14.93.05-.43.09-.65.09-.65l.2.17s-1.02,8.2-3.34,15.77c-.03-.1-.06-.21-.09-.31v-.03s0-.01,0-.01Z"/>
    </g>
  </g>
  <g>
    <rect class="cls-1" x="192.89" y="148.39" width="1.55" height="4.24"/>
    <path class="cls-1" d="M194.31,149.09c-3.27.36-6.18-1.62-6.49-4.42s2.09-5.37,5.37-5.73,6.18,1.62,6.49,4.42-2.09,5.37-5.37,5.73Z"/>
    <polygon class="cls-1" points="193.5 172.67 206.02 193.86 179.75 194.22 193.5 172.67"/>
    <polygon class="cls-1" points="193.5 173.44 206.02 152.24 180.69 152.83 193.5 173.44"/>
    <polygon class="cls-1" points="199 191.23 204.94 202.15 197.59 217.18 200.16 219.91 201.27 219.91 199.14 216.79 206.1 202.15 199.91 190.97 199 191.23"/>
    <polygon class="cls-1" points="189.1 191.39 183.16 202.3 190.51 217.33 187.94 220.07 186.84 220.07 188.96 216.95 182 202.3 188.19 191.13 189.1 191.39"/>
    <g>
      <path class="cls-1" d="M177.36,159.64c1.74-2.61,2.6-5.32,2.82-6.18.05-.18.08-.27.08-.27l.18.07s-.92,3.4-3,6.53c-.03-.04-.05-.09-.08-.13h0v-.02Z"/>
      <path class="cls-1" d="M182.69,176.44c-3.08-6.74-4.58-13.74-4.96-15.95-.08-.46-.14-.7-.14-.7l-.32.18s1.61,8.77,5.28,16.85c.05-.1.1-.22.14-.33v-.03h0Z"/>
      <path class="cls-1" d="M209.11,159.9c-1.58-2.96-2.36-6.03-2.56-7.01-.04-.2-.07-.31-.07-.31l-.17.08s.83,3.85,2.72,7.4c.02-.05.05-.1.07-.14h0v-.02Z"/>
      <path class="cls-1" d="M205.64,175.45c1.95-6.31,2.9-12.85,3.14-14.93.05-.43.09-.65.09-.65l.2.17s-1.02,8.2-3.34,15.77c-.03-.1-.06-.21-.09-.31v-.03s0-.01,0-.01Z"/>
    </g>
  </g>
  <g>
    <path class="cls-1" d="M320.97,146.37c-1.77.19-3.34-.87-3.51-2.39-.17-1.51,1.13-2.9,2.9-3.09s3.34.87,3.51,2.39-1.13,2.9-2.9,3.09Z"/>
    <rect class="cls-1" x="326.2" y="148.39" width="1.55" height="4.24"/>
    <path class="cls-1" d="M327.62,149.09c-3.27.36-6.18-1.62-6.49-4.42s2.09-5.37,5.37-5.73c3.27-.36,6.18,1.62,6.49,4.42s-2.09,5.37-5.37,5.73Z"/>
    <polygon class="cls-1" points="326.81 172.67 339.34 193.86 313.06 194.22 326.81 172.67"/>
    <polygon class="cls-1" points="326.81 173.44 339.34 152.24 314.01 152.83 326.81 173.44"/>
    <polygon class="cls-1" points="331.99 191.23 337.93 202.15 330.58 217.18 333.15 219.91 334.26 219.91 332.13 216.79 339.1 202.15 332.9 190.97 331.99 191.23"/>
    <polygon class="cls-1" points="321.44 191.39 315.5 202.3 322.85 217.33 320.28 220.07 319.17 220.07 321.3 216.95 314.34 202.3 320.53 191.13 321.44 191.39"/>
    <g>
      <path class="cls-1" d="M310.47,159.37c1.74-2.61,2.6-5.32,2.82-6.18.05-.18.08-.27.08-.27l.18.07s-.92,3.4-3,6.53c-.03-.04-.05-.09-.08-.13h0v-.02Z"/>
      <path class="cls-1" d="M315.8,176.17c-3.08-6.74-4.58-13.74-4.96-15.95-.08-.46-.14-.7-.14-.7l-.32.18s1.61,8.77,5.28,16.85c.05-.1.1-.22.14-.33v-.03h0Z"/>
      <path class="cls-1" d="M342.22,159.63c-1.58-2.96-2.36-6.03-2.56-7.01-.04-.2-.07-.31-.07-.31l-.17.08s.83,3.85,2.72,7.4c.02-.05.05-.1.07-.14h0v-.02Z"/>
      <path class="cls-1" d="M338.75,175.18c1.95-6.31,2.9-12.85,3.14-14.93.05-.43.09-.65.09-.65l.2.17s-1.02,8.2-3.34,15.77c-.03-.1-.06-.21-.09-.31v-.03s0-.01,0-.01Z"/>
    </g>
  </g>
  <g>
    <rect class="cls-1" x="280.82" y="148.39" width="1.55" height="4.24"/>
    <path class="cls-1" d="M282.24,149.09c-3.27.36-6.18-1.62-6.49-4.42s2.09-5.37,5.37-5.73,6.18,1.62,6.49,4.42-2.09,5.37-5.37,5.73Z"/>
    <polygon class="cls-1" points="281.43 172.67 293.95 193.86 267.68 194.22 281.43 172.67"/>
    <polygon class="cls-1" points="281.43 173.44 293.95 152.24 268.62 152.83 281.43 173.44"/>
    <polygon class="cls-1" points="286.93 191.23 292.87 202.15 285.52 217.18 288.09 219.91 289.2 219.91 287.07 216.79 294.03 202.15 287.84 190.97 286.93 191.23"/>
    <polygon class="cls-1" points="277.03 191.39 271.09 202.3 278.44 217.33 275.87 220.07 274.77 220.07 276.89 216.95 269.93 202.3 276.12 191.13 277.03 191.39"/>
    <g>
      <path class="cls-1" d="M265.28,159.64c1.74-2.61,2.6-5.32,2.82-6.18.05-.18.08-.27.08-.27l.18.07s-.92,3.4-3,6.53c-.03-.04-.05-.09-.08-.13h0v-.02Z"/>
      <path class="cls-1" d="M270.61,176.44c-3.08-6.74-4.58-13.74-4.96-15.95-.08-.46-.14-.7-.14-.7l-.32.18s1.61,8.77,5.28,16.85c.05-.1.1-.22.14-.33v-.03h0Z"/>
      <path class="cls-1" d="M297.04,159.9c-1.58-2.96-2.36-6.03-2.56-7.01-.04-.2-.07-.31-.07-.31l-.17.08s.83,3.85,2.72,7.4c.02-.05.05-.1.07-.14h0v-.02Z"/>
      <path class="cls-1" d="M293.56,175.45c1.95-6.31,2.9-12.85,3.14-14.93.05-.43.09-.65.09-.65l.2.17s-1.02,8.2-3.34,15.77c-.03-.1-.06-.21-.09-.31v-.03s0-.01,0-.01Z"/>
    </g>
  </g>
  <g>
    <path class="cls-1" d="M408.36,146.37c-1.77.19-3.34-.87-3.51-2.39-.17-1.51,1.13-2.9,2.9-3.09s3.34.87,3.51,2.39-1.13,2.9-2.9,3.09Z"/>
    <rect class="cls-1" x="413.59" y="148.39" width="1.55" height="4.24"/>
    <path class="cls-1" d="M415.01,149.09c-3.27.36-6.18-1.62-6.49-4.42s2.09-5.37,5.37-5.73c3.27-.36,6.18,1.62,6.49,4.42s-2.09,5.37-5.37,5.73Z"/>
    <polygon class="cls-1" points="414.2 172.67 426.73 193.86 400.45 194.22 414.2 172.67"/>
    <polygon class="cls-1" points="414.2 173.44 426.73 152.24 401.4 152.83 414.2 173.44"/>
    <polygon class="cls-1" points="419.38 191.23 425.32 202.15 417.97 217.18 420.54 219.91 421.65 219.91 419.52 216.79 426.49 202.15 420.29 190.97 419.38 191.23"/>
    <polygon class="cls-1" points="408.83 191.39 402.89 202.3 410.24 217.33 407.67 220.07 406.56 220.07 408.69 216.95 401.73 202.3 407.92 191.13 408.83 191.39"/>
    <g>
      <path class="cls-1" d="M397.86,159.37c1.74-2.61,2.6-5.32,2.82-6.18.05-.18.08-.27.08-.27l.18.07s-.92,3.4-3,6.53c-.03-.04-.05-.09-.08-.13h0v-.02Z"/>
      <path class="cls-1" d="M403.19,176.17c-3.08-6.74-4.58-13.74-4.96-15.95-.08-.46-.14-.7-.14-.7l-.32.18s1.61,8.77,5.28,16.85c.05-.1.1-.22.14-.33v-.03h0Z"/>
      <path class="cls-1" d="M429.62,159.63c-1.58-2.96-2.36-6.03-2.56-7.01-.04-.2-.07-.31-.07-.31l-.17.08s.83,3.85,2.72,7.4c.02-.05.05-.1.07-.14h0v-.02Z"/>
      <path class="cls-1" d="M426.14,175.18c1.95-6.31,2.9-12.85,3.14-14.93.05-.43.09-.65.09-.65l.2.17s-1.02,8.2-3.34,15.77c-.03-.1-.06-.21-.09-.31v-.03s0-.01,0-.01Z"/>
    </g>
  </g>
  <g>
    <rect class="cls-1" x="368.21" y="148.39" width="1.55" height="4.24"/>
    <path class="cls-1" d="M369.63,149.09c-3.27.36-6.18-1.62-6.49-4.42s2.09-5.37,5.37-5.73,6.18,1.62,6.49,4.42-2.09,5.37-5.37,5.73Z"/>
    <polygon class="cls-1" points="368.82 172.67 381.34 193.86 355.07 194.22 368.82 172.67"/>
    <polygon class="cls-1" points="368.82 173.44 381.34 152.24 356.01 152.83 368.82 173.44"/>
    <polygon class="cls-1" points="374.32 191.23 380.26 202.15 372.91 217.18 375.48 219.91 376.59 219.91 374.46 216.79 381.42 202.15 375.23 190.97 374.32 191.23"/>
    <polygon class="cls-1" points="364.42 191.39 358.48 202.3 365.83 217.33 363.26 220.07 362.16 220.07 364.28 216.95 357.32 202.3 363.51 191.13 364.42 191.39"/>
    <g>
      <path class="cls-1" d="M352.67,159.64c1.74-2.61,2.6-5.32,2.82-6.18.05-.18.08-.27.08-.27l.18.07s-.92,3.4-3,6.53c-.03-.04-.05-.09-.08-.13h0v-.02Z"/>
      <path class="cls-1" d="M358.01,176.44c-3.08-6.74-4.58-13.74-4.96-15.95-.08-.46-.14-.7-.14-.7l-.32.18s1.61,8.77,5.28,16.85c.05-.1.1-.22.14-.33v-.03h0Z"/>
      <path class="cls-1" d="M384.43,159.9c-1.58-2.96-2.36-6.03-2.56-7.01-.04-.2-.07-.31-.07-.31l-.17.08s.83,3.85,2.72,7.4c.02-.05.05-.1.07-.14h0v-.02Z"/>
      <path class="cls-1" d="M380.95,175.45c1.95-6.31,2.9-12.85,3.14-14.93.05-.43.09-.65.09-.65l.2.17s-1.02,8.2-3.34,15.77c-.03-.1-.06-.21-.09-.31v-.03s0-.01,0-.01Z"/>
    </g>
  </g>
  <g>
    <g>
      <path class="cls-1" d="M56.33,251.08c-1.77.19-3.34-.87-3.51-2.39-.17-1.51,1.13-2.9,2.9-3.09s3.34.87,3.51,2.39-1.13,2.9-2.9,3.09Z"/>
      <rect class="cls-1" x="61.56" y="253.1" width="1.55" height="4.24"/>
      <path class="cls-1" d="M62.98,253.8c-3.27.36-6.18-1.62-6.49-4.42s2.09-5.37,5.37-5.73c3.27-.36,6.18,1.62,6.49,4.42s-2.09,5.37-5.37,5.73Z"/>
      <polygon class="cls-1" points="62.17 277.38 74.7 298.57 48.42 298.93 62.17 277.38"/>
      <polygon class="cls-1" points="62.17 278.15 74.7 256.95 49.37 257.54 62.17 278.15"/>
      <polygon class="cls-1" points="67.35 295.94 73.29 306.86 65.94 321.89 68.51 324.62 69.62 324.62 67.49 321.5 74.46 306.86 68.26 295.68 67.35 295.94"/>
      <polygon class="cls-1" points="56.8 296.1 50.86 307.01 58.21 322.04 55.64 324.78 54.53 324.78 56.66 321.66 49.7 307.01 55.89 295.84 56.8 296.1"/>
      <g>
        <path class="cls-1" d="M45.83,264.08c1.74-2.61,2.6-5.32,2.82-6.18.05-.18.08-.27.08-.27l.18.07s-.92,3.4-3,6.53c-.03-.04-.05-.09-.08-.13h0v-.02Z"/>
        <path class="cls-1" d="M51.16,280.88c-3.08-6.74-4.58-13.74-4.96-15.95-.08-.46-.14-.7-.14-.7l-.32.18s1.61,8.77,5.28,16.85c.05-.1.1-.22.14-.33v-.03h0Z"/>
        <path class="cls-1" d="M77.58,264.34c-1.58-2.96-2.36-6.03-2.56-7.01-.04-.2-.07-.31-.07-.31l-.17.08s.83,3.85,2.72,7.4c.02-.05.05-.1.07-.14h0v-.02Z"/>
        <path class="cls-1" d="M74.11,279.89c1.95-6.31,2.9-12.85,3.14-14.93.05-.43.09-.65.09-.65l.2.17s-1.02,8.2-3.34,15.77c-.03-.1-.06-.21-.09-.31v-.03s0-.01,0-.01Z"/>
      </g>
    </g>
    <g>
      <rect class="cls-1" x="16.18" y="253.1" width="1.55" height="4.24"/>
      <path class="cls-1" d="M17.6,253.8c-3.27.36-6.18-1.62-6.49-4.42s2.09-5.37,5.37-5.73,6.18,1.62,6.49,4.42-2.09,5.37-5.37,5.73Z"/>
      <polygon class="cls-1" points="16.79 277.38 29.31 298.57 3.04 298.93 16.79 277.38"/>
      <polygon class="cls-1" points="16.79 278.15 29.31 256.95 3.98 257.54 16.79 278.15"/>
      <polygon class="cls-1" points="22.29 295.94 28.23 306.86 20.88 321.89 23.45 324.62 24.56 324.62 22.43 321.5 29.39 306.86 23.2 295.68 22.29 295.94"/>
      <polygon class="cls-1" points="12.39 296.1 6.45 307.01 13.8 322.04 11.23 324.78 10.13 324.78 12.25 321.66 5.29 307.01 11.48 295.84 12.39 296.1"/>
      <g>
        <path class="cls-1" d="M.64,264.35c1.74-2.61,2.6-5.32,2.82-6.18.05-.18.08-.27.08-.27l.18.07s-.92,3.4-3,6.53c-.03-.04-.05-.09-.08-.13h0v-.02Z"/>
        <path class="cls-1" d="M5.97,281.15c-3.08-6.74-4.58-13.74-4.96-15.95-.08-.46-.14-.7-.14-.7l-.32.18s1.61,8.77,5.28,16.85c.05-.1.1-.22.14-.33v-.03h0Z"/>
        <path class="cls-1" d="M32.39,264.61c-1.58-2.96-2.36-6.03-2.56-7.01-.04-.2-.07-.31-.07-.31l-.17.08s.83,3.85,2.72,7.4c.02-.05.05-.1.07-.14h0v-.02Z"/>
        <path class="cls-1" d="M28.92,280.16c1.95-6.31,2.9-12.85,3.14-14.93.05-.43.09-.65.09-.65l.2.17s-1.02,8.2-3.34,15.77c-.03-.1-.06-.21-.09-.31v-.03s0-.01,0-.01Z"/>
      </g>
    </g>
    <g>
      <path class="cls-1" d="M144.25,251.08c-1.77.19-3.34-.87-3.51-2.39-.17-1.51,1.13-2.9,2.9-3.09s3.34.87,3.51,2.39-1.13,2.9-2.9,3.09Z"/>
      <rect class="cls-1" x="149.48" y="253.1" width="1.55" height="4.24"/>
      <path class="cls-1" d="M150.9,253.8c-3.27.36-6.18-1.62-6.49-4.42s2.09-5.37,5.37-5.73c3.27-.36,6.18,1.62,6.49,4.42s-2.09,5.37-5.37,5.73Z"/>
      <polygon class="cls-1" points="150.09 277.38 162.62 298.57 136.34 298.93 150.09 277.38"/>
      <polygon class="cls-1" points="150.09 278.15 162.62 256.95 137.29 257.54 150.09 278.15"/>
      <polygon class="cls-1" points="155.27 295.94 161.21 306.86 153.86 321.89 156.43 324.62 157.54 324.62 155.41 321.5 162.38 306.86 156.18 295.68 155.27 295.94"/>
      <polygon class="cls-1" points="144.72 296.1 138.78 307.01 146.13 322.04 143.56 324.78 142.45 324.78 144.58 321.66 137.62 307.01 143.81 295.84 144.72 296.1"/>
      <g>
        <path class="cls-1" d="M133.76,264.08c1.74-2.61,2.6-5.32,2.82-6.18.05-.18.08-.27.08-.27l.18.07s-.92,3.4-3,6.53c-.03-.04-.05-.09-.08-.13h0v-.02Z"/>
        <path class="cls-1" d="M139.09,280.88c-3.08-6.74-4.58-13.74-4.96-15.95-.08-.46-.14-.7-.14-.7l-.32.18s1.61,8.77,5.28,16.85c.05-.1.1-.22.14-.33v-.03h0Z"/>
        <path class="cls-1" d="M165.51,264.34c-1.58-2.96-2.36-6.03-2.56-7.01-.04-.2-.07-.31-.07-.31l-.17.08s.83,3.85,2.72,7.4c.02-.05.05-.1.07-.14h0v-.02Z"/>
        <path class="cls-1" d="M162.04,279.89c1.95-6.31,2.9-12.85,3.14-14.93.05-.43.09-.65.09-.65l.2.17s-1.02,8.2-3.34,15.77c-.03-.1-.06-.21-.09-.31v-.03s0-.01,0-.01Z"/>
      </g>
    </g>
    <g>
      <rect class="cls-1" x="104.1" y="253.1" width="1.55" height="4.24"/>
      <path class="cls-1" d="M105.52,253.8c-3.27.36-6.18-1.62-6.49-4.42s2.09-5.37,5.37-5.73,6.18,1.62,6.49,4.42-2.09,5.37-5.37,5.73Z"/>
      <polygon class="cls-1" points="104.71 277.38 117.23 298.57 90.96 298.93 104.71 277.38"/>
      <polygon class="cls-1" points="104.71 278.15 117.23 256.95 91.9 257.54 104.71 278.15"/>
      <polygon class="cls-1" points="110.21 295.94 116.15 306.86 108.8 321.89 111.37 324.62 112.48 324.62 110.35 321.5 117.31 306.86 111.12 295.68 110.21 295.94"/>
      <polygon class="cls-1" points="100.31 296.1 94.37 307.01 101.72 322.04 99.15 324.78 98.05 324.78 100.17 321.66 93.21 307.01 99.4 295.84 100.31 296.1"/>
      <g>
        <path class="cls-1" d="M88.57,264.35c1.74-2.61,2.6-5.32,2.82-6.18.05-.18.08-.27.08-.27l.18.07s-.92,3.4-3,6.53c-.03-.04-.05-.09-.08-.13h0v-.02Z"/>
        <path class="cls-1" d="M93.9,281.15c-3.08-6.74-4.58-13.74-4.96-15.95-.08-.46-.14-.7-.14-.7l-.32.18s1.61,8.77,5.28,16.85c.05-.1.1-.22.14-.33v-.03h0Z"/>
        <path class="cls-1" d="M120.32,264.61c-1.58-2.96-2.36-6.03-2.56-7.01-.04-.2-.07-.31-.07-.31l-.17.08s.83,3.85,2.72,7.4c.02-.05.05-.1.07-.14h0v-.02Z"/>
        <path class="cls-1" d="M116.85,280.16c1.95-6.31,2.9-12.85,3.14-14.93.05-.43.09-.65.09-.65l.2.17s-1.02,8.2-3.34,15.77c-.03-.1-.06-.21-.09-.31v-.03s0-.01,0-.01Z"/>
      </g>
    </g>
    <g>
      <path class="cls-1" d="M233.04,251.08c-1.77.19-3.34-.87-3.51-2.39-.17-1.51,1.13-2.9,2.9-3.09s3.34.87,3.51,2.39-1.13,2.9-2.9,3.09Z"/>
      <rect class="cls-1" x="238.27" y="253.1" width="1.55" height="4.24"/>
      <path class="cls-1" d="M239.69,253.8c-3.27.36-6.18-1.62-6.49-4.42s2.09-5.37,5.37-5.73c3.27-.36,6.18,1.62,6.49,4.42s-2.09,5.37-5.37,5.73Z"/>
      <polygon class="cls-1" points="238.88 277.38 251.41 298.57 225.13 298.93 238.88 277.38"/>
      <polygon class="cls-1" points="238.88 278.15 251.41 256.95 226.08 257.54 238.88 278.15"/>
      <polygon class="cls-1" points="244.06 295.94 250 306.86 242.65 321.89 245.22 324.62 246.33 324.62 244.2 321.5 251.17 306.86 244.97 295.68 244.06 295.94"/>
      <polygon class="cls-1" points="233.51 296.1 227.57 307.01 234.92 322.04 232.35 324.78 231.24 324.78 233.37 321.66 226.41 307.01 232.6 295.84 233.51 296.1"/>
      <g>
        <path class="cls-1" d="M222.54,264.08c1.74-2.61,2.6-5.32,2.82-6.18.05-.18.08-.27.08-.27l.18.07s-.92,3.4-3,6.53c-.03-.04-.05-.09-.08-.13h0v-.02Z"/>
        <path class="cls-1" d="M227.88,280.88c-3.08-6.74-4.58-13.74-4.96-15.95-.08-.46-.14-.7-.14-.7l-.32.18s1.61,8.77,5.28,16.85c.05-.1.1-.22.14-.33v-.03h0Z"/>
        <path class="cls-1" d="M254.3,264.34c-1.58-2.96-2.36-6.03-2.56-7.01-.04-.2-.07-.31-.07-.31l-.17.08s.83,3.85,2.72,7.4c.02-.05.05-.1.07-.14h0v-.02Z"/>
        <path class="cls-1" d="M250.82,279.89c1.95-6.31,2.9-12.85,3.14-14.93.05-.43.09-.65.09-.65l.2.17s-1.02,8.2-3.34,15.77c-.03-.1-.06-.21-.09-.31v-.03s0-.01,0-.01Z"/>
      </g>
    </g>
    <g>
      <rect class="cls-1" x="192.89" y="253.1" width="1.55" height="4.24"/>
      <path class="cls-1" d="M194.31,253.8c-3.27.36-6.18-1.62-6.49-4.42s2.09-5.37,5.37-5.73,6.18,1.62,6.49,4.42-2.09,5.37-5.37,5.73Z"/>
      <polygon class="cls-1" points="193.5 277.38 206.02 298.57 179.75 298.93 193.5 277.38"/>
      <polygon class="cls-1" points="193.5 278.15 206.02 256.95 180.69 257.54 193.5 278.15"/>
      <polygon class="cls-1" points="199 295.94 204.94 306.86 197.59 321.89 200.16 324.62 201.27 324.62 199.14 321.5 206.1 306.86 199.91 295.68 199 295.94"/>
      <polygon class="cls-1" points="189.1 296.1 183.16 307.01 190.51 322.04 187.94 324.78 186.84 324.78 188.96 321.66 182 307.01 188.19 295.84 189.1 296.1"/>
      <g>
        <path class="cls-1" d="M177.36,264.35c1.74-2.61,2.6-5.32,2.82-6.18.05-.18.08-.27.08-.27l.18.07s-.92,3.4-3,6.53c-.03-.04-.05-.09-.08-.13h0v-.02Z"/>
        <path class="cls-1" d="M182.69,281.15c-3.08-6.74-4.58-13.74-4.96-15.95-.08-.46-.14-.7-.14-.7l-.32.18s1.61,8.77,5.28,16.85c.05-.1.1-.22.14-.33v-.03h0Z"/>
        <path class="cls-1" d="M209.11,264.61c-1.58-2.96-2.36-6.03-2.56-7.01-.04-.2-.07-.31-.07-.31l-.17.08s.83,3.85,2.72,7.4c.02-.05.05-.1.07-.14h0v-.02Z"/>
        <path class="cls-1" d="M205.64,280.16c1.95-6.31,2.9-12.85,3.14-14.93.05-.43.09-.65.09-.65l.2.17s-1.02,8.2-3.34,15.77c-.03-.1-.06-.21-.09-.31v-.03s0-.01,0-.01Z"/>
      </g>
    </g>
    <g>
      <path class="cls-1" d="M320.97,251.08c-1.77.19-3.34-.87-3.51-2.39-.17-1.51,1.13-2.9,2.9-3.09s3.34.87,3.51,2.39-1.13,2.9-2.9,3.09Z"/>
      <rect class="cls-1" x="326.2" y="253.1" width="1.55" height="4.24"/>
      <path class="cls-1" d="M327.62,253.8c-3.27.36-6.18-1.62-6.49-4.42s2.09-5.37,5.37-5.73c3.27-.36,6.18,1.62,6.49,4.42s-2.09,5.37-5.37,5.73Z"/>
      <polygon class="cls-1" points="326.81 277.38 339.34 298.57 313.06 298.93 326.81 277.38"/>
      <polygon class="cls-1" points="326.81 278.15 339.34 256.95 314.01 257.54 326.81 278.15"/>
      <polygon class="cls-1" points="331.99 295.94 337.93 306.86 330.58 321.89 333.15 324.62 334.26 324.62 332.13 321.5 339.1 306.86 332.9 295.68 331.99 295.94"/>
      <polygon class="cls-1" points="321.44 296.1 315.5 307.01 322.85 322.04 320.28 324.78 319.17 324.78 321.3 321.66 314.34 307.01 320.53 295.84 321.44 296.1"/>
      <g>
        <path class="cls-1" d="M310.47,264.08c1.74-2.61,2.6-5.32,2.82-6.18.05-.18.08-.27.08-.27l.18.07s-.92,3.4-3,6.53c-.03-.04-.05-.09-.08-.13h0v-.02Z"/>
        <path class="cls-1" d="M315.8,280.88c-3.08-6.74-4.58-13.74-4.96-15.95-.08-.46-.14-.7-.14-.7l-.32.18s1.61,8.77,5.28,16.85c.05-.1.1-.22.14-.33v-.03h0Z"/>
        <path class="cls-1" d="M342.22,264.34c-1.58-2.96-2.36-6.03-2.56-7.01-.04-.2-.07-.31-.07-.31l-.17.08s.83,3.85,2.72,7.4c.02-.05.05-.1.07-.14h0v-.02Z"/>
        <path class="cls-1" d="M338.75,279.89c1.95-6.31,2.9-12.85,3.14-14.93.05-.43.09-.65.09-.65l.2.17s-1.02,8.2-3.34,15.77c-.03-.1-.06-.21-.09-.31v-.03s0-.01,0-.01Z"/>
      </g>
    </g>
    <g>
      <rect class="cls-1" x="280.82" y="253.1" width="1.55" height="4.24"/>
      <path class="cls-1" d="M282.24,253.8c-3.27.36-6.18-1.62-6.49-4.42s2.09-5.37,5.37-5.73,6.18,1.62,6.49,4.42-2.09,5.37-5.37,5.73Z"/>
      <polygon class="cls-1" points="281.43 277.38 293.95 298.57 267.68 298.93 281.43 277.38"/>
      <polygon class="cls-1" points="281.43 278.15 293.95 256.95 268.62 257.54 281.43 278.15"/>
      <polygon class="cls-1" points="286.93 295.94 292.87 306.86 285.52 321.89 288.09 324.62 289.2 324.62 287.07 321.5 294.03 306.86 287.84 295.68 286.93 295.94"/>
      <polygon class="cls-1" points="277.03 296.1 271.09 307.01 278.44 322.04 275.87 324.78 274.77 324.78 276.89 321.66 269.93 307.01 276.12 295.84 277.03 296.1"/>
      <g>
        <path class="cls-1" d="M265.28,264.35c1.74-2.61,2.6-5.32,2.82-6.18.05-.18.08-.27.08-.27l.18.07s-.92,3.4-3,6.53c-.03-.04-.05-.09-.08-.13h0v-.02Z"/>
        <path class="cls-1" d="M270.61,281.15c-3.08-6.74-4.58-13.74-4.96-15.95-.08-.46-.14-.7-.14-.7l-.32.18s1.61,8.77,5.28,16.85c.05-.1.1-.22.14-.33v-.03h0Z"/>
        <path class="cls-1" d="M297.04,264.61c-1.58-2.96-2.36-6.03-2.56-7.01-.04-.2-.07-.31-.07-.31l-.17.08s.83,3.85,2.72,7.4c.02-.05.05-.1.07-.14h0v-.02Z"/>
        <path class="cls-1" d="M293.56,280.16c1.95-6.31,2.9-12.85,3.14-14.93.05-.43.09-.65.09-.65l.2.17s-1.02,8.2-3.34,15.77c-.03-.1-.06-.21-.09-.31v-.03s0-.01,0-.01Z"/>
      </g>
    </g>
    <g>
      <path class="cls-1" d="M408.36,251.08c-1.77.19-3.34-.87-3.51-2.39-.17-1.51,1.13-2.9,2.9-3.09s3.34.87,3.51,2.39-1.13,2.9-2.9,3.09Z"/>
      <rect class="cls-1" x="413.59" y="253.1" width="1.55" height="4.24"/>
      <path class="cls-1" d="M415.01,253.8c-3.27.36-6.18-1.62-6.49-4.42s2.09-5.37,5.37-5.73c3.27-.36,6.18,1.62,6.49,4.42s-2.09,5.37-5.37,5.73Z"/>
      <polygon class="cls-1" points="414.2 277.38 426.73 298.57 400.45 298.93 414.2 277.38"/>
      <polygon class="cls-1" points="414.2 278.15 426.73 256.95 401.4 257.54 414.2 278.15"/>
      <polygon class="cls-1" points="419.38 295.94 425.32 306.86 417.97 321.89 420.54 324.62 421.65 324.62 419.52 321.5 426.49 306.86 420.29 295.68 419.38 295.94"/>
      <polygon class="cls-1" points="408.83 296.1 402.89 307.01 410.24 322.04 407.67 324.78 406.56 324.78 408.69 321.66 401.73 307.01 407.92 295.84 408.83 296.1"/>
      <g>
        <path class="cls-1" d="M397.86,264.08c1.74-2.61,2.6-5.32,2.82-6.18.05-.18.08-.27.08-.27l.18.07s-.92,3.4-3,6.53c-.03-.04-.05-.09-.08-.13h0v-.02Z"/>
        <path class="cls-1" d="M403.19,280.88c-3.08-6.74-4.58-13.74-4.96-15.95-.08-.46-.14-.7-.14-.7l-.32.18s1.61,8.77,5.28,16.85c.05-.1.1-.22.14-.33v-.03h0Z"/>
        <path class="cls-1" d="M429.62,264.34c-1.58-2.96-2.36-6.03-2.56-7.01-.04-.2-.07-.31-.07-.31l-.17.08s.83,3.85,2.72,7.4c.02-.05.05-.1.07-.14h0v-.02Z"/>
        <path class="cls-1" d="M426.14,279.89c1.95-6.31,2.9-12.85,3.14-14.93.05-.43.09-.65.09-.65l.2.17s-1.02,8.2-3.34,15.77c-.03-.1-.06-.21-.09-.31v-.03s0-.01,0-.01Z"/>
      </g>
    </g>
    <g>
      <rect class="cls-1" x="368.21" y="253.1" width="1.55" height="4.24"/>
      <path class="cls-1" d="M369.63,253.8c-3.27.36-6.18-1.62-6.49-4.42s2.09-5.37,5.37-5.73,6.18,1.62,6.49,4.42-2.09,5.37-5.37,5.73Z"/>
      <polygon class="cls-1" points="368.82 277.38 381.34 298.57 355.07 298.93 368.82 277.38"/>
      <polygon class="cls-1" points="368.82 278.15 381.34 256.95 356.01 257.54 368.82 278.15"/>
      <polygon class="cls-1" points="374.32 295.94 380.26 306.86 372.91 321.89 375.48 324.62 376.59 324.62 374.46 321.5 381.42 306.86 375.23 295.68 374.32 295.94"/>
      <polygon class="cls-1" points="364.42 296.1 358.48 307.01 365.83 322.04 363.26 324.78 362.16 324.78 364.28 321.66 357.32 307.01 363.51 295.84 364.42 296.1"/>
      <g>
        <path class="cls-1" d="M352.67,264.35c1.74-2.61,2.6-5.32,2.82-6.18.05-.18.08-.27.08-.27l.18.07s-.92,3.4-3,6.53c-.03-.04-.05-.09-.08-.13h0v-.02Z"/>
        <path class="cls-1" d="M358.01,281.15c-3.08-6.74-4.58-13.74-4.96-15.95-.08-.46-.14-.7-.14-.7l-.32.18s1.61,8.77,5.28,16.85c.05-.1.1-.22.14-.33v-.03h0Z"/>
        <path class="cls-1" d="M384.43,264.61c-1.58-2.96-2.36-6.03-2.56-7.01-.04-.2-.07-.31-.07-.31l-.17.08s.83,3.85,2.72,7.4c.02-.05.05-.1.07-.14h0v-.02Z"/>
        <path class="cls-1" d="M380.95,280.16c1.95-6.31,2.9-12.85,3.14-14.93.05-.43.09-.65.09-.65l.2.17s-1.02,8.2-3.34,15.77c-.03-.1-.06-.21-.09-.31v-.03s0-.01,0-.01Z"/>
      </g>
    </g>
  </g>
  <g>
    <path class="cls-1" d="M56.33,355.44c-1.77.19-3.34-.87-3.51-2.39-.17-1.51,1.13-2.9,2.9-3.09s3.34.87,3.51,2.39-1.13,2.9-2.9,3.09Z"/>
    <rect class="cls-1" x="61.56" y="357.46" width="1.55" height="4.24"/>
    <path class="cls-1" d="M62.98,358.16c-3.27.36-6.18-1.62-6.49-4.42s2.09-5.37,5.37-5.73c3.27-.36,6.18,1.62,6.49,4.42s-2.09,5.37-5.37,5.73Z"/>
    <polygon class="cls-1" points="62.17 381.74 74.7 402.93 48.42 403.29 62.17 381.74"/>
    <polygon class="cls-1" points="62.17 382.51 74.7 361.31 49.37 361.9 62.17 382.51"/>
    <polygon class="cls-1" points="67.35 400.3 73.29 411.22 65.94 426.25 68.51 428.98 69.62 428.98 67.49 425.86 74.46 411.22 68.26 400.04 67.35 400.3"/>
    <polygon class="cls-1" points="56.8 400.46 50.86 411.37 58.21 426.4 55.64 429.14 54.53 429.14 56.66 426.02 49.7 411.37 55.89 400.2 56.8 400.46"/>
    <g>
      <path class="cls-1" d="M45.83,368.43c1.74-2.61,2.6-5.32,2.82-6.18.05-.18.08-.27.08-.27l.18.07s-.92,3.4-3,6.53c-.03-.04-.05-.09-.08-.13h0v-.02Z"/>
      <path class="cls-1" d="M51.16,385.24c-3.08-6.74-4.58-13.74-4.96-15.95-.08-.46-.14-.7-.14-.7l-.32.18s1.61,8.77,5.28,16.85c.05-.1.1-.22.14-.33v-.03h0Z"/>
      <path class="cls-1" d="M77.58,368.69c-1.58-2.96-2.36-6.03-2.56-7.01-.04-.2-.07-.31-.07-.31l-.17.08s.83,3.85,2.72,7.4c.02-.05.05-.1.07-.14h0v-.02Z"/>
      <path class="cls-1" d="M74.11,384.24c1.95-6.31,2.9-12.85,3.14-14.93.05-.43.09-.65.09-.65l.2.17s-1.02,8.2-3.34,15.77c-.03-.1-.06-.21-.09-.31v-.03s0-.01,0-.01Z"/>
    </g>
  </g>
  <g>
    <rect class="cls-1" x="16.18" y="357.46" width="1.55" height="4.24"/>
    <path class="cls-1" d="M17.6,358.16c-3.27.36-6.18-1.62-6.49-4.42s2.09-5.37,5.37-5.73,6.18,1.62,6.49,4.42-2.09,5.37-5.37,5.73Z"/>
    <polygon class="cls-1" points="16.79 381.74 29.31 402.93 3.04 403.29 16.79 381.74"/>
    <polygon class="cls-1" points="16.79 382.51 29.31 361.31 3.98 361.9 16.79 382.51"/>
    <polygon class="cls-1" points="22.29 400.3 28.23 411.22 20.88 426.25 23.45 428.98 24.56 428.98 22.43 425.86 29.39 411.22 23.2 400.04 22.29 400.3"/>
    <polygon class="cls-1" points="12.39 400.46 6.45 411.37 13.8 426.4 11.23 429.14 10.13 429.14 12.25 426.02 5.29 411.37 11.48 400.2 12.39 400.46"/>
    <g>
      <path class="cls-1" d="M.64,368.7c1.74-2.61,2.6-5.32,2.82-6.18.05-.18.08-.27.08-.27l.18.07s-.92,3.4-3,6.53c-.03-.04-.05-.09-.08-.13h0v-.02Z"/>
      <path class="cls-1" d="M5.97,385.51c-3.08-6.74-4.58-13.74-4.96-15.95-.08-.46-.14-.7-.14-.7l-.32.18s1.61,8.77,5.28,16.85c.05-.1.1-.22.14-.33v-.03h0Z"/>
      <path class="cls-1" d="M32.39,368.96c-1.58-2.96-2.36-6.03-2.56-7.01-.04-.2-.07-.31-.07-.31l-.17.08s.83,3.85,2.72,7.4c.02-.05.05-.1.07-.14h0v-.02Z"/>
      <path class="cls-1" d="M28.92,384.51c1.95-6.31,2.9-12.85,3.14-14.93.05-.43.09-.65.09-.65l.2.17s-1.02,8.2-3.34,15.77c-.03-.1-.06-.21-.09-.31v-.03s0-.01,0-.01Z"/>
    </g>
  </g>
  <g>
    <path class="cls-1" d="M144.25,355.44c-1.77.19-3.34-.87-3.51-2.39-.17-1.51,1.13-2.9,2.9-3.09s3.34.87,3.51,2.39-1.13,2.9-2.9,3.09Z"/>
    <rect class="cls-1" x="149.48" y="357.46" width="1.55" height="4.24"/>
    <path class="cls-1" d="M150.9,358.16c-3.27.36-6.18-1.62-6.49-4.42s2.09-5.37,5.37-5.73c3.27-.36,6.18,1.62,6.49,4.42s-2.09,5.37-5.37,5.73Z"/>
    <polygon class="cls-1" points="150.09 381.74 162.62 402.93 136.34 403.29 150.09 381.74"/>
    <polygon class="cls-1" points="150.09 382.51 162.62 361.31 137.29 361.9 150.09 382.51"/>
    <polygon class="cls-1" points="155.27 400.3 161.21 411.22 153.86 426.25 156.43 428.98 157.54 428.98 155.41 425.86 162.38 411.22 156.18 400.04 155.27 400.3"/>
    <polygon class="cls-1" points="144.72 400.46 138.78 411.37 146.13 426.4 143.56 429.14 142.45 429.14 144.58 426.02 137.62 411.37 143.81 400.2 144.72 400.46"/>
    <g>
      <path class="cls-1" d="M133.76,368.43c1.74-2.61,2.6-5.32,2.82-6.18.05-.18.08-.27.08-.27l.18.07s-.92,3.4-3,6.53c-.03-.04-.05-.09-.08-.13h0v-.02Z"/>
      <path class="cls-1" d="M139.09,385.24c-3.08-6.74-4.58-13.74-4.96-15.95-.08-.46-.14-.7-.14-.7l-.32.18s1.61,8.77,5.28,16.85c.05-.1.1-.22.14-.33v-.03h0Z"/>
      <path class="cls-1" d="M165.51,368.69c-1.58-2.96-2.36-6.03-2.56-7.01-.04-.2-.07-.31-.07-.31l-.17.08s.83,3.85,2.72,7.4c.02-.05.05-.1.07-.14h0v-.02Z"/>
      <path class="cls-1" d="M162.04,384.24c1.95-6.31,2.9-12.85,3.14-14.93.05-.43.09-.65.09-.65l.2.17s-1.02,8.2-3.34,15.77c-.03-.1-.06-.21-.09-.31v-.03s0-.01,0-.01Z"/>
    </g>
  </g>
  <g>
    <rect class="cls-1" x="104.1" y="357.46" width="1.55" height="4.24"/>
    <path class="cls-1" d="M105.52,358.16c-3.27.36-6.18-1.62-6.49-4.42s2.09-5.37,5.37-5.73,6.18,1.62,6.49,4.42-2.09,5.37-5.37,5.73Z"/>
    <polygon class="cls-1" points="104.71 381.74 117.23 402.93 90.96 403.29 104.71 381.74"/>
    <polygon class="cls-1" points="104.71 382.51 117.23 361.31 91.9 361.9 104.71 382.51"/>
    <polygon class="cls-1" points="110.21 400.3 116.15 411.22 108.8 426.25 111.37 428.98 112.48 428.98 110.35 425.86 117.31 411.22 111.12 400.04 110.21 400.3"/>
    <polygon class="cls-1" points="100.31 400.46 94.37 411.37 101.72 426.4 99.15 429.14 98.05 429.14 100.17 426.02 93.21 411.37 99.4 400.2 100.31 400.46"/>
    <g>
      <path class="cls-1" d="M88.57,368.7c1.74-2.61,2.6-5.32,2.82-6.18.05-.18.08-.27.08-.27l.18.07s-.92,3.4-3,6.53c-.03-.04-.05-.09-.08-.13h0v-.02Z"/>
      <path class="cls-1" d="M93.9,385.51c-3.08-6.74-4.58-13.74-4.96-15.95-.08-.46-.14-.7-.14-.7l-.32.18s1.61,8.77,5.28,16.85c.05-.1.1-.22.14-.33v-.03h0Z"/>
      <path class="cls-1" d="M120.32,368.96c-1.58-2.96-2.36-6.03-2.56-7.01-.04-.2-.07-.31-.07-.31l-.17.08s.83,3.85,2.72,7.4c.02-.05.05-.1.07-.14h0v-.02Z"/>
      <path class="cls-1" d="M116.85,384.51c1.95-6.31,2.9-12.85,3.14-14.93.05-.43.09-.65.09-.65l.2.17s-1.02,8.2-3.34,15.77c-.03-.1-.06-.21-.09-.31v-.03s0-.01,0-.01Z"/>
    </g>
  </g>
  <g>
    <path class="cls-2" d="M233.04,355.44c-1.77.19-3.34-.87-3.51-2.39-.17-1.51,1.13-2.9,2.9-3.09s3.34.87,3.51,2.39-1.13,2.9-2.9,3.09Z"/>
    <rect class="cls-2" x="238.27" y="357.46" width="1.55" height="4.24"/>
    <path class="cls-2" d="M239.69,358.16c-3.27.36-6.18-1.62-6.49-4.42s2.09-5.37,5.37-5.73c3.27-.36,6.18,1.62,6.49,4.42s-2.09,5.37-5.37,5.73Z"/>
    <polygon class="cls-2" points="238.88 381.74 251.41 402.93 225.13 403.29 238.88 381.74"/>
    <polygon class="cls-2" points="238.88 382.51 251.41 361.31 226.08 361.9 238.88 382.51"/>
    <polygon class="cls-2" points="244.06 400.3 250 411.22 242.65 426.25 245.22 428.98 246.33 428.98 244.2 425.86 251.17 411.22 244.97 400.04 244.06 400.3"/>
    <polygon class="cls-2" points="233.51 400.46 227.57 411.37 234.92 426.4 232.35 429.14 231.24 429.14 233.37 426.02 226.41 411.37 232.6 400.2 233.51 400.46"/>
    <g>
      <path class="cls-2" d="M222.54,368.43c1.74-2.61,2.6-5.32,2.82-6.18.05-.18.08-.27.08-.27l.18.07s-.92,3.4-3,6.53c-.03-.04-.05-.09-.08-.13h0v-.02Z"/>
      <path class="cls-2" d="M227.88,385.24c-3.08-6.74-4.58-13.74-4.96-15.95-.08-.46-.14-.7-.14-.7l-.32.18s1.61,8.77,5.28,16.85c.05-.1.1-.22.14-.33v-.03h0Z"/>
      <path class="cls-2" d="M254.3,368.69c-1.58-2.96-2.36-6.03-2.56-7.01-.04-.2-.07-.31-.07-.31l-.17.08s.83,3.85,2.72,7.4c.02-.05.05-.1.07-.14h0v-.02Z"/>
      <path class="cls-2" d="M250.82,384.24c1.95-6.31,2.9-12.85,3.14-14.93.05-.43.09-.65.09-.65l.2.17s-1.02,8.2-3.34,15.77c-.03-.1-.06-.21-.09-.31v-.03s0-.01,0-.01Z"/>
    </g>
  </g>
  <g>
    <rect class="cls-1" x="192.89" y="357.46" width="1.55" height="4.24"/>
    <path class="cls-1" d="M194.31,358.16c-3.27.36-6.18-1.62-6.49-4.42s2.09-5.37,5.37-5.73,6.18,1.62,6.49,4.42-2.09,5.37-5.37,5.73Z"/>
    <polygon class="cls-1" points="193.5 381.74 206.02 402.93 179.75 403.29 193.5 381.74"/>
    <polygon class="cls-1" points="193.5 382.51 206.02 361.31 180.69 361.9 193.5 382.51"/>
    <polygon class="cls-1" points="199 400.3 204.94 411.22 197.59 426.25 200.16 428.98 201.27 428.98 199.14 425.86 206.1 411.22 199.91 400.04 199 400.3"/>
    <polygon class="cls-1" points="189.1 400.46 183.16 411.37 190.51 426.4 187.94 429.14 186.84 429.14 188.96 426.02 182 411.37 188.19 400.2 189.1 400.46"/>
    <g>
      <path class="cls-1" d="M177.36,368.7c1.74-2.61,2.6-5.32,2.82-6.18.05-.18.08-.27.08-.27l.18.07s-.92,3.4-3,6.53c-.03-.04-.05-.09-.08-.13h0v-.02Z"/>
      <path class="cls-1" d="M182.69,385.51c-3.08-6.74-4.58-13.74-4.96-15.95-.08-.46-.14-.7-.14-.7l-.32.18s1.61,8.77,5.28,16.85c.05-.1.1-.22.14-.33v-.03h0Z"/>
      <path class="cls-1" d="M209.11,368.96c-1.58-2.96-2.36-6.03-2.56-7.01-.04-.2-.07-.31-.07-.31l-.17.08s.83,3.85,2.72,7.4c.02-.05.05-.1.07-.14h0v-.02Z"/>
      <path class="cls-1" d="M205.64,384.51c1.95-6.31,2.9-12.85,3.14-14.93.05-.43.09-.65.09-.65l.2.17s-1.02,8.2-3.34,15.77c-.03-.1-.06-.21-.09-.31v-.03s0-.01,0-.01Z"/>
    </g>
  </g>
  <g>
    <path class="cls-2" d="M320.97,355.44c-1.77.19-3.34-.87-3.51-2.39-.17-1.51,1.13-2.9,2.9-3.09s3.34.87,3.51,2.39-1.13,2.9-2.9,3.09Z"/>
    <rect class="cls-2" x="326.2" y="357.46" width="1.55" height="4.24"/>
    <path class="cls-2" d="M327.62,358.16c-3.27.36-6.18-1.62-6.49-4.42s2.09-5.37,5.37-5.73c3.27-.36,6.18,1.62,6.49,4.42s-2.09,5.37-5.37,5.73Z"/>
    <polygon class="cls-2" points="326.81 381.74 339.34 402.93 313.06 403.29 326.81 381.74"/>
    <polygon class="cls-2" points="326.81 382.51 339.34 361.31 314.01 361.9 326.81 382.51"/>
    <polygon class="cls-2" points="331.99 400.3 337.93 411.22 330.58 426.25 333.15 428.98 334.26 428.98 332.13 425.86 339.1 411.22 332.9 400.04 331.99 400.3"/>
    <polygon class="cls-2" points="321.44 400.46 315.5 411.37 322.85 426.4 320.28 429.14 319.17 429.14 321.3 426.02 314.34 411.37 320.53 400.2 321.44 400.46"/>
    <g>
      <path class="cls-2" d="M310.47,368.43c1.74-2.61,2.6-5.32,2.82-6.18.05-.18.08-.27.08-.27l.18.07s-.92,3.4-3,6.53c-.03-.04-.05-.09-.08-.13h0v-.02Z"/>
      <path class="cls-2" d="M315.8,385.24c-3.08-6.74-4.58-13.74-4.96-15.95-.08-.46-.14-.7-.14-.7l-.32.18s1.61,8.77,5.28,16.85c.05-.1.1-.22.14-.33v-.03h0Z"/>
      <path class="cls-2" d="M342.22,368.69c-1.58-2.96-2.36-6.03-2.56-7.01-.04-.2-.07-.31-.07-.31l-.17.08s.83,3.85,2.72,7.4c.02-.05.05-.1.07-.14h0v-.02Z"/>
      <path class="cls-2" d="M338.75,384.24c1.95-6.31,2.9-12.85,3.14-14.93.05-.43.09-.65.09-.65l.2.17s-1.02,8.2-3.34,15.77c-.03-.1-.06-.21-.09-.31v-.03s0-.01,0-.01Z"/>
    </g>
  </g>
  <g>
    <rect class="cls-2" x="280.82" y="357.46" width="1.55" height="4.24"/>
    <path class="cls-2" d="M282.24,358.16c-3.27.36-6.18-1.62-6.49-4.42s2.09-5.37,5.37-5.73,6.18,1.62,6.49,4.42-2.09,5.37-5.37,5.73Z"/>
    <polygon class="cls-2" points="281.43 381.74 293.95 402.93 267.68 403.29 281.43 381.74"/>
    <polygon class="cls-2" points="281.43 382.51 293.95 361.31 268.62 361.9 281.43 382.51"/>
    <polygon class="cls-2" points="286.93 400.3 292.87 411.22 285.52 426.25 288.09 428.98 289.2 428.98 287.07 425.86 294.03 411.22 287.84 400.04 286.93 400.3"/>
    <polygon class="cls-2" points="277.03 400.46 271.09 411.37 278.44 426.4 275.87 429.14 274.77 429.14 276.89 426.02 269.93 411.37 276.12 400.2 277.03 400.46"/>
    <g>
      <path class="cls-2" d="M265.28,368.7c1.74-2.61,2.6-5.32,2.82-6.18.05-.18.08-.27.08-.27l.18.07s-.92,3.4-3,6.53c-.03-.04-.05-.09-.08-.13h0v-.02Z"/>
      <path class="cls-2" d="M270.61,385.51c-3.08-6.74-4.58-13.74-4.96-15.95-.08-.46-.14-.7-.14-.7l-.32.18s1.61,8.77,5.28,16.85c.05-.1.1-.22.14-.33v-.03h0Z"/>
      <path class="cls-2" d="M297.04,368.96c-1.58-2.96-2.36-6.03-2.56-7.01-.04-.2-.07-.31-.07-.31l-.17.08s.83,3.85,2.72,7.4c.02-.05.05-.1.07-.14h0v-.02Z"/>
      <path class="cls-2" d="M293.56,384.51c1.95-6.31,2.9-12.85,3.14-14.93.05-.43.09-.65.09-.65l.2.17s-1.02,8.2-3.34,15.77c-.03-.1-.06-.21-.09-.31v-.03s0-.01,0-.01Z"/>
    </g>
  </g>
  <g>
    <path class="cls-2" d="M408.36,355.44c-1.77.19-3.34-.87-3.51-2.39-.17-1.51,1.13-2.9,2.9-3.09s3.34.87,3.51,2.39-1.13,2.9-2.9,3.09Z"/>
    <rect class="cls-2" x="413.59" y="357.46" width="1.55" height="4.24"/>
    <path class="cls-2" d="M415.01,358.16c-3.27.36-6.18-1.62-6.49-4.42s2.09-5.37,5.37-5.73c3.27-.36,6.18,1.62,6.49,4.42s-2.09,5.37-5.37,5.73Z"/>
    <polygon class="cls-2" points="414.2 381.74 426.73 402.93 400.45 403.29 414.2 381.74"/>
    <polygon class="cls-2" points="414.2 382.51 426.73 361.31 401.4 361.9 414.2 382.51"/>
    <polygon class="cls-2" points="419.38 400.3 425.32 411.22 417.97 426.25 420.54 428.98 421.65 428.98 419.52 425.86 426.49 411.22 420.29 400.04 419.38 400.3"/>
    <polygon class="cls-2" points="408.83 400.46 402.89 411.37 410.24 426.4 407.67 429.14 406.56 429.14 408.69 426.02 401.73 411.37 407.92 400.2 408.83 400.46"/>
    <g>
      <path class="cls-2" d="M397.86,368.43c1.74-2.61,2.6-5.32,2.82-6.18.05-.18.08-.27.08-.27l.18.07s-.92,3.4-3,6.53c-.03-.04-.05-.09-.08-.13h0v-.02Z"/>
      <path class="cls-2" d="M403.19,385.24c-3.08-6.74-4.58-13.74-4.96-15.95-.08-.46-.14-.7-.14-.7l-.32.18s1.61,8.77,5.28,16.85c.05-.1.1-.22.14-.33v-.03h0Z"/>
      <path class="cls-2" d="M429.62,368.69c-1.58-2.96-2.36-6.03-2.56-7.01-.04-.2-.07-.31-.07-.31l-.17.08s.83,3.85,2.72,7.4c.02-.05.05-.1.07-.14h0v-.02Z"/>
      <path class="cls-2" d="M426.14,384.24c1.95-6.31,2.9-12.85,3.14-14.93.05-.43.09-.65.09-.65l.2.17s-1.02,8.2-3.34,15.77c-.03-.1-.06-.21-.09-.31v-.03s0-.01,0-.01Z"/>
    </g>
  </g>
  <g>
    <rect class="cls-2" x="368.21" y="357.46" width="1.55" height="4.24"/>
    <path class="cls-2" d="M369.63,358.16c-3.27.36-6.18-1.62-6.49-4.42s2.09-5.37,5.37-5.73,6.18,1.62,6.49,4.42-2.09,5.37-5.37,5.73Z"/>
    <polygon class="cls-2" points="368.82 381.74 381.34 402.93 355.07 403.29 368.82 381.74"/>
    <polygon class="cls-2" points="368.82 382.51 381.34 361.31 356.01 361.9 368.82 382.51"/>
    <polygon class="cls-2" points="374.32 400.3 380.26 411.22 372.91 426.25 375.48 428.98 376.59 428.98 374.46 425.86 381.42 411.22 375.23 400.04 374.32 400.3"/>
    <polygon class="cls-2" points="364.42 400.46 358.48 411.37 365.83 426.4 363.26 429.14 362.16 429.14 364.28 426.02 357.32 411.37 363.51 400.2 364.42 400.46"/>
    <g>
      <path class="cls-2" d="M352.67,368.7c1.74-2.61,2.6-5.32,2.82-6.18.05-.18.08-.27.08-.27l.18.07s-.92,3.4-3,6.53c-.03-.04-.05-.09-.08-.13h0v-.02Z"/>
      <path class="cls-2" d="M358.01,385.51c-3.08-6.74-4.58-13.74-4.96-15.95-.08-.46-.14-.7-.14-.7l-.32.18s1.61,8.77,5.28,16.85c.05-.1.1-.22.14-.33v-.03h0Z"/>
      <path class="cls-2" d="M384.43,368.96c-1.58-2.96-2.36-6.03-2.56-7.01-.04-.2-.07-.31-.07-.31l-.17.08s.83,3.85,2.72,7.4c.02-.05.05-.1.07-.14h0v-.02Z"/>
      <path class="cls-2" d="M380.95,384.51c1.95-6.31,2.9-12.85,3.14-14.93.05-.43.09-.65.09-.65l.2.17s-1.02,8.2-3.34,15.77c-.03-.1-.06-.21-.09-.31v-.03s0-.01,0-.01Z"/>
    </g>
  </g>
  <g>
    <g>
      <path class="cls-2" d="M56.33,461.55c-1.77.19-3.34-.87-3.51-2.39-.17-1.51,1.13-2.9,2.9-3.09s3.34.87,3.51,2.39-1.13,2.9-2.9,3.09Z"/>
      <rect class="cls-2" x="61.56" y="463.57" width="1.55" height="4.24"/>
      <path class="cls-2" d="M62.98,464.27c-3.27.36-6.18-1.62-6.49-4.42s2.09-5.37,5.37-5.73c3.27-.36,6.18,1.62,6.49,4.42s-2.09,5.37-5.37,5.73Z"/>
      <polygon class="cls-2" points="62.17 487.85 74.7 509.04 48.42 509.4 62.17 487.85"/>
      <polygon class="cls-2" points="62.17 488.62 74.7 467.42 49.37 468.01 62.17 488.62"/>
      <polygon class="cls-2" points="67.35 506.41 73.29 517.33 65.94 532.36 68.51 535.09 69.62 535.09 67.49 531.97 74.46 517.33 68.26 506.15 67.35 506.41"/>
      <polygon class="cls-2" points="56.8 506.57 50.86 517.48 58.21 532.51 55.64 535.25 54.53 535.25 56.66 532.13 49.7 517.48 55.89 506.31 56.8 506.57"/>
      <g>
        <path class="cls-2" d="M45.83,474.54c1.74-2.61,2.6-5.32,2.82-6.18.05-.18.08-.27.08-.27l.18.07s-.92,3.4-3,6.53c-.03-.04-.05-.09-.08-.13h0v-.02Z"/>
        <path class="cls-2" d="M51.16,491.35c-3.08-6.74-4.58-13.74-4.96-15.95-.08-.46-.14-.7-.14-.7l-.32.18s1.61,8.77,5.28,16.85c.05-.1.1-.22.14-.33v-.03h0Z"/>
        <path class="cls-2" d="M77.58,474.81c-1.58-2.96-2.36-6.03-2.56-7.01-.04-.2-.07-.31-.07-.31l-.17.08s.83,3.85,2.72,7.4c.02-.05.05-.1.07-.14h0v-.02Z"/>
        <path class="cls-2" d="M74.11,490.36c1.95-6.31,2.9-12.85,3.14-14.93.05-.43.09-.65.09-.65l.2.17s-1.02,8.2-3.34,15.77c-.03-.1-.06-.21-.09-.31v-.03s0-.01,0-.01Z"/>
      </g>
    </g>
    <g>
      <rect class="cls-2" x="16.18" y="463.57" width="1.55" height="4.24"/>
      <path class="cls-2" d="M17.6,464.27c-3.27.36-6.18-1.62-6.49-4.42s2.09-5.37,5.37-5.73,6.18,1.62,6.49,4.42-2.09,5.37-5.37,5.73Z"/>
      <polygon class="cls-2" points="16.79 487.85 29.31 509.04 3.04 509.4 16.79 487.85"/>
      <polygon class="cls-2" points="16.79 488.62 29.31 467.42 3.98 468.01 16.79 488.62"/>
      <polygon class="cls-2" points="22.29 506.41 28.23 517.33 20.88 532.36 23.45 535.09 24.56 535.09 22.43 531.97 29.39 517.33 23.2 506.15 22.29 506.41"/>
      <polygon class="cls-2" points="12.39 506.57 6.45 517.48 13.8 532.51 11.23 535.25 10.13 535.25 12.25 532.13 5.29 517.48 11.48 506.31 12.39 506.57"/>
      <g>
        <path class="cls-2" d="M.64,474.81c1.74-2.61,2.6-5.32,2.82-6.18.05-.18.08-.27.08-.27l.18.07s-.92,3.4-3,6.53c-.03-.04-.05-.09-.08-.13h0v-.02Z"/>
        <path class="cls-2" d="M5.97,491.62c-3.08-6.74-4.58-13.74-4.96-15.95-.08-.46-.14-.7-.14-.7l-.32.18s1.61,8.77,5.28,16.85c.05-.1.1-.22.14-.33v-.03h0Z"/>
        <path class="cls-2" d="M32.39,475.07c-1.58-2.96-2.36-6.03-2.56-7.01-.04-.2-.07-.31-.07-.31l-.17.08s.83,3.85,2.72,7.4c.02-.05.05-.1.07-.14h0v-.02Z"/>
        <path class="cls-2" d="M28.92,490.62c1.95-6.31,2.9-12.85,3.14-14.93.05-.43.09-.65.09-.65l.2.17s-1.02,8.2-3.34,15.77c-.03-.1-.06-.21-.09-.31v-.03s0-.01,0-.01Z"/>
      </g>
    </g>
    <g>
      <path class="cls-2" d="M144.25,461.55c-1.77.19-3.34-.87-3.51-2.39-.17-1.51,1.13-2.9,2.9-3.09s3.34.87,3.51,2.39-1.13,2.9-2.9,3.09Z"/>
      <rect class="cls-2" x="149.48" y="463.57" width="1.55" height="4.24"/>
      <path class="cls-2" d="M150.9,464.27c-3.27.36-6.18-1.62-6.49-4.42s2.09-5.37,5.37-5.73c3.27-.36,6.18,1.62,6.49,4.42s-2.09,5.37-5.37,5.73Z"/>
      <polygon class="cls-2" points="150.09 487.85 162.62 509.04 136.34 509.4 150.09 487.85"/>
      <polygon class="cls-2" points="150.09 488.62 162.62 467.42 137.29 468.01 150.09 488.62"/>
      <polygon class="cls-2" points="155.27 506.41 161.21 517.33 153.86 532.36 156.43 535.09 157.54 535.09 155.41 531.97 162.38 517.33 156.18 506.15 155.27 506.41"/>
      <polygon class="cls-2" points="144.72 506.57 138.78 517.48 146.13 532.51 143.56 535.25 142.45 535.25 144.58 532.13 137.62 517.48 143.81 506.31 144.72 506.57"/>
      <g>
        <path class="cls-2" d="M133.76,474.54c1.74-2.61,2.6-5.32,2.82-6.18.05-.18.08-.27.08-.27l.18.07s-.92,3.4-3,6.53c-.03-.04-.05-.09-.08-.13h0v-.02Z"/>
        <path class="cls-2" d="M139.09,491.35c-3.08-6.74-4.58-13.74-4.96-15.95-.08-.46-.14-.7-.14-.7l-.32.18s1.61,8.77,5.28,16.85c.05-.1.1-.22.14-.33v-.03h0Z"/>
        <path class="cls-2" d="M165.51,474.81c-1.58-2.96-2.36-6.03-2.56-7.01-.04-.2-.07-.31-.07-.31l-.17.08s.83,3.85,2.72,7.4c.02-.05.05-.1.07-.14h0v-.02Z"/>
        <path class="cls-2" d="M162.04,490.36c1.95-6.31,2.9-12.85,3.14-14.93.05-.43.09-.65.09-.65l.2.17s-1.02,8.2-3.34,15.77c-.03-.1-.06-.21-.09-.31v-.03s0-.01,0-.01Z"/>
      </g>
    </g>
    <g>
      <rect class="cls-2" x="104.1" y="463.57" width="1.55" height="4.24"/>
      <path class="cls-2" d="M105.52,464.27c-3.27.36-6.18-1.62-6.49-4.42s2.09-5.37,5.37-5.73,6.18,1.62,6.49,4.42-2.09,5.37-5.37,5.73Z"/>
      <polygon class="cls-2" points="104.71 487.85 117.23 509.04 90.96 509.4 104.71 487.85"/>
      <polygon class="cls-2" points="104.71 488.62 117.23 467.42 91.9 468.01 104.71 488.62"/>
      <polygon class="cls-2" points="110.21 506.41 116.15 517.33 108.8 532.36 111.37 535.09 112.48 535.09 110.35 531.97 117.31 517.33 111.12 506.15 110.21 506.41"/>
      <polygon class="cls-2" points="100.31 506.57 94.37 517.48 101.72 532.51 99.15 535.25 98.05 535.25 100.17 532.13 93.21 517.48 99.4 506.31 100.31 506.57"/>
      <g>
        <path class="cls-2" d="M88.57,474.81c1.74-2.61,2.6-5.32,2.82-6.18.05-.18.08-.27.08-.27l.18.07s-.92,3.4-3,6.53c-.03-.04-.05-.09-.08-.13h0v-.02Z"/>
        <path class="cls-2" d="M93.9,491.62c-3.08-6.74-4.58-13.74-4.96-15.95-.08-.46-.14-.7-.14-.7l-.32.18s1.61,8.77,5.28,16.85c.05-.1.1-.22.14-.33v-.03h0Z"/>
        <path class="cls-2" d="M120.32,475.07c-1.58-2.96-2.36-6.03-2.56-7.01-.04-.2-.07-.31-.07-.31l-.17.08s.83,3.85,2.72,7.4c.02-.05.05-.1.07-.14h0v-.02Z"/>
        <path class="cls-2" d="M116.85,490.62c1.95-6.31,2.9-12.85,3.14-14.93.05-.43.09-.65.09-.65l.2.17s-1.02,8.2-3.34,15.77c-.03-.1-.06-.21-.09-.31v-.03s0-.01,0-.01Z"/>
      </g>
    </g>
    <g>
      <path class="cls-2" d="M233.04,461.55c-1.77.19-3.34-.87-3.51-2.39-.17-1.51,1.13-2.9,2.9-3.09s3.34.87,3.51,2.39-1.13,2.9-2.9,3.09Z"/>
      <rect class="cls-2" x="238.27" y="463.57" width="1.55" height="4.24"/>
      <path class="cls-2" d="M239.69,464.27c-3.27.36-6.18-1.62-6.49-4.42s2.09-5.37,5.37-5.73c3.27-.36,6.18,1.62,6.49,4.42s-2.09,5.37-5.37,5.73Z"/>
      <polygon class="cls-2" points="238.88 487.85 251.41 509.04 225.13 509.4 238.88 487.85"/>
      <polygon class="cls-2" points="238.88 488.62 251.41 467.42 226.08 468.01 238.88 488.62"/>
      <polygon class="cls-2" points="244.06 506.41 250 517.33 242.65 532.36 245.22 535.09 246.33 535.09 244.2 531.97 251.17 517.33 244.97 506.15 244.06 506.41"/>
      <polygon class="cls-2" points="233.51 506.57 227.57 517.48 234.92 532.51 232.35 535.25 231.24 535.25 233.37 532.13 226.41 517.48 232.6 506.31 233.51 506.57"/>
      <g>
        <path class="cls-2" d="M222.54,474.54c1.74-2.61,2.6-5.32,2.82-6.18.05-.18.08-.27.08-.27l.18.07s-.92,3.4-3,6.53c-.03-.04-.05-.09-.08-.13h0v-.02Z"/>
        <path class="cls-2" d="M227.88,491.35c-3.08-6.74-4.58-13.74-4.96-15.95-.08-.46-.14-.7-.14-.7l-.32.18s1.61,8.77,5.28,16.85c.05-.1.1-.22.14-.33v-.03h0Z"/>
        <path class="cls-2" d="M254.3,474.81c-1.58-2.96-2.36-6.03-2.56-7.01-.04-.2-.07-.31-.07-.31l-.17.08s.83,3.85,2.72,7.4c.02-.05.05-.1.07-.14h0v-.02Z"/>
        <path class="cls-2" d="M250.82,490.36c1.95-6.31,2.9-12.85,3.14-14.93.05-.43.09-.65.09-.65l.2.17s-1.02,8.2-3.34,15.77c-.03-.1-.06-.21-.09-.31v-.03s0-.01,0-.01Z"/>
      </g>
    </g>
    <g>
      <rect class="cls-2" x="192.89" y="463.57" width="1.55" height="4.24"/>
      <path class="cls-2" d="M194.31,464.27c-3.27.36-6.18-1.62-6.49-4.42s2.09-5.37,5.37-5.73,6.18,1.62,6.49,4.42-2.09,5.37-5.37,5.73Z"/>
      <polygon class="cls-2" points="193.5 487.85 206.02 509.04 179.75 509.4 193.5 487.85"/>
      <polygon class="cls-2" points="193.5 488.62 206.02 467.42 180.69 468.01 193.5 488.62"/>
      <polygon class="cls-2" points="199 506.41 204.94 517.33 197.59 532.36 200.16 535.09 201.27 535.09 199.14 531.97 206.1 517.33 199.91 506.15 199 506.41"/>
      <polygon class="cls-2" points="189.1 506.57 183.16 517.48 190.51 532.51 187.94 535.25 186.84 535.25 188.96 532.13 182 517.48 188.19 506.31 189.1 506.57"/>
      <g>
        <path class="cls-2" d="M177.36,474.81c1.74-2.61,2.6-5.32,2.82-6.18.05-.18.08-.27.08-.27l.18.07s-.92,3.4-3,6.53c-.03-.04-.05-.09-.08-.13h0v-.02Z"/>
        <path class="cls-2" d="M182.69,491.62c-3.08-6.74-4.58-13.74-4.96-15.95-.08-.46-.14-.7-.14-.7l-.32.18s1.61,8.77,5.28,16.85c.05-.1.1-.22.14-.33v-.03h0Z"/>
        <path class="cls-2" d="M209.11,475.07c-1.58-2.96-2.36-6.03-2.56-7.01-.04-.2-.07-.31-.07-.31l-.17.08s.83,3.85,2.72,7.4c.02-.05.05-.1.07-.14h0v-.02Z"/>
        <path class="cls-2" d="M205.64,490.62c1.95-6.31,2.9-12.85,3.14-14.93.05-.43.09-.65.09-.65l.2.17s-1.02,8.2-3.34,15.77c-.03-.1-.06-.21-.09-.31v-.03s0-.01,0-.01Z"/>
      </g>
    </g>
    <g>
      <path class="cls-2" d="M320.97,461.55c-1.77.19-3.34-.87-3.51-2.39-.17-1.51,1.13-2.9,2.9-3.09s3.34.87,3.51,2.39-1.13,2.9-2.9,3.09Z"/>
      <rect class="cls-2" x="326.2" y="463.57" width="1.55" height="4.24"/>
      <path class="cls-2" d="M327.62,464.27c-3.27.36-6.18-1.62-6.49-4.42s2.09-5.37,5.37-5.73c3.27-.36,6.18,1.62,6.49,4.42s-2.09,5.37-5.37,5.73Z"/>
      <polygon class="cls-2" points="326.81 487.85 339.34 509.04 313.06 509.4 326.81 487.85"/>
      <polygon class="cls-2" points="326.81 488.62 339.34 467.42 314.01 468.01 326.81 488.62"/>
      <polygon class="cls-2" points="331.99 506.41 337.93 517.33 330.58 532.36 333.15 535.09 334.26 535.09 332.13 531.97 339.1 517.33 332.9 506.15 331.99 506.41"/>
      <polygon class="cls-2" points="321.44 506.57 315.5 517.48 322.85 532.51 320.28 535.25 319.17 535.25 321.3 532.13 314.34 517.48 320.53 506.31 321.44 506.57"/>
      <g>
        <path class="cls-2" d="M310.47,474.54c1.74-2.61,2.6-5.32,2.82-6.18.05-.18.08-.27.08-.27l.18.07s-.92,3.4-3,6.53c-.03-.04-.05-.09-.08-.13h0v-.02Z"/>
        <path class="cls-2" d="M315.8,491.35c-3.08-6.74-4.58-13.74-4.96-15.95-.08-.46-.14-.7-.14-.7l-.32.18s1.61,8.77,5.28,16.85c.05-.1.1-.22.14-.33v-.03h0Z"/>
        <path class="cls-2" d="M342.22,474.81c-1.58-2.96-2.36-6.03-2.56-7.01-.04-.2-.07-.31-.07-.31l-.17.08s.83,3.85,2.72,7.4c.02-.05.05-.1.07-.14h0v-.02Z"/>
        <path class="cls-2" d="M338.75,490.36c1.95-6.31,2.9-12.85,3.14-14.93.05-.43.09-.65.09-.65l.2.17s-1.02,8.2-3.34,15.77c-.03-.1-.06-.21-.09-.31v-.03s0-.01,0-.01Z"/>
      </g>
    </g>
    <g>
      <rect class="cls-2" x="280.82" y="463.57" width="1.55" height="4.24"/>
      <path class="cls-2" d="M282.24,464.27c-3.27.36-6.18-1.62-6.49-4.42s2.09-5.37,5.37-5.73,6.18,1.62,6.49,4.42-2.09,5.37-5.37,5.73Z"/>
      <polygon class="cls-2" points="281.43 487.85 293.95 509.04 267.68 509.4 281.43 487.85"/>
      <polygon class="cls-2" points="281.43 488.62 293.95 467.42 268.62 468.01 281.43 488.62"/>
      <polygon class="cls-2" points="286.93 506.41 292.87 517.33 285.52 532.36 288.09 535.09 289.2 535.09 287.07 531.97 294.03 517.33 287.84 506.15 286.93 506.41"/>
      <polygon class="cls-2" points="277.03 506.57 271.09 517.48 278.44 532.51 275.87 535.25 274.77 535.25 276.89 532.13 269.93 517.48 276.12 506.31 277.03 506.57"/>
      <g>
        <path class="cls-2" d="M265.28,474.81c1.74-2.61,2.6-5.32,2.82-6.18.05-.18.08-.27.08-.27l.18.07s-.92,3.4-3,6.53c-.03-.04-.05-.09-.08-.13h0v-.02Z"/>
        <path class="cls-2" d="M270.61,491.62c-3.08-6.74-4.58-13.74-4.96-15.95-.08-.46-.14-.7-.14-.7l-.32.18s1.61,8.77,5.28,16.85c.05-.1.1-.22.14-.33v-.03h0Z"/>
        <path class="cls-2" d="M297.04,475.07c-1.58-2.96-2.36-6.03-2.56-7.01-.04-.2-.07-.31-.07-.31l-.17.08s.83,3.85,2.72,7.4c.02-.05.05-.1.07-.14h0v-.02Z"/>
        <path class="cls-2" d="M293.56,490.62c1.95-6.31,2.9-12.85,3.14-14.93.05-.43.09-.65.09-.65l.2.17s-1.02,8.2-3.34,15.77c-.03-.1-.06-.21-.09-.31v-.03s0-.01,0-.01Z"/>
      </g>
    </g>
    <g>
      <path class="cls-2" d="M408.36,461.13c-1.77.19-3.34-.87-3.51-2.39-.17-1.51,1.13-2.9,2.9-3.09s3.34.87,3.51,2.39-1.13,2.9-2.9,3.09Z"/>
      <rect class="cls-2" x="413.59" y="463.15" width="1.55" height="4.24"/>
      <path class="cls-2" d="M415.01,463.85c-3.27.36-6.18-1.62-6.49-4.42s2.09-5.37,5.37-5.73c3.27-.36,6.18,1.62,6.49,4.42s-2.09,5.37-5.37,5.73Z"/>
      <polygon class="cls-2" points="414.2 487.43 426.73 508.62 400.45 508.98 414.2 487.43"/>
      <polygon class="cls-2" points="414.2 488.2 426.73 467 401.4 467.59 414.2 488.2"/>
      <polygon class="cls-2" points="419.38 505.99 425.32 516.91 417.97 531.94 420.54 534.67 421.65 534.67 419.52 531.55 426.49 516.91 420.29 505.73 419.38 505.99"/>
      <polygon class="cls-2" points="408.83 506.15 402.89 517.06 410.24 532.09 407.67 534.83 406.56 534.83 408.69 531.71 401.73 517.06 407.92 505.89 408.83 506.15"/>
      <g>
        <path class="cls-2" d="M397.86,474.13c1.74-2.61,2.6-5.32,2.82-6.18.05-.18.08-.27.08-.27l.18.07s-.92,3.4-3,6.53c-.03-.04-.05-.09-.08-.13h0v-.02Z"/>
        <path class="cls-2" d="M403.19,490.93c-3.08-6.74-4.58-13.74-4.96-15.95-.08-.46-.14-.7-.14-.7l-.32.18s1.61,8.77,5.28,16.85c.05-.1.1-.22.14-.33v-.03h0Z"/>
        <path class="cls-2" d="M429.62,474.39c-1.58-2.96-2.36-6.03-2.56-7.01-.04-.2-.07-.31-.07-.31l-.17.08s.83,3.85,2.72,7.4c.02-.05.05-.1.07-.14h0v-.02Z"/>
        <path class="cls-2" d="M426.14,489.94c1.95-6.31,2.9-12.85,3.14-14.93.05-.43.09-.65.09-.65l.2.17s-1.02,8.2-3.34,15.77c-.03-.1-.06-.21-.09-.31v-.03s0-.01,0-.01Z"/>
      </g>
    </g>
    <g>
      <rect class="cls-2" x="368.21" y="463.57" width="1.55" height="4.24"/>
      <path class="cls-2" d="M369.63,464.27c-3.27.36-6.18-1.62-6.49-4.42s2.09-5.37,5.37-5.73,6.18,1.62,6.49,4.42-2.09,5.37-5.37,5.73Z"/>
      <polygon class="cls-2" points="368.82 487.85 381.34 509.04 355.07 509.4 368.82 487.85"/>
      <polygon class="cls-2" points="368.82 488.62 381.34 467.42 356.01 468.01 368.82 488.62"/>
      <polygon class="cls-2" points="374.32 506.41 380.26 517.33 372.91 532.36 375.48 535.09 376.59 535.09 374.46 531.97 381.42 517.33 375.23 506.15 374.32 506.41"/>
      <polygon class="cls-2" points="364.42 506.57 358.48 517.48 365.83 532.51 363.26 535.25 362.16 535.25 364.28 532.13 357.32 517.48 363.51 506.31 364.42 506.57"/>
      <g>
        <path class="cls-2" d="M352.67,474.81c1.74-2.61,2.6-5.32,2.82-6.18.05-.18.08-.27.08-.27l.18.07s-.92,3.4-3,6.53c-.03-.04-.05-.09-.08-.13h0v-.02Z"/>
        <path class="cls-2" d="M358.01,491.62c-3.08-6.74-4.58-13.74-4.96-15.95-.08-.46-.14-.7-.14-.7l-.32.18s1.61,8.77,5.28,16.85c.05-.1.1-.22.14-.33v-.03h0Z"/>
        <path class="cls-2" d="M384.43,475.07c-1.58-2.96-2.36-6.03-2.56-7.01-.04-.2-.07-.31-.07-.31l-.17.08s.83,3.85,2.72,7.4c.02-.05.05-.1.07-.14h0v-.02Z"/>
        <path class="cls-2" d="M380.95,490.62c1.95-6.31,2.9-12.85,3.14-14.93.05-.43.09-.65.09-.65l.2.17s-1.02,8.2-3.34,15.77c-.03-.1-.06-.21-.09-.31v-.03s0-.01,0-.01Z"/>
      </g>
    </g>
  </g>
  <g>
    <path class="cls-1" d="M495.6,461.4c-1.77.19-3.33-.87-3.5-2.39-.17-1.51,1.13-2.89,2.89-3.08s3.33.87,3.5,2.39-1.13,2.89-2.89,3.08Z"/>
    <rect class="cls-1" x="500.82" y="463.42" width="1.55" height="4.23"/>
    <path class="cls-1" d="M502.24,464.12c-3.26.36-6.17-1.62-6.48-4.41s2.09-5.36,5.36-5.72c3.26-.36,6.17,1.62,6.48,4.41s-2.09,5.36-5.36,5.72Z"/>
    <polygon class="cls-1" points="501.43 487.65 513.94 508.81 487.71 509.16 501.43 487.65"/>
    <polygon class="cls-1" points="501.43 488.42 513.94 467.26 488.66 467.85 501.43 488.42"/>
    <polygon class="cls-1" points="506.6 506.18 512.53 517.08 505.2 532.08 507.76 534.81 508.87 534.81 506.74 531.69 513.7 517.08 507.51 505.92 506.6 506.18"/>
    <polygon class="cls-1" points="496.07 506.34 490.14 517.23 497.48 532.23 494.91 534.97 493.81 534.97 495.93 531.85 488.99 517.23 495.16 506.08 496.07 506.34"/>
    <g>
      <path class="cls-1" d="M485.13,474.37c1.74-2.61,2.6-5.31,2.81-6.17.05-.18.08-.27.08-.27l.18.07s-.91,3.39-2.99,6.52c-.03-.04-.05-.09-.08-.13h0v-.02Z"/>
      <path class="cls-1" d="M490.45,491.14c-3.07-6.73-4.57-13.71-4.95-15.93-.08-.46-.14-.7-.14-.7l-.32.18s1.61,8.75,5.27,16.82c.05-.1.1-.22.14-.33v-.03h0Z"/>
      <path class="cls-1" d="M516.82,474.63c-1.58-2.96-2.36-6.02-2.55-6.99-.04-.2-.07-.31-.07-.31l-.17.08s.83,3.84,2.71,7.39c.02-.05.05-.1.07-.14h0v-.02Z"/>
      <path class="cls-1" d="M513.35,490.16c1.95-6.3,2.9-12.83,3.14-14.9.05-.43.09-.65.09-.65l.2.17s-1.02,8.19-3.34,15.74c-.03-.1-.06-.21-.09-.31v-.03s0-.01,0-.01Z"/>
    </g>
  </g>
  <text class="cls-4" transform="translate(530.81 494.12)"><tspan x="0" y="0">=</tspan></text>
  <text class="cls-3" transform="translate(553.91 495.32)"><tspan x="0" y="0">1 Million People</tspan></text>
  <text class="cls-5" transform="translate(2.7 18)"><tspan x="0" y="0">Number of people attended: 35 Million</tspan></text>
</svg>