<?xml version="1.0" encoding="UTF-8"?>
<svg id="Layer_1" xmlns="http://www.w3.org/2000/svg" version="1.1" viewBox="0 0 750.2 603.6">
  <!-- Generator: Adobe Illustrator 29.0.1, SVG Export Plug-In . SVG Version: 2.1.0 Build 192)  -->
  <defs>
    <style>
      .st0 {
        fill: #9d0208;
        stroke: #9d0208;
        stroke-miterlimit: 10;
      }

      .st1, .st2, .st3, .st4 {
        isolation: isolate;
      }

      .st2 {
        font-family: MyriadPro-Bold, 'Myriad Pro';
      }

      .st2, .st3 {
        font-size: 24px;
        font-weight: 700;
      }

      .st3 {
        font-family: HelveticaNeue-Bold, 'Helvetica Neue';
      }

      .st4 {
        font-family: HelveticaNeue, 'Helvetica Neue';
        font-size: 21px;
      }
    </style>
  </defs>
  <g>
    <g>
      <path class="st0" d="M64.5,81.6c-1.8.2-3.3-.9-3.5-2.4s1.1-2.9,2.9-3.1,3.3.9,3.5,2.4-1.1,2.9-2.9,3.1Z"/>
      <rect class="st0" x="69.8" y="83.7" width="1.5" height="4.2"/>
      <path class="st0" d="M71.2,84.4c-3.3.4-6.2-1.6-6.5-4.4s2.1-5.4,5.4-5.7c3.3-.4,6.2,1.6,6.5,4.4s-2.1,5.4-5.4,5.7Z"/>
      <polygon class="st0" points="70.4 107.9 82.9 129.1 56.6 129.5 70.4 107.9"/>
      <polygon class="st0" points="70.4 108.7 82.9 87.5 57.6 88.1 70.4 108.7"/>
      <polygon class="st0" points="75.5 126.5 81.5 137.4 74.1 152.5 76.7 155.2 77.8 155.2 75.7 152.1 82.7 137.4 76.5 126.3 75.5 126.5"/>
      <polygon class="st0" points="65 126.7 59.1 137.6 66.4 152.6 63.8 155.4 62.7 155.4 64.9 152.2 57.9 137.6 64.1 126.4 65 126.7"/>
      <g>
        <path class="st0" d="M54,94.6c1.7-2.6,2.6-5.3,2.8-6.2v-.3h.2s-.9,3.5-3,6.6h0Z"/>
        <path class="st0" d="M59.4,111.4c-3.1-6.7-4.6-13.7-5-16,0-.5,0-.7,0-.7l-.3.2s1.6,8.8,5.3,16.8c0,0,0-.2,0-.3h0Z"/>
        <path class="st0" d="M85.8,94.9c-1.6-3-2.4-6-2.6-7v-.3h-.2s.8,3.9,2.7,7.5h0c0,0,0-.2,0-.2Z"/>
        <path class="st0" d="M82.3,110.5c1.9-6.3,2.9-12.8,3.1-14.9v-.7l.2.2s-1,8.2-3.3,15.8v-.3h0Z"/>
      </g>
    </g>
    <g>
      <rect class="st0" x="24.4" y="83.7" width="1.5" height="4.2"/>
      <path class="st0" d="M25.8,84.4c-3.3.4-6.2-1.6-6.5-4.4s2.1-5.4,5.4-5.7,6.2,1.6,6.5,4.4-2.1,5.4-5.4,5.7Z"/>
      <polygon class="st0" points="25 107.9 37.5 129.1 11.2 129.5 25 107.9"/>
      <polygon class="st0" points="25 108.7 37.5 87.5 12.2 88.1 25 108.7"/>
      <polygon class="st0" points="30.5 126.5 36.4 137.4 29.1 152.5 31.6 155.2 32.8 155.2 30.6 152.1 37.6 137.4 31.4 126.3 30.5 126.5"/>
      <polygon class="st0" points="20.6 126.7 14.6 137.6 22 152.6 19.4 155.4 18.3 155.4 20.4 152.2 13.5 137.6 19.7 126.4 20.6 126.7"/>
      <g>
        <path class="st0" d="M8.8,94.9c1.7-2.6,2.6-5.3,2.8-6.2v-.3h.2s-.9,3.5-3,6.6h0Z"/>
        <path class="st0" d="M14.2,111.7c-3.1-6.7-4.6-13.7-5-16,0-.5,0-.7,0-.7l-.3.2s1.6,8.8,5.3,16.8c0,0,0-.2,0-.3h0Z"/>
        <path class="st0" d="M40.6,95.2c-1.6-3-2.4-6-2.6-7v-.3h-.2s.8,3.9,2.7,7.5h0c0,0,0-.2,0-.2Z"/>
        <path class="st0" d="M37.1,110.7c2-6.3,2.9-12.8,3.1-14.9v-.7l.2.2s-1,8.2-3.3,15.8v-.3h0Z"/>
      </g>
    </g>
    <g>
      <path class="st0" d="M152.4,81.6c-1.8.2-3.3-.9-3.5-2.4s1.1-2.9,2.9-3.1,3.3.9,3.5,2.4-1.1,2.9-2.9,3.1Z"/>
      <rect class="st0" x="157.7" y="83.7" width="1.6" height="4.2"/>
      <path class="st0" d="M159.1,84.4c-3.3.4-6.2-1.6-6.5-4.4s2.1-5.4,5.4-5.7c3.3-.4,6.2,1.6,6.5,4.4s-2.1,5.4-5.4,5.7Z"/>
      <polygon class="st0" points="158.3 107.9 170.8 129.1 144.5 129.5 158.3 107.9"/>
      <polygon class="st0" points="158.3 108.7 170.8 87.5 145.5 88.1 158.3 108.7"/>
      <polygon class="st0" points="163.5 126.5 169.4 137.4 162.1 152.5 164.6 155.2 165.7 155.2 163.6 152.1 170.6 137.4 164.4 126.3 163.5 126.5"/>
      <polygon class="st0" points="152.9 126.7 147 137.6 154.3 152.6 151.8 155.4 150.6 155.4 152.8 152.2 145.8 137.6 152 126.4 152.9 126.7"/>
      <g>
        <path class="st0" d="M142,94.6c1.7-2.6,2.6-5.3,2.8-6.2v-.3h.2s-.9,3.5-3,6.6h0Z"/>
        <path class="st0" d="M147.3,111.4c-3.1-6.7-4.6-13.7-5-16,0-.5,0-.7,0-.7l-.3.2s1.6,8.8,5.3,16.8c0,0,0-.2,0-.3h0Z"/>
        <path class="st0" d="M173.7,94.9c-1.6-3-2.4-6-2.6-7v-.3h-.2s.8,3.9,2.7,7.5h0c0,0,0-.2,0-.2Z"/>
        <path class="st0" d="M170.2,110.5c1.9-6.3,2.9-12.8,3.1-14.9v-.7l.2.2s-1,8.2-3.3,15.8v-.3h0Z"/>
      </g>
    </g>
    <g>
      <rect class="st0" x="112.3" y="83.7" width="1.6" height="4.2"/>
      <path class="st0" d="M113.7,84.4c-3.3.4-6.2-1.6-6.5-4.4s2.1-5.4,5.4-5.7,6.2,1.6,6.5,4.4-2.1,5.4-5.4,5.7Z"/>
      <polygon class="st0" points="112.9 107.9 125.4 129.1 99.2 129.5 112.9 107.9"/>
      <polygon class="st0" points="112.9 108.7 125.4 87.5 100.1 88.1 112.9 108.7"/>
      <polygon class="st0" points="118.4 126.5 124.3 137.4 117 152.5 119.6 155.2 120.7 155.2 118.5 152.1 125.5 137.4 119.3 126.3 118.4 126.5"/>
      <polygon class="st0" points="108.5 126.7 102.6 137.6 109.9 152.6 107.3 155.4 106.2 155.4 108.4 152.2 101.4 137.6 107.6 126.4 108.5 126.7"/>
      <g>
        <path class="st0" d="M96.8,94.9c1.7-2.6,2.6-5.3,2.8-6.2v-.3h.2s-.9,3.5-3,6.6h0Z"/>
        <path class="st0" d="M102.1,111.7c-3.1-6.7-4.6-13.7-5-16,0-.5,0-.7,0-.7l-.3.2s1.6,8.8,5.3,16.8c0,0,0-.2,0-.3h0Z"/>
        <path class="st0" d="M128.5,95.2c-1.6-3-2.4-6-2.6-7v-.3h-.2s.8,3.9,2.7,7.5h0c0,0,0-.2,0-.2Z"/>
        <path class="st0" d="M125,110.7c1.9-6.3,2.9-12.8,3.1-14.9v-.7l.2.2s-1,8.2-3.3,15.8v-.3h0Z"/>
      </g>
    </g>
    <g>
      <path class="st0" d="M241.2,81.6c-1.8.2-3.3-.9-3.5-2.4s1.1-2.9,2.9-3.1,3.3.9,3.5,2.4-1.1,2.9-2.9,3.1Z"/>
      <rect class="st0" x="246.5" y="83.7" width="1.6" height="4.2"/>
      <path class="st0" d="M247.9,84.4c-3.3.4-6.2-1.6-6.5-4.4s2.1-5.4,5.4-5.7c3.3-.4,6.2,1.6,6.5,4.4s-2.1,5.4-5.4,5.7Z"/>
      <polygon class="st0" points="247.1 107.9 259.6 129.1 233.3 129.5 247.1 107.9"/>
      <polygon class="st0" points="247.1 108.7 259.6 87.5 234.3 88.1 247.1 108.7"/>
      <polygon class="st0" points="252.3 126.5 258.2 137.4 250.8 152.5 253.4 155.2 254.5 155.2 252.4 152.1 259.4 137.4 253.2 126.3 252.3 126.5"/>
      <polygon class="st0" points="241.7 126.7 235.8 137.6 243.1 152.6 240.5 155.4 239.4 155.4 241.6 152.2 234.6 137.6 240.8 126.4 241.7 126.7"/>
      <g>
        <path class="st0" d="M230.7,94.6c1.7-2.6,2.6-5.3,2.8-6.2v-.3h.2s-.9,3.5-3,6.6h0Z"/>
        <path class="st0" d="M236.1,111.4c-3.1-6.7-4.6-13.7-5-16,0-.5,0-.7,0-.7l-.3.2s1.6,8.8,5.3,16.8c0,0,0-.2,0-.3h0Z"/>
        <path class="st0" d="M262.5,94.9c-1.6-3-2.4-6-2.6-7v-.3h-.2s.8,3.9,2.7,7.5h0c0,0,0-.2,0-.2Z"/>
        <path class="st0" d="M259,110.5c1.9-6.3,2.9-12.8,3.1-14.9v-.7l.2.2s-1,8.2-3.3,15.8v-.3h0Z"/>
      </g>
    </g>
    <g>
      <rect class="st0" x="201.1" y="83.7" width="1.6" height="4.2"/>
      <path class="st0" d="M202.5,84.4c-3.3.4-6.2-1.6-6.5-4.4s2.1-5.4,5.4-5.7,6.2,1.6,6.5,4.4-2.1,5.4-5.4,5.7Z"/>
      <polygon class="st0" points="201.7 107.9 214.2 129.1 187.9 129.5 201.7 107.9"/>
      <polygon class="st0" points="201.7 108.7 214.2 87.5 188.9 88.1 201.7 108.7"/>
      <polygon class="st0" points="207.2 126.5 213.1 137.4 205.8 152.5 208.4 155.2 209.5 155.2 207.3 152.1 214.3 137.4 208.1 126.3 207.2 126.5"/>
      <polygon class="st0" points="197.3 126.7 191.4 137.6 198.7 152.6 196.1 155.4 195 155.4 197.2 152.2 190.2 137.6 196.4 126.4 197.3 126.7"/>
      <g>
        <path class="st0" d="M185.6,94.9c1.7-2.6,2.6-5.3,2.8-6.2v-.3h.2s-.9,3.5-3,6.6h0Z"/>
        <path class="st0" d="M190.9,111.7c-3.1-6.7-4.6-13.7-5-16,0-.5,0-.7,0-.7l-.3.2s1.6,8.8,5.3,16.8c0,0,0-.2,0-.3h0Z"/>
        <path class="st0" d="M217.3,95.2c-1.6-3-2.4-6-2.6-7v-.3h-.2s.8,3.9,2.7,7.5h0c0,0,0-.2,0-.2Z"/>
        <path class="st0" d="M213.8,110.7c1.9-6.3,2.9-12.8,3.1-14.9v-.7l.2.2s-1,8.2-3.3,15.8v-.3h0Z"/>
      </g>
    </g>
    <g>
      <path class="st0" d="M329.2,81.6c-1.8.2-3.3-.9-3.5-2.4s1.1-2.9,2.9-3.1,3.3.9,3.5,2.4-1.1,2.9-2.9,3.1Z"/>
      <rect class="st0" x="334.4" y="83.7" width="1.5" height="4.2"/>
      <path class="st0" d="M335.8,84.4c-3.3.4-6.2-1.6-6.5-4.4s2.1-5.4,5.4-5.7c3.3-.4,6.2,1.6,6.5,4.4s-2.1,5.4-5.4,5.7Z"/>
      <polygon class="st0" points="335 107.9 347.5 129.1 321.3 129.5 335 107.9"/>
      <polygon class="st0" points="335 108.7 347.5 87.5 322.2 88.1 335 108.7"/>
      <polygon class="st0" points="340.2 126.5 346.1 137.4 338.8 152.5 341.3 155.2 342.5 155.2 340.3 152.1 347.3 137.4 341.1 126.3 340.2 126.5"/>
      <polygon class="st0" points="329.6 126.7 323.7 137.6 331 152.6 328.5 155.4 327.4 155.4 329.5 152.2 322.5 137.6 328.7 126.4 329.6 126.7"/>
      <g>
        <path class="st0" d="M318.7,94.6c1.7-2.6,2.6-5.3,2.8-6.2v-.3h.2s-.9,3.5-3,6.6h0Z"/>
        <path class="st0" d="M324,111.4c-3.1-6.7-4.6-13.7-5-16,0-.5,0-.7,0-.7l-.3.2s1.6,8.8,5.3,16.8c0,0,0-.2,0-.3h0Z"/>
        <path class="st0" d="M350.4,94.9c-1.6-3-2.4-6-2.6-7v-.3h-.2s.8,3.9,2.7,7.5h0c0,0,0-.2,0-.2Z"/>
        <path class="st0" d="M346.9,110.5c2-6.3,2.9-12.8,3.1-14.9v-.7l.2.2s-1,8.2-3.3,15.8v-.3h0Z"/>
      </g>
    </g>
    <g>
      <rect class="st0" x="289" y="83.7" width="1.5" height="4.2"/>
      <path class="st0" d="M290.4,84.4c-3.3.4-6.2-1.6-6.5-4.4s2.1-5.4,5.4-5.7,6.2,1.6,6.5,4.4-2.1,5.4-5.4,5.7Z"/>
      <polygon class="st0" points="289.6 107.9 302.1 129.1 275.9 129.5 289.6 107.9"/>
      <polygon class="st0" points="289.6 108.7 302.1 87.5 276.8 88.1 289.6 108.7"/>
      <polygon class="st0" points="295.1 126.5 301.1 137.4 293.7 152.5 296.3 155.2 297.4 155.2 295.3 152.1 302.2 137.4 296 126.3 295.1 126.5"/>
      <polygon class="st0" points="285.2 126.7 279.3 137.6 286.6 152.6 284.1 155.4 283 155.4 285.1 152.2 278.1 137.6 284.3 126.4 285.2 126.7"/>
      <g>
        <path class="st0" d="M273.5,94.9c1.7-2.6,2.6-5.3,2.8-6.2v-.3h.2s-.9,3.5-3,6.6h0Z"/>
        <path class="st0" d="M278.8,111.7c-3.1-6.7-4.6-13.7-5-16,0-.5,0-.7,0-.7l-.3.2s1.6,8.8,5.3,16.8c0,0,0-.2,0-.3h0Z"/>
        <path class="st0" d="M305.2,95.2c-1.6-3-2.4-6-2.6-7v-.3h-.2s.8,3.9,2.7,7.5h0c0,0,0-.2,0-.2Z"/>
        <path class="st0" d="M301.8,110.7c2-6.3,2.9-12.8,3.1-14.9v-.7l.2.2s-1,8.2-3.3,15.8v-.3h0Z"/>
      </g>
    </g>
    <g>
      <path class="st0" d="M416.6,81.6c-1.8.2-3.3-.9-3.5-2.4s1.1-2.9,2.9-3.1,3.3.9,3.5,2.4-1.1,2.9-2.9,3.1Z"/>
      <rect class="st0" x="421.8" y="83.7" width="1.5" height="4.2"/>
      <path class="st0" d="M423.2,84.4c-3.3.4-6.2-1.6-6.5-4.4s2.1-5.4,5.4-5.7c3.3-.4,6.2,1.6,6.5,4.4s-2.1,5.4-5.4,5.7Z"/>
      <polygon class="st0" points="422.4 107.9 434.9 129.1 408.6 129.5 422.4 107.9"/>
      <polygon class="st0" points="422.4 108.7 434.9 87.5 409.6 88.1 422.4 108.7"/>
      <polygon class="st0" points="427.6 126.5 433.5 137.4 426.2 152.5 428.7 155.2 429.8 155.2 427.7 152.1 434.7 137.4 428.5 126.3 427.6 126.5"/>
      <polygon class="st0" points="417 126.7 411.1 137.6 418.4 152.6 415.9 155.4 414.8 155.4 416.9 152.2 409.9 137.6 416.1 126.4 417 126.7"/>
      <g>
        <path class="st0" d="M406.1,94.6c1.7-2.6,2.6-5.3,2.8-6.2v-.3h.2s-.9,3.5-3,6.6h0Z"/>
        <path class="st0" d="M411.4,111.4c-3.1-6.7-4.6-13.7-5-16,0-.5,0-.7,0-.7l-.3.2s1.6,8.8,5.3,16.8c0,0,0-.2,0-.3h0Z"/>
        <path class="st0" d="M437.8,94.9c-1.6-3-2.4-6-2.6-7v-.3h-.2s.8,3.9,2.7,7.5h0c0,0,0-.2,0-.2Z"/>
        <path class="st0" d="M434.3,110.5c2-6.3,2.9-12.8,3.1-14.9v-.7l.2.2s-1,8.2-3.3,15.8v-.3h0Z"/>
      </g>
    </g>
    <g>
      <rect class="st0" x="376.4" y="83.7" width="1.5" height="4.2"/>
      <path class="st0" d="M377.8,84.4c-3.3.4-6.2-1.6-6.5-4.4s2.1-5.4,5.4-5.7,6.2,1.6,6.5,4.4-2.1,5.4-5.4,5.7Z"/>
      <polygon class="st0" points="377 107.9 389.5 129.1 363.3 129.5 377 107.9"/>
      <polygon class="st0" points="377 108.7 389.5 87.5 364.2 88.1 377 108.7"/>
      <polygon class="st0" points="382.5 126.5 388.5 137.4 381.1 152.5 383.7 155.2 384.8 155.2 382.7 152.1 389.6 137.4 383.4 126.3 382.5 126.5"/>
      <polygon class="st0" points="372.6 126.7 366.7 137.6 374 152.6 371.5 155.4 370.4 155.4 372.5 152.2 365.5 137.6 371.7 126.4 372.6 126.7"/>
      <g>
        <path class="st0" d="M360.9,94.9c1.7-2.6,2.6-5.3,2.8-6.2v-.3h.2s-.9,3.5-3,6.6h0Z"/>
        <path class="st0" d="M366.2,111.7c-3.1-6.7-4.6-13.7-5-16,0-.5,0-.7,0-.7l-.3.2s1.6,8.8,5.3,16.8c0,0,0-.2,0-.3h0Z"/>
        <path class="st0" d="M392.6,95.2c-1.6-3-2.4-6-2.6-7v-.3h-.2s.8,3.9,2.7,7.5h0c0,0,0-.2,0-.2Z"/>
        <path class="st0" d="M389.1,110.7c2-6.3,2.9-12.8,3.1-14.9v-.7l.2.2s-1,8.2-3.3,15.8v-.3h0Z"/>
      </g>
    </g>
  </g>
  <g>
    <g>
      <path class="st0" d="M64.5,179c-1.8.2-3.3-.9-3.5-2.4s1.1-2.9,2.9-3.1,3.3.9,3.5,2.4-1.1,2.9-2.9,3.1Z"/>
      <rect class="st0" x="69.8" y="181" width="1.5" height="4.2"/>
      <path class="st0" d="M71.2,181.7c-3.3.4-6.2-1.6-6.5-4.4s2.1-5.4,5.4-5.7c3.3-.4,6.2,1.6,6.5,4.4s-2.1,5.4-5.4,5.7Z"/>
      <polygon class="st0" points="70.4 205.3 82.9 226.5 56.6 226.8 70.4 205.3"/>
      <polygon class="st0" points="70.4 206 82.9 184.8 57.6 185.4 70.4 206"/>
      <polygon class="st0" points="75.5 223.8 81.5 234.7 74.1 249.8 76.7 252.5 77.8 252.5 75.7 249.4 82.7 234.7 76.5 223.6 75.5 223.8"/>
      <polygon class="st0" points="65 224 59.1 234.9 66.4 249.9 63.8 252.7 62.7 252.7 64.9 249.5 57.9 234.9 64.1 223.7 65 224"/>
      <g>
        <path class="st0" d="M54,192c1.7-2.6,2.6-5.3,2.8-6.2v-.3h.2s-.9,3.5-3,6.6h0Z"/>
        <path class="st0" d="M59.4,208.8c-3.1-6.7-4.6-13.7-5-15.9,0-.5,0-.7,0-.7l-.3.2s1.6,8.8,5.3,16.9c0-.1,0-.2,0-.3h0v-.2Z"/>
        <path class="st0" d="M85.8,192.2c-1.6-3-2.4-6-2.6-7v-.3h-.2s.8,3.9,2.7,7.5h0c0-.1,0-.2,0-.2Z"/>
        <path class="st0" d="M82.3,207.8c1.9-6.3,2.9-12.9,3.1-14.9v-.6l.2.2s-1,8.2-3.3,15.8v-.3h0v-.2Z"/>
      </g>
    </g>
    <g>
      <rect class="st0" x="24.4" y="181" width="1.5" height="4.2"/>
      <path class="st0" d="M25.8,181.7c-3.3.4-6.2-1.6-6.5-4.4s2.1-5.4,5.4-5.7,6.2,1.6,6.5,4.4-2.1,5.4-5.4,5.7Z"/>
      <polygon class="st0" points="25 205.3 37.5 226.5 11.2 226.8 25 205.3"/>
      <polygon class="st0" points="25 206 37.5 184.8 12.2 185.4 25 206"/>
      <polygon class="st0" points="30.5 223.8 36.4 234.7 29.1 249.8 31.6 252.5 32.8 252.5 30.6 249.4 37.6 234.7 31.4 223.6 30.5 223.8"/>
      <polygon class="st0" points="20.6 224 14.6 234.9 22 249.9 19.4 252.7 18.3 252.7 20.4 249.5 13.5 234.9 19.7 223.7 20.6 224"/>
      <g>
        <path class="st0" d="M8.8,192.2c1.7-2.6,2.6-5.3,2.8-6.2v-.3h.2s-.9,3.5-3,6.6h0Z"/>
        <path class="st0" d="M14.2,209c-3.1-6.7-4.6-13.7-5-15.9,0-.5,0-.7,0-.7l-.3.2s1.6,8.8,5.3,16.9c0-.1,0-.2,0-.3h0v-.2Z"/>
        <path class="st0" d="M40.6,192.5c-1.6-3-2.4-6-2.6-7v-.3h-.2s.8,3.9,2.7,7.5h0c0-.1,0-.2,0-.2Z"/>
        <path class="st0" d="M37.1,208c2-6.3,2.9-12.9,3.1-14.9v-.6l.2.2s-1,8.2-3.3,15.8v-.3h0v-.2Z"/>
      </g>
    </g>
    <g>
      <path class="st0" d="M152.4,179c-1.8.2-3.3-.9-3.5-2.4s1.1-2.9,2.9-3.1,3.3.9,3.5,2.4-1.1,2.9-2.9,3.1Z"/>
      <rect class="st0" x="157.7" y="181" width="1.6" height="4.2"/>
      <path class="st0" d="M159.1,181.7c-3.3.4-6.2-1.6-6.5-4.4s2.1-5.4,5.4-5.7c3.3-.4,6.2,1.6,6.5,4.4s-2.1,5.4-5.4,5.7Z"/>
      <polygon class="st0" points="158.3 205.3 170.8 226.5 144.5 226.8 158.3 205.3"/>
      <polygon class="st0" points="158.3 206 170.8 184.8 145.5 185.4 158.3 206"/>
      <polygon class="st0" points="163.5 223.8 169.4 234.7 162.1 249.8 164.6 252.5 165.7 252.5 163.6 249.4 170.6 234.7 164.4 223.6 163.5 223.8"/>
      <polygon class="st0" points="152.9 224 147 234.9 154.3 249.9 151.8 252.7 150.6 252.7 152.8 249.5 145.8 234.9 152 223.7 152.9 224"/>
      <g>
        <path class="st0" d="M142,192c1.7-2.6,2.6-5.3,2.8-6.2v-.3h.2s-.9,3.5-3,6.6h0Z"/>
        <path class="st0" d="M147.3,208.8c-3.1-6.7-4.6-13.7-5-15.9,0-.5,0-.7,0-.7l-.3.2s1.6,8.8,5.3,16.9c0-.1,0-.2,0-.3h0v-.2Z"/>
        <path class="st0" d="M173.7,192.2c-1.6-3-2.4-6-2.6-7v-.3h-.2s.8,3.9,2.7,7.5h0c0-.1,0-.2,0-.2Z"/>
        <path class="st0" d="M170.2,207.8c1.9-6.3,2.9-12.9,3.1-14.9v-.6l.2.2s-1,8.2-3.3,15.8v-.3h0v-.2Z"/>
      </g>
    </g>
    <g>
      <rect class="st0" x="112.3" y="181" width="1.6" height="4.2"/>
      <path class="st0" d="M113.7,181.7c-3.3.4-6.2-1.6-6.5-4.4s2.1-5.4,5.4-5.7,6.2,1.6,6.5,4.4-2.1,5.4-5.4,5.7Z"/>
      <polygon class="st0" points="112.9 205.3 125.4 226.5 99.2 226.8 112.9 205.3"/>
      <polygon class="st0" points="112.9 206 125.4 184.8 100.1 185.4 112.9 206"/>
      <polygon class="st0" points="118.4 223.8 124.3 234.7 117 249.8 119.6 252.5 120.7 252.5 118.5 249.4 125.5 234.7 119.3 223.6 118.4 223.8"/>
      <polygon class="st0" points="108.5 224 102.6 234.9 109.9 249.9 107.3 252.7 106.2 252.7 108.4 249.5 101.4 234.9 107.6 223.7 108.5 224"/>
      <g>
        <path class="st0" d="M96.8,192.2c1.7-2.6,2.6-5.3,2.8-6.2v-.3h.2s-.9,3.5-3,6.6h0Z"/>
        <path class="st0" d="M102.1,209c-3.1-6.7-4.6-13.7-5-15.9,0-.5,0-.7,0-.7l-.3.2s1.6,8.8,5.3,16.9c0-.1,0-.2,0-.3h0v-.2Z"/>
        <path class="st0" d="M128.5,192.5c-1.6-3-2.4-6-2.6-7v-.3h-.2s.8,3.9,2.7,7.5h0c0-.1,0-.2,0-.2Z"/>
        <path class="st0" d="M125,208c1.9-6.3,2.9-12.9,3.1-14.9v-.6l.2.2s-1,8.2-3.3,15.8v-.3h0v-.2Z"/>
      </g>
    </g>
    <g>
      <path class="st0" d="M241.2,179c-1.8.2-3.3-.9-3.5-2.4s1.1-2.9,2.9-3.1,3.3.9,3.5,2.4-1.1,2.9-2.9,3.1Z"/>
      <rect class="st0" x="246.5" y="181" width="1.6" height="4.2"/>
      <path class="st0" d="M247.9,181.7c-3.3.4-6.2-1.6-6.5-4.4s2.1-5.4,5.4-5.7c3.3-.4,6.2,1.6,6.5,4.4s-2.1,5.4-5.4,5.7Z"/>
      <polygon class="st0" points="247.1 205.3 259.6 226.5 233.3 226.8 247.1 205.3"/>
      <polygon class="st0" points="247.1 206 259.6 184.8 234.3 185.4 247.1 206"/>
      <polygon class="st0" points="252.3 223.8 258.2 234.7 250.8 249.8 253.4 252.5 254.5 252.5 252.4 249.4 259.4 234.7 253.2 223.6 252.3 223.8"/>
      <polygon class="st0" points="241.7 224 235.8 234.9 243.1 249.9 240.5 252.7 239.4 252.7 241.6 249.5 234.6 234.9 240.8 223.7 241.7 224"/>
      <g>
        <path class="st0" d="M230.7,192c1.7-2.6,2.6-5.3,2.8-6.2v-.3h.2s-.9,3.5-3,6.6h0Z"/>
        <path class="st0" d="M236.1,208.8c-3.1-6.7-4.6-13.7-5-15.9,0-.5,0-.7,0-.7l-.3.2s1.6,8.8,5.3,16.9c0-.1,0-.2,0-.3h0v-.2Z"/>
        <path class="st0" d="M262.5,192.2c-1.6-3-2.4-6-2.6-7v-.3h-.2s.8,3.9,2.7,7.5h0c0-.1,0-.2,0-.2Z"/>
        <path class="st0" d="M259,207.8c1.9-6.3,2.9-12.9,3.1-14.9v-.6l.2.2s-1,8.2-3.3,15.8v-.3h0v-.2Z"/>
      </g>
    </g>
    <g>
      <rect class="st0" x="201.1" y="181" width="1.6" height="4.2"/>
      <path class="st0" d="M202.5,181.7c-3.3.4-6.2-1.6-6.5-4.4s2.1-5.4,5.4-5.7,6.2,1.6,6.5,4.4-2.1,5.4-5.4,5.7Z"/>
      <polygon class="st0" points="201.7 205.3 214.2 226.5 187.9 226.8 201.7 205.3"/>
      <polygon class="st0" points="201.7 206 214.2 184.8 188.9 185.4 201.7 206"/>
      <polygon class="st0" points="207.2 223.8 213.1 234.7 205.8 249.8 208.4 252.5 209.5 252.5 207.3 249.4 214.3 234.7 208.1 223.6 207.2 223.8"/>
      <polygon class="st0" points="197.3 224 191.4 234.9 198.7 249.9 196.1 252.7 195 252.7 197.2 249.5 190.2 234.9 196.4 223.7 197.3 224"/>
      <g>
        <path class="st0" d="M185.6,192.2c1.7-2.6,2.6-5.3,2.8-6.2v-.3h.2s-.9,3.5-3,6.6h0Z"/>
        <path class="st0" d="M190.9,209c-3.1-6.7-4.6-13.7-5-15.9,0-.5,0-.7,0-.7l-.3.2s1.6,8.8,5.3,16.9c0-.1,0-.2,0-.3h0v-.2Z"/>
        <path class="st0" d="M217.3,192.5c-1.6-3-2.4-6-2.6-7v-.3h-.2s.8,3.9,2.7,7.5h0c0-.1,0-.2,0-.2Z"/>
        <path class="st0" d="M213.8,208c1.9-6.3,2.9-12.9,3.1-14.9v-.6l.2.2s-1,8.2-3.3,15.8v-.3h0v-.2Z"/>
      </g>
    </g>
    <g>
      <path class="st0" d="M329.2,179c-1.8.2-3.3-.9-3.5-2.4s1.1-2.9,2.9-3.1,3.3.9,3.5,2.4-1.1,2.9-2.9,3.1Z"/>
      <rect class="st0" x="334.4" y="181" width="1.5" height="4.2"/>
      <path class="st0" d="M335.8,181.7c-3.3.4-6.2-1.6-6.5-4.4s2.1-5.4,5.4-5.7c3.3-.4,6.2,1.6,6.5,4.4s-2.1,5.4-5.4,5.7Z"/>
      <polygon class="st0" points="335 205.3 347.5 226.5 321.3 226.8 335 205.3"/>
      <polygon class="st0" points="335 206 347.5 184.8 322.2 185.4 335 206"/>
      <polygon class="st0" points="340.2 223.8 346.1 234.7 338.8 249.8 341.3 252.5 342.5 252.5 340.3 249.4 347.3 234.7 341.1 223.6 340.2 223.8"/>
      <polygon class="st0" points="329.6 224 323.7 234.9 331 249.9 328.5 252.7 327.4 252.7 329.5 249.5 322.5 234.9 328.7 223.7 329.6 224"/>
      <g>
        <path class="st0" d="M318.7,192c1.7-2.6,2.6-5.3,2.8-6.2v-.3h.2s-.9,3.5-3,6.6h0Z"/>
        <path class="st0" d="M324,208.8c-3.1-6.7-4.6-13.7-5-15.9,0-.5,0-.7,0-.7l-.3.2s1.6,8.8,5.3,16.9c0-.1,0-.2,0-.3h0v-.2Z"/>
        <path class="st0" d="M350.4,192.2c-1.6-3-2.4-6-2.6-7v-.3h-.2s.8,3.9,2.7,7.5h0c0-.1,0-.2,0-.2Z"/>
        <path class="st0" d="M346.9,207.8c2-6.3,2.9-12.9,3.1-14.9v-.6l.2.2s-1,8.2-3.3,15.8v-.3h0v-.2Z"/>
      </g>
    </g>
    <g>
      <rect class="st0" x="289" y="181" width="1.5" height="4.2"/>
      <path class="st0" d="M290.4,181.7c-3.3.4-6.2-1.6-6.5-4.4s2.1-5.4,5.4-5.7,6.2,1.6,6.5,4.4-2.1,5.4-5.4,5.7Z"/>
      <polygon class="st0" points="289.6 205.3 302.1 226.5 275.9 226.8 289.6 205.3"/>
      <polygon class="st0" points="289.6 206 302.1 184.8 276.8 185.4 289.6 206"/>
      <polygon class="st0" points="295.1 223.8 301.1 234.7 293.7 249.8 296.3 252.5 297.4 252.5 295.3 249.4 302.2 234.7 296 223.6 295.1 223.8"/>
      <polygon class="st0" points="285.2 224 279.3 234.9 286.6 249.9 284.1 252.7 283 252.7 285.1 249.5 278.1 234.9 284.3 223.7 285.2 224"/>
      <g>
        <path class="st0" d="M273.5,192.2c1.7-2.6,2.6-5.3,2.8-6.2v-.3h.2s-.9,3.5-3,6.6h0Z"/>
        <path class="st0" d="M278.8,209c-3.1-6.7-4.6-13.7-5-15.9,0-.5,0-.7,0-.7l-.3.2s1.6,8.8,5.3,16.9c0-.1,0-.2,0-.3h0v-.2Z"/>
        <path class="st0" d="M305.2,192.5c-1.6-3-2.4-6-2.6-7v-.3h-.2s.8,3.9,2.7,7.5h0c0-.1,0-.2,0-.2Z"/>
        <path class="st0" d="M301.8,208c2-6.3,2.9-12.9,3.1-14.9v-.6l.2.2s-1,8.2-3.3,15.8v-.3h0v-.2Z"/>
      </g>
    </g>
    <g>
      <path class="st0" d="M416.6,179c-1.8.2-3.3-.9-3.5-2.4s1.1-2.9,2.9-3.1,3.3.9,3.5,2.4-1.1,2.9-2.9,3.1Z"/>
      <rect class="st0" x="421.8" y="181" width="1.5" height="4.2"/>
      <path class="st0" d="M423.2,181.7c-3.3.4-6.2-1.6-6.5-4.4s2.1-5.4,5.4-5.7c3.3-.4,6.2,1.6,6.5,4.4s-2.1,5.4-5.4,5.7Z"/>
      <polygon class="st0" points="422.4 205.3 434.9 226.5 408.6 226.8 422.4 205.3"/>
      <polygon class="st0" points="422.4 206 434.9 184.8 409.6 185.4 422.4 206"/>
      <polygon class="st0" points="427.6 223.8 433.5 234.7 426.2 249.8 428.7 252.5 429.8 252.5 427.7 249.4 434.7 234.7 428.5 223.6 427.6 223.8"/>
      <polygon class="st0" points="417 224 411.1 234.9 418.4 249.9 415.9 252.7 414.8 252.7 416.9 249.5 409.9 234.9 416.1 223.7 417 224"/>
      <g>
        <path class="st0" d="M406.1,192c1.7-2.6,2.6-5.3,2.8-6.2v-.3h.2s-.9,3.5-3,6.6h0Z"/>
        <path class="st0" d="M411.4,208.8c-3.1-6.7-4.6-13.7-5-15.9,0-.5,0-.7,0-.7l-.3.2s1.6,8.8,5.3,16.9c0-.1,0-.2,0-.3h0v-.2Z"/>
        <path class="st0" d="M437.8,192.2c-1.6-3-2.4-6-2.6-7v-.3h-.2s.8,3.9,2.7,7.5h0c0-.1,0-.2,0-.2Z"/>
        <path class="st0" d="M434.3,207.8c2-6.3,2.9-12.9,3.1-14.9v-.6l.2.2s-1,8.2-3.3,15.8v-.3h0v-.2Z"/>
      </g>
    </g>
    <g>
      <rect class="st0" x="376.4" y="181" width="1.5" height="4.2"/>
      <path class="st0" d="M377.8,181.7c-3.3.4-6.2-1.6-6.5-4.4s2.1-5.4,5.4-5.7,6.2,1.6,6.5,4.4-2.1,5.4-5.4,5.7Z"/>
      <polygon class="st0" points="377 205.3 389.5 226.5 363.3 226.8 377 205.3"/>
      <polygon class="st0" points="377 206 389.5 184.8 364.2 185.4 377 206"/>
      <polygon class="st0" points="382.5 223.8 388.5 234.7 381.1 249.8 383.7 252.5 384.8 252.5 382.7 249.4 389.6 234.7 383.4 223.6 382.5 223.8"/>
      <polygon class="st0" points="372.6 224 366.7 234.9 374 249.9 371.5 252.7 370.4 252.7 372.5 249.5 365.5 234.9 371.7 223.7 372.6 224"/>
      <g>
        <path class="st0" d="M360.9,192.2c1.7-2.6,2.6-5.3,2.8-6.2v-.3h.2s-.9,3.5-3,6.6h0Z"/>
        <path class="st0" d="M366.2,209c-3.1-6.7-4.6-13.7-5-15.9,0-.5,0-.7,0-.7l-.3.2s1.6,8.8,5.3,16.9c0-.1,0-.2,0-.3h0v-.2Z"/>
        <path class="st0" d="M392.6,192.5c-1.6-3-2.4-6-2.6-7v-.3h-.2s.8,3.9,2.7,7.5h0c0-.1,0-.2,0-.2Z"/>
        <path class="st0" d="M389.1,208c2-6.3,2.9-12.9,3.1-14.9v-.6l.2.2s-1,8.2-3.3,15.8v-.3h0v-.2Z"/>
      </g>
    </g>
  </g>
  <g>
    <g>
      <path class="st0" d="M64.5,283.7c-1.8.2-3.3-.9-3.5-2.4s1.1-2.9,2.9-3.1,3.3.9,3.5,2.4-1.1,2.9-2.9,3.1Z"/>
      <rect class="st0" x="69.8" y="285.7" width="1.5" height="4.2"/>
      <path class="st0" d="M71.2,286.4c-3.3.4-6.2-1.6-6.5-4.4s2.1-5.4,5.4-5.7c3.3-.4,6.2,1.6,6.5,4.4s-2.1,5.4-5.4,5.7Z"/>
      <polygon class="st0" points="70.4 310 82.9 331.2 56.6 331.5 70.4 310"/>
      <polygon class="st0" points="70.4 310.7 82.9 289.6 57.6 290.1 70.4 310.7"/>
      <polygon class="st0" points="75.5 328.5 81.5 339.5 74.1 354.5 76.7 357.2 77.8 357.2 75.7 354.1 82.7 339.5 76.5 328.3 75.5 328.5"/>
      <polygon class="st0" points="65 328.7 59.1 339.6 66.4 354.6 63.8 357.4 62.7 357.4 64.9 354.3 57.9 339.6 64.1 328.4 65 328.7"/>
      <g>
        <path class="st0" d="M54,296.7c1.7-2.6,2.6-5.3,2.8-6.2v-.3h.2s-.9,3.5-3,6.6h0Z"/>
        <path class="st0" d="M59.4,313.5c-3.1-6.7-4.6-13.7-5-16,0-.5,0-.7,0-.7l-.3.2s1.6,8.8,5.3,16.9c0-.1,0-.2,0-.3h0Z"/>
        <path class="st0" d="M85.8,296.9c-1.6-3-2.4-6-2.6-7v-.3h-.2s.8,3.9,2.7,7.5h0c0-.1,0-.2,0-.2Z"/>
        <path class="st0" d="M82.3,312.5c1.9-6.3,2.9-12.9,3.1-14.9v-.6l.2.2s-1,8.2-3.3,15.8v-.3h0v-.2Z"/>
      </g>
    </g>
    <g>
      <rect class="st0" x="24.4" y="285.7" width="1.5" height="4.2"/>
      <path class="st0" d="M25.8,286.4c-3.3.4-6.2-1.6-6.5-4.4s2.1-5.4,5.4-5.7,6.2,1.6,6.5,4.4-2.1,5.4-5.4,5.7Z"/>
      <polygon class="st0" points="25 310 37.5 331.2 11.2 331.5 25 310"/>
      <polygon class="st0" points="25 310.7 37.5 289.6 12.2 290.1 25 310.7"/>
      <polygon class="st0" points="30.5 328.5 36.4 339.5 29.1 354.5 31.6 357.2 32.8 357.2 30.6 354.1 37.6 339.5 31.4 328.3 30.5 328.5"/>
      <polygon class="st0" points="20.6 328.7 14.6 339.6 22 354.6 19.4 357.4 18.3 357.4 20.4 354.3 13.5 339.6 19.7 328.4 20.6 328.7"/>
      <g>
        <path class="st0" d="M8.8,297c1.7-2.6,2.6-5.3,2.8-6.2v-.3h.2s-.9,3.5-3,6.6h0Z"/>
        <path class="st0" d="M14.2,313.7c-3.1-6.7-4.6-13.7-5-16,0-.5,0-.7,0-.7l-.3.2s1.6,8.8,5.3,16.9c0-.1,0-.2,0-.3h0Z"/>
        <path class="st0" d="M40.6,297.2c-1.6-3-2.4-6-2.6-7v-.3h-.2s.8,3.9,2.7,7.5h0c0-.1,0-.2,0-.2Z"/>
        <path class="st0" d="M37.1,312.8c2-6.3,2.9-12.9,3.1-14.9v-.6l.2.2s-1,8.2-3.3,15.8v-.3h0v-.2Z"/>
      </g>
    </g>
    <g>
      <path class="st0" d="M152.4,283.7c-1.8.2-3.3-.9-3.5-2.4s1.1-2.9,2.9-3.1,3.3.9,3.5,2.4-1.1,2.9-2.9,3.1Z"/>
      <rect class="st0" x="157.7" y="285.7" width="1.6" height="4.2"/>
      <path class="st0" d="M159.1,286.4c-3.3.4-6.2-1.6-6.5-4.4s2.1-5.4,5.4-5.7c3.3-.4,6.2,1.6,6.5,4.4s-2.1,5.4-5.4,5.7Z"/>
      <polygon class="st0" points="158.3 310 170.8 331.2 144.5 331.5 158.3 310"/>
      <polygon class="st0" points="158.3 310.7 170.8 289.6 145.5 290.1 158.3 310.7"/>
      <polygon class="st0" points="163.5 328.5 169.4 339.5 162.1 354.5 164.6 357.2 165.7 357.2 163.6 354.1 170.6 339.5 164.4 328.3 163.5 328.5"/>
      <polygon class="st0" points="152.9 328.7 147 339.6 154.3 354.6 151.8 357.4 150.6 357.4 152.8 354.3 145.8 339.6 152 328.4 152.9 328.7"/>
      <g>
        <path class="st0" d="M142,296.7c1.7-2.6,2.6-5.3,2.8-6.2v-.3h.2s-.9,3.5-3,6.6h0Z"/>
        <path class="st0" d="M147.3,313.5c-3.1-6.7-4.6-13.7-5-16,0-.5,0-.7,0-.7l-.3.2s1.6,8.8,5.3,16.9c0-.1,0-.2,0-.3h0Z"/>
        <path class="st0" d="M173.7,296.9c-1.6-3-2.4-6-2.6-7v-.3h-.2s.8,3.9,2.7,7.5h0c0-.1,0-.2,0-.2Z"/>
        <path class="st0" d="M170.2,312.5c1.9-6.3,2.9-12.9,3.1-14.9v-.6l.2.2s-1,8.2-3.3,15.8v-.3h0v-.2Z"/>
      </g>
    </g>
    <g>
      <rect class="st0" x="112.3" y="285.7" width="1.6" height="4.2"/>
      <path class="st0" d="M113.7,286.4c-3.3.4-6.2-1.6-6.5-4.4s2.1-5.4,5.4-5.7,6.2,1.6,6.5,4.4-2.1,5.4-5.4,5.7Z"/>
      <polygon class="st0" points="112.9 310 125.4 331.2 99.2 331.5 112.9 310"/>
      <polygon class="st0" points="112.9 310.7 125.4 289.6 100.1 290.1 112.9 310.7"/>
      <polygon class="st0" points="118.4 328.5 124.3 339.5 117 354.5 119.6 357.2 120.7 357.2 118.5 354.1 125.5 339.5 119.3 328.3 118.4 328.5"/>
      <polygon class="st0" points="108.5 328.7 102.6 339.6 109.9 354.6 107.3 357.4 106.2 357.4 108.4 354.3 101.4 339.6 107.6 328.4 108.5 328.7"/>
      <g>
        <path class="st0" d="M96.8,297c1.7-2.6,2.6-5.3,2.8-6.2v-.3h.2s-.9,3.5-3,6.6h0Z"/>
        <path class="st0" d="M102.1,313.7c-3.1-6.7-4.6-13.7-5-16,0-.5,0-.7,0-.7l-.3.2s1.6,8.8,5.3,16.9c0-.1,0-.2,0-.3h0Z"/>
        <path class="st0" d="M128.5,297.2c-1.6-3-2.4-6-2.6-7v-.3h-.2s.8,3.9,2.7,7.5h0c0-.1,0-.2,0-.2Z"/>
        <path class="st0" d="M125,312.8c1.9-6.3,2.9-12.9,3.1-14.9v-.6l.2.2s-1,8.2-3.3,15.8v-.3h0v-.2Z"/>
      </g>
    </g>
    <g>
      <path class="st0" d="M241.2,283.7c-1.8.2-3.3-.9-3.5-2.4s1.1-2.9,2.9-3.1,3.3.9,3.5,2.4-1.1,2.9-2.9,3.1Z"/>
      <rect class="st0" x="246.5" y="285.7" width="1.6" height="4.2"/>
      <path class="st0" d="M247.9,286.4c-3.3.4-6.2-1.6-6.5-4.4s2.1-5.4,5.4-5.7c3.3-.4,6.2,1.6,6.5,4.4s-2.1,5.4-5.4,5.7Z"/>
      <polygon class="st0" points="247.1 310 259.6 331.2 233.3 331.5 247.1 310"/>
      <polygon class="st0" points="247.1 310.7 259.6 289.6 234.3 290.1 247.1 310.7"/>
      <polygon class="st0" points="252.3 328.5 258.2 339.5 250.8 354.5 253.4 357.2 254.5 357.2 252.4 354.1 259.4 339.5 253.2 328.3 252.3 328.5"/>
      <polygon class="st0" points="241.7 328.7 235.8 339.6 243.1 354.6 240.5 357.4 239.4 357.4 241.6 354.3 234.6 339.6 240.8 328.4 241.7 328.7"/>
      <g>
        <path class="st0" d="M230.7,296.7c1.7-2.6,2.6-5.3,2.8-6.2v-.3h.2s-.9,3.5-3,6.6h0Z"/>
        <path class="st0" d="M236.1,313.5c-3.1-6.7-4.6-13.7-5-16,0-.5,0-.7,0-.7l-.3.2s1.6,8.8,5.3,16.9c0-.1,0-.2,0-.3h0Z"/>
        <path class="st0" d="M262.5,296.9c-1.6-3-2.4-6-2.6-7v-.3h-.2s.8,3.9,2.7,7.5h0c0-.1,0-.2,0-.2Z"/>
        <path class="st0" d="M259,312.5c1.9-6.3,2.9-12.9,3.1-14.9v-.6l.2.2s-1,8.2-3.3,15.8v-.3h0v-.2Z"/>
      </g>
    </g>
    <g>
      <rect class="st0" x="201.1" y="285.7" width="1.6" height="4.2"/>
      <path class="st0" d="M202.5,286.4c-3.3.4-6.2-1.6-6.5-4.4s2.1-5.4,5.4-5.7,6.2,1.6,6.5,4.4-2.1,5.4-5.4,5.7Z"/>
      <polygon class="st0" points="201.7 310 214.2 331.2 187.9 331.5 201.7 310"/>
      <polygon class="st0" points="201.7 310.7 214.2 289.6 188.9 290.1 201.7 310.7"/>
      <polygon class="st0" points="207.2 328.5 213.1 339.5 205.8 354.5 208.4 357.2 209.5 357.2 207.3 354.1 214.3 339.5 208.1 328.3 207.2 328.5"/>
      <polygon class="st0" points="197.3 328.7 191.4 339.6 198.7 354.6 196.1 357.4 195 357.4 197.2 354.3 190.2 339.6 196.4 328.4 197.3 328.7"/>
      <g>
        <path class="st0" d="M185.6,297c1.7-2.6,2.6-5.3,2.8-6.2v-.3h.2s-.9,3.5-3,6.6h0Z"/>
        <path class="st0" d="M190.9,313.7c-3.1-6.7-4.6-13.7-5-16,0-.5,0-.7,0-.7l-.3.2s1.6,8.8,5.3,16.9c0-.1,0-.2,0-.3h0Z"/>
        <path class="st0" d="M217.3,297.2c-1.6-3-2.4-6-2.6-7v-.3h-.2s.8,3.9,2.7,7.5h0c0-.1,0-.2,0-.2Z"/>
        <path class="st0" d="M213.8,312.8c1.9-6.3,2.9-12.9,3.1-14.9v-.6l.2.2s-1,8.2-3.3,15.8v-.3h0v-.2Z"/>
      </g>
    </g>
    <g>
      <path class="st0" d="M329.2,283.7c-1.8.2-3.3-.9-3.5-2.4s1.1-2.9,2.9-3.1,3.3.9,3.5,2.4-1.1,2.9-2.9,3.1Z"/>
      <rect class="st0" x="334.4" y="285.7" width="1.5" height="4.2"/>
      <path class="st0" d="M335.8,286.4c-3.3.4-6.2-1.6-6.5-4.4s2.1-5.4,5.4-5.7c3.3-.4,6.2,1.6,6.5,4.4s-2.1,5.4-5.4,5.7Z"/>
      <polygon class="st0" points="335 310 347.5 331.2 321.3 331.5 335 310"/>
      <polygon class="st0" points="335 310.7 347.5 289.6 322.2 290.1 335 310.7"/>
      <polygon class="st0" points="340.2 328.5 346.1 339.5 338.8 354.5 341.3 357.2 342.5 357.2 340.3 354.1 347.3 339.5 341.1 328.3 340.2 328.5"/>
      <polygon class="st0" points="329.6 328.7 323.7 339.6 331 354.6 328.5 357.4 327.4 357.4 329.5 354.3 322.5 339.6 328.7 328.4 329.6 328.7"/>
      <g>
        <path class="st0" d="M318.7,296.7c1.7-2.6,2.6-5.3,2.8-6.2v-.3h.2s-.9,3.5-3,6.6h0Z"/>
        <path class="st0" d="M324,313.5c-3.1-6.7-4.6-13.7-5-16,0-.5,0-.7,0-.7l-.3.2s1.6,8.8,5.3,16.9c0-.1,0-.2,0-.3h0Z"/>
        <path class="st0" d="M350.4,296.9c-1.6-3-2.4-6-2.6-7v-.3h-.2s.8,3.9,2.7,7.5h0c0-.1,0-.2,0-.2Z"/>
        <path class="st0" d="M346.9,312.5c2-6.3,2.9-12.9,3.1-14.9v-.6l.2.2s-1,8.2-3.3,15.8v-.3h0v-.2Z"/>
      </g>
    </g>
    <g>
      <rect class="st0" x="289" y="285.7" width="1.5" height="4.2"/>
      <path class="st0" d="M290.4,286.4c-3.3.4-6.2-1.6-6.5-4.4s2.1-5.4,5.4-5.7,6.2,1.6,6.5,4.4-2.1,5.4-5.4,5.7Z"/>
      <polygon class="st0" points="289.6 310 302.1 331.2 275.9 331.5 289.6 310"/>
      <polygon class="st0" points="289.6 310.7 302.1 289.6 276.8 290.1 289.6 310.7"/>
      <polygon class="st0" points="295.1 328.5 301.1 339.5 293.7 354.5 296.3 357.2 297.4 357.2 295.3 354.1 302.2 339.5 296 328.3 295.1 328.5"/>
      <polygon class="st0" points="285.2 328.7 279.3 339.6 286.6 354.6 284.1 357.4 283 357.4 285.1 354.3 278.1 339.6 284.3 328.4 285.2 328.7"/>
      <g>
        <path class="st0" d="M273.5,297c1.7-2.6,2.6-5.3,2.8-6.2v-.3h.2s-.9,3.5-3,6.6h0Z"/>
        <path class="st0" d="M278.8,313.7c-3.1-6.7-4.6-13.7-5-16,0-.5,0-.7,0-.7l-.3.2s1.6,8.8,5.3,16.9c0-.1,0-.2,0-.3h0Z"/>
        <path class="st0" d="M305.2,297.2c-1.6-3-2.4-6-2.6-7v-.3h-.2s.8,3.9,2.7,7.5h0c0-.1,0-.2,0-.2Z"/>
        <path class="st0" d="M301.8,312.8c2-6.3,2.9-12.9,3.1-14.9v-.6l.2.2s-1,8.2-3.3,15.8v-.3h0v-.2Z"/>
      </g>
    </g>
    <g>
      <path class="st0" d="M416.6,283.7c-1.8.2-3.3-.9-3.5-2.4s1.1-2.9,2.9-3.1,3.3.9,3.5,2.4-1.1,2.9-2.9,3.1Z"/>
      <rect class="st0" x="421.8" y="285.7" width="1.5" height="4.2"/>
      <path class="st0" d="M423.2,286.4c-3.3.4-6.2-1.6-6.5-4.4s2.1-5.4,5.4-5.7c3.3-.4,6.2,1.6,6.5,4.4s-2.1,5.4-5.4,5.7Z"/>
      <polygon class="st0" points="422.4 310 434.9 331.2 408.6 331.5 422.4 310"/>
      <polygon class="st0" points="422.4 310.7 434.9 289.6 409.6 290.1 422.4 310.7"/>
      <polygon class="st0" points="427.6 328.5 433.5 339.5 426.2 354.5 428.7 357.2 429.8 357.2 427.7 354.1 434.7 339.5 428.5 328.3 427.6 328.5"/>
      <polygon class="st0" points="417 328.7 411.1 339.6 418.4 354.6 415.9 357.4 414.8 357.4 416.9 354.3 409.9 339.6 416.1 328.4 417 328.7"/>
      <g>
        <path class="st0" d="M406.1,296.7c1.7-2.6,2.6-5.3,2.8-6.2v-.3h.2s-.9,3.5-3,6.6h0Z"/>
        <path class="st0" d="M411.4,313.5c-3.1-6.7-4.6-13.7-5-16,0-.5,0-.7,0-.7l-.3.2s1.6,8.8,5.3,16.9c0-.1,0-.2,0-.3h0Z"/>
        <path class="st0" d="M437.8,296.9c-1.6-3-2.4-6-2.6-7v-.3h-.2s.8,3.9,2.7,7.5h0c0-.1,0-.2,0-.2Z"/>
        <path class="st0" d="M434.3,312.5c2-6.3,2.9-12.9,3.1-14.9v-.6l.2.2s-1,8.2-3.3,15.8v-.3h0v-.2Z"/>
      </g>
    </g>
    <g>
      <rect class="st0" x="376.4" y="285.7" width="1.5" height="4.2"/>
      <path class="st0" d="M377.8,286.4c-3.3.4-6.2-1.6-6.5-4.4s2.1-5.4,5.4-5.7,6.2,1.6,6.5,4.4-2.1,5.4-5.4,5.7Z"/>
      <polygon class="st0" points="377 310 389.5 331.2 363.3 331.5 377 310"/>
      <polygon class="st0" points="377 310.7 389.5 289.6 364.2 290.1 377 310.7"/>
      <polygon class="st0" points="382.5 328.5 388.5 339.5 381.1 354.5 383.7 357.2 384.8 357.2 382.7 354.1 389.6 339.5 383.4 328.3 382.5 328.5"/>
      <polygon class="st0" points="372.6 328.7 366.7 339.6 374 354.6 371.5 357.4 370.4 357.4 372.5 354.3 365.5 339.6 371.7 328.4 372.6 328.7"/>
      <g>
        <path class="st0" d="M360.9,297c1.7-2.6,2.6-5.3,2.8-6.2v-.3h.2s-.9,3.5-3,6.6h0Z"/>
        <path class="st0" d="M366.2,313.7c-3.1-6.7-4.6-13.7-5-16,0-.5,0-.7,0-.7l-.3.2s1.6,8.8,5.3,16.9c0-.1,0-.2,0-.3h0Z"/>
        <path class="st0" d="M392.6,297.2c-1.6-3-2.4-6-2.6-7v-.3h-.2s.8,3.9,2.7,7.5h0c0-.1,0-.2,0-.2Z"/>
        <path class="st0" d="M389.1,312.8c2-6.3,2.9-12.9,3.1-14.9v-.6l.2.2s-1,8.2-3.3,15.8v-.3h0v-.2Z"/>
      </g>
    </g>
  </g>
  <g>
    <g>
      <path class="st0" d="M64.5,388c-1.8.2-3.3-.9-3.5-2.4s1.1-2.9,2.9-3.1,3.3.9,3.5,2.4-1.1,2.9-2.9,3.1Z"/>
      <rect class="st0" x="69.8" y="390.1" width="1.5" height="4.2"/>
      <path class="st0" d="M71.2,390.8c-3.3.4-6.2-1.6-6.5-4.4s2.1-5.4,5.4-5.7c3.3-.4,6.2,1.6,6.5,4.4s-2.1,5.4-5.4,5.7Z"/>
      <polygon class="st0" points="70.4 414.3 82.9 435.5 56.6 435.9 70.4 414.3"/>
      <polygon class="st0" points="70.4 415.1 82.9 393.9 57.6 394.5 70.4 415.1"/>
      <polygon class="st0" points="75.5 432.9 81.5 443.8 74.1 458.8 76.7 461.6 77.8 461.6 75.7 458.5 82.7 443.8 76.5 432.6 75.5 432.9"/>
      <polygon class="st0" points="65 433.1 59.1 444 66.4 459 63.8 461.7 62.7 461.7 64.9 458.6 57.9 444 64.1 432.8 65 433.1"/>
      <g>
        <path class="st0" d="M54,401c1.7-2.6,2.6-5.3,2.8-6.2v-.3h.2s-.9,3.5-3,6.6h0Z"/>
        <path class="st0" d="M59.4,417.8c-3.1-6.7-4.6-13.7-5-16,0-.5,0-.7,0-.7l-.3.2s1.6,8.8,5.3,16.9c0-.1,0-.2,0-.3h0Z"/>
        <path class="st0" d="M85.8,401.3c-1.6-3-2.4-6-2.6-7v-.3h-.2s.8,3.9,2.7,7.5h0c0-.1,0-.2,0-.2Z"/>
        <path class="st0" d="M82.3,416.8c1.9-6.3,2.9-12.9,3.1-14.9v-.6l.2.2s-1,8.2-3.3,15.8v-.3h0v-.2Z"/>
      </g>
    </g>
    <g>
      <rect class="st0" x="24.4" y="390.1" width="1.5" height="4.2"/>
      <path class="st0" d="M25.8,390.8c-3.3.4-6.2-1.6-6.5-4.4s2.1-5.4,5.4-5.7,6.2,1.6,6.5,4.4-2.1,5.4-5.4,5.7Z"/>
      <polygon class="st0" points="25 414.3 37.5 435.5 11.2 435.9 25 414.3"/>
      <polygon class="st0" points="25 415.1 37.5 393.9 12.2 394.5 25 415.1"/>
      <polygon class="st0" points="30.5 432.9 36.4 443.8 29.1 458.8 31.6 461.6 32.8 461.6 30.6 458.5 37.6 443.8 31.4 432.6 30.5 432.9"/>
      <polygon class="st0" points="20.6 433.1 14.6 444 22 459 19.4 461.7 18.3 461.7 20.4 458.6 13.5 444 19.7 432.8 20.6 433.1"/>
      <g>
        <path class="st0" d="M8.8,401.3c1.7-2.6,2.6-5.3,2.8-6.2v-.3h.2s-.9,3.5-3,6.6h0Z"/>
        <path class="st0" d="M14.2,418.1c-3.1-6.7-4.6-13.7-5-16,0-.5,0-.7,0-.7l-.3.2s1.6,8.8,5.3,16.9c0-.1,0-.2,0-.3h0Z"/>
        <path class="st0" d="M40.6,401.6c-1.6-3-2.4-6-2.6-7v-.3h-.2s.8,3.9,2.7,7.5h0c0-.1,0-.2,0-.2Z"/>
        <path class="st0" d="M37.1,417.1c2-6.3,2.9-12.9,3.1-14.9v-.6l.2.2s-1,8.2-3.3,15.8v-.3h0v-.2Z"/>
      </g>
    </g>
    <g>
      <path class="st0" d="M152.4,388c-1.8.2-3.3-.9-3.5-2.4s1.1-2.9,2.9-3.1,3.3.9,3.5,2.4-1.1,2.9-2.9,3.1Z"/>
      <rect class="st0" x="157.7" y="390.1" width="1.6" height="4.2"/>
      <path class="st0" d="M159.1,390.8c-3.3.4-6.2-1.6-6.5-4.4s2.1-5.4,5.4-5.7c3.3-.4,6.2,1.6,6.5,4.4s-2.1,5.4-5.4,5.7Z"/>
      <polygon class="st0" points="158.3 414.3 170.8 435.5 144.5 435.9 158.3 414.3"/>
      <polygon class="st0" points="158.3 415.1 170.8 393.9 145.5 394.5 158.3 415.1"/>
      <polygon class="st0" points="163.5 432.9 169.4 443.8 162.1 458.8 164.6 461.6 165.7 461.6 163.6 458.5 170.6 443.8 164.4 432.6 163.5 432.9"/>
      <polygon class="st0" points="152.9 433.1 147 444 154.3 459 151.8 461.7 150.6 461.7 152.8 458.6 145.8 444 152 432.8 152.9 433.1"/>
      <g>
        <path class="st0" d="M142,401c1.7-2.6,2.6-5.3,2.8-6.2v-.3h.2s-.9,3.5-3,6.6h0Z"/>
        <path class="st0" d="M147.3,417.8c-3.1-6.7-4.6-13.7-5-16,0-.5,0-.7,0-.7l-.3.2s1.6,8.8,5.3,16.9c0-.1,0-.2,0-.3h0Z"/>
        <path class="st0" d="M173.7,401.3c-1.6-3-2.4-6-2.6-7v-.3h-.2s.8,3.9,2.7,7.5h0c0-.1,0-.2,0-.2Z"/>
        <path class="st0" d="M170.2,416.8c1.9-6.3,2.9-12.9,3.1-14.9v-.6l.2.2s-1,8.2-3.3,15.8v-.3h0v-.2Z"/>
      </g>
    </g>
    <g>
      <rect class="st0" x="112.3" y="390.1" width="1.6" height="4.2"/>
      <path class="st0" d="M113.7,390.8c-3.3.4-6.2-1.6-6.5-4.4s2.1-5.4,5.4-5.7,6.2,1.6,6.5,4.4-2.1,5.4-5.4,5.7Z"/>
      <polygon class="st0" points="112.9 414.3 125.4 435.5 99.2 435.9 112.9 414.3"/>
      <polygon class="st0" points="112.9 415.1 125.4 393.9 100.1 394.5 112.9 415.1"/>
      <polygon class="st0" points="118.4 432.9 124.3 443.8 117 458.8 119.6 461.6 120.7 461.6 118.5 458.5 125.5 443.8 119.3 432.6 118.4 432.9"/>
      <polygon class="st0" points="108.5 433.1 102.6 444 109.9 459 107.3 461.7 106.2 461.7 108.4 458.6 101.4 444 107.6 432.8 108.5 433.1"/>
      <g>
        <path class="st0" d="M96.8,401.3c1.7-2.6,2.6-5.3,2.8-6.2v-.3h.2s-.9,3.5-3,6.6h0Z"/>
        <path class="st0" d="M102.1,418.1c-3.1-6.7-4.6-13.7-5-16,0-.5,0-.7,0-.7l-.3.2s1.6,8.8,5.3,16.9c0-.1,0-.2,0-.3h0Z"/>
        <path class="st0" d="M128.5,401.6c-1.6-3-2.4-6-2.6-7v-.3h-.2s.8,3.9,2.7,7.5h0c0-.1,0-.2,0-.2Z"/>
        <path class="st0" d="M125,417.1c1.9-6.3,2.9-12.9,3.1-14.9v-.6l.2.2s-1,8.2-3.3,15.8v-.3h0v-.2Z"/>
      </g>
    </g>
    <g>
      <path class="st0" d="M241.2,388c-1.8.2-3.3-.9-3.5-2.4s1.1-2.9,2.9-3.1,3.3.9,3.5,2.4-1.1,2.9-2.9,3.1Z"/>
      <rect class="st0" x="246.5" y="390.1" width="1.6" height="4.2"/>
      <path class="st0" d="M247.9,390.8c-3.3.4-6.2-1.6-6.5-4.4s2.1-5.4,5.4-5.7c3.3-.4,6.2,1.6,6.5,4.4s-2.1,5.4-5.4,5.7Z"/>
      <polygon class="st0" points="247.1 414.3 259.6 435.5 233.3 435.9 247.1 414.3"/>
      <polygon class="st0" points="247.1 415.1 259.6 393.9 234.3 394.5 247.1 415.1"/>
      <polygon class="st0" points="252.3 432.9 258.2 443.8 250.8 458.8 253.4 461.6 254.5 461.6 252.4 458.5 259.4 443.8 253.2 432.6 252.3 432.9"/>
      <polygon class="st0" points="241.7 433.1 235.8 444 243.1 459 240.5 461.7 239.4 461.7 241.6 458.6 234.6 444 240.8 432.8 241.7 433.1"/>
      <g>
        <path class="st0" d="M230.7,401c1.7-2.6,2.6-5.3,2.8-6.2v-.3h.2s-.9,3.5-3,6.6h0Z"/>
        <path class="st0" d="M236.1,417.8c-3.1-6.7-4.6-13.7-5-16,0-.5,0-.7,0-.7l-.3.2s1.6,8.8,5.3,16.9c0-.1,0-.2,0-.3h0Z"/>
        <path class="st0" d="M262.5,401.3c-1.6-3-2.4-6-2.6-7v-.3h-.2s.8,3.9,2.7,7.5h0c0-.1,0-.2,0-.2Z"/>
        <path class="st0" d="M259,416.8c1.9-6.3,2.9-12.9,3.1-14.9v-.6l.2.2s-1,8.2-3.3,15.8v-.3h0v-.2Z"/>
      </g>
    </g>
    <g>
      <rect class="st0" x="201.1" y="390.1" width="1.6" height="4.2"/>
      <path class="st0" d="M202.5,390.8c-3.3.4-6.2-1.6-6.5-4.4s2.1-5.4,5.4-5.7,6.2,1.6,6.5,4.4-2.1,5.4-5.4,5.7Z"/>
      <polygon class="st0" points="201.7 414.3 214.2 435.5 187.9 435.9 201.7 414.3"/>
      <polygon class="st0" points="201.7 415.1 214.2 393.9 188.9 394.5 201.7 415.1"/>
      <polygon class="st0" points="207.2 432.9 213.1 443.8 205.8 458.8 208.4 461.6 209.5 461.6 207.3 458.5 214.3 443.8 208.1 432.6 207.2 432.9"/>
      <polygon class="st0" points="197.3 433.1 191.4 444 198.7 459 196.1 461.7 195 461.7 197.2 458.6 190.2 444 196.4 432.8 197.3 433.1"/>
      <g>
        <path class="st0" d="M185.6,401.3c1.7-2.6,2.6-5.3,2.8-6.2v-.3h.2s-.9,3.5-3,6.6h0Z"/>
        <path class="st0" d="M190.9,418.1c-3.1-6.7-4.6-13.7-5-16,0-.5,0-.7,0-.7l-.3.2s1.6,8.8,5.3,16.9c0-.1,0-.2,0-.3h0Z"/>
        <path class="st0" d="M217.3,401.6c-1.6-3-2.4-6-2.6-7v-.3h-.2s.8,3.9,2.7,7.5h0c0-.1,0-.2,0-.2Z"/>
        <path class="st0" d="M213.8,417.1c1.9-6.3,2.9-12.9,3.1-14.9v-.6l.2.2s-1,8.2-3.3,15.8v-.3h0v-.2Z"/>
      </g>
    </g>
    <g>
      <path class="st0" d="M329.2,388c-1.8.2-3.3-.9-3.5-2.4s1.1-2.9,2.9-3.1,3.3.9,3.5,2.4-1.1,2.9-2.9,3.1Z"/>
      <rect class="st0" x="334.4" y="390.1" width="1.5" height="4.2"/>
      <path class="st0" d="M335.8,390.8c-3.3.4-6.2-1.6-6.5-4.4s2.1-5.4,5.4-5.7c3.3-.4,6.2,1.6,6.5,4.4s-2.1,5.4-5.4,5.7Z"/>
      <polygon class="st0" points="335 414.3 347.5 435.5 321.3 435.9 335 414.3"/>
      <polygon class="st0" points="335 415.1 347.5 393.9 322.2 394.5 335 415.1"/>
      <polygon class="st0" points="340.2 432.9 346.1 443.8 338.8 458.8 341.3 461.6 342.5 461.6 340.3 458.5 347.3 443.8 341.1 432.6 340.2 432.9"/>
      <polygon class="st0" points="329.6 433.1 323.7 444 331 459 328.5 461.7 327.4 461.7 329.5 458.6 322.5 444 328.7 432.8 329.6 433.1"/>
      <g>
        <path class="st0" d="M318.7,401c1.7-2.6,2.6-5.3,2.8-6.2v-.3h.2s-.9,3.5-3,6.6h0Z"/>
        <path class="st0" d="M324,417.8c-3.1-6.7-4.6-13.7-5-16,0-.5,0-.7,0-.7l-.3.2s1.6,8.8,5.3,16.9c0-.1,0-.2,0-.3h0Z"/>
        <path class="st0" d="M350.4,401.3c-1.6-3-2.4-6-2.6-7v-.3h-.2s.8,3.9,2.7,7.5h0c0-.1,0-.2,0-.2Z"/>
        <path class="st0" d="M346.9,416.8c2-6.3,2.9-12.9,3.1-14.9v-.6l.2.2s-1,8.2-3.3,15.8v-.3h0v-.2Z"/>
      </g>
    </g>
    <g>
      <rect class="st0" x="289" y="390.1" width="1.5" height="4.2"/>
      <path class="st0" d="M290.4,390.8c-3.3.4-6.2-1.6-6.5-4.4s2.1-5.4,5.4-5.7,6.2,1.6,6.5,4.4-2.1,5.4-5.4,5.7Z"/>
      <polygon class="st0" points="289.6 414.3 302.1 435.5 275.9 435.9 289.6 414.3"/>
      <polygon class="st0" points="289.6 415.1 302.1 393.9 276.8 394.5 289.6 415.1"/>
      <polygon class="st0" points="295.1 432.9 301.1 443.8 293.7 458.8 296.3 461.6 297.4 461.6 295.3 458.5 302.2 443.8 296 432.6 295.1 432.9"/>
      <polygon class="st0" points="285.2 433.1 279.3 444 286.6 459 284.1 461.7 283 461.7 285.1 458.6 278.1 444 284.3 432.8 285.2 433.1"/>
      <g>
        <path class="st0" d="M273.5,401.3c1.7-2.6,2.6-5.3,2.8-6.2v-.3h.2s-.9,3.5-3,6.6h0Z"/>
        <path class="st0" d="M278.8,418.1c-3.1-6.7-4.6-13.7-5-16,0-.5,0-.7,0-.7l-.3.2s1.6,8.8,5.3,16.9c0-.1,0-.2,0-.3h0Z"/>
        <path class="st0" d="M305.2,401.6c-1.6-3-2.4-6-2.6-7v-.3h-.2s.8,3.9,2.7,7.5h0c0-.1,0-.2,0-.2Z"/>
        <path class="st0" d="M301.8,417.1c2-6.3,2.9-12.9,3.1-14.9v-.6l.2.2s-1,8.2-3.3,15.8v-.3h0v-.2Z"/>
      </g>
    </g>
    <g>
      <path class="st0" d="M416.6,388c-1.8.2-3.3-.9-3.5-2.4s1.1-2.9,2.9-3.1,3.3.9,3.5,2.4-1.1,2.9-2.9,3.1Z"/>
      <rect class="st0" x="421.8" y="390.1" width="1.5" height="4.2"/>
      <path class="st0" d="M423.2,390.8c-3.3.4-6.2-1.6-6.5-4.4s2.1-5.4,5.4-5.7c3.3-.4,6.2,1.6,6.5,4.4s-2.1,5.4-5.4,5.7Z"/>
      <polygon class="st0" points="422.4 414.3 434.9 435.5 408.6 435.9 422.4 414.3"/>
      <polygon class="st0" points="422.4 415.1 434.9 393.9 409.6 394.5 422.4 415.1"/>
      <polygon class="st0" points="427.6 432.9 433.5 443.8 426.2 458.8 428.7 461.6 429.8 461.6 427.7 458.5 434.7 443.8 428.5 432.6 427.6 432.9"/>
      <polygon class="st0" points="417 433.1 411.1 444 418.4 459 415.9 461.7 414.8 461.7 416.9 458.6 409.9 444 416.1 432.8 417 433.1"/>
      <g>
        <path class="st0" d="M406.1,401c1.7-2.6,2.6-5.3,2.8-6.2v-.3h.2s-.9,3.5-3,6.6h0Z"/>
        <path class="st0" d="M411.4,417.8c-3.1-6.7-4.6-13.7-5-16,0-.5,0-.7,0-.7l-.3.2s1.6,8.8,5.3,16.9c0-.1,0-.2,0-.3h0Z"/>
        <path class="st0" d="M437.8,401.3c-1.6-3-2.4-6-2.6-7v-.3h-.2s.8,3.9,2.7,7.5h0c0-.1,0-.2,0-.2Z"/>
        <path class="st0" d="M434.3,416.8c2-6.3,2.9-12.9,3.1-14.9v-.6l.2.2s-1,8.2-3.3,15.8v-.3h0v-.2Z"/>
      </g>
    </g>
    <g>
      <rect class="st0" x="376.4" y="390.1" width="1.5" height="4.2"/>
      <path class="st0" d="M377.8,390.8c-3.3.4-6.2-1.6-6.5-4.4s2.1-5.4,5.4-5.7,6.2,1.6,6.5,4.4-2.1,5.4-5.4,5.7Z"/>
      <polygon class="st0" points="377 414.3 389.5 435.5 363.3 435.9 377 414.3"/>
      <polygon class="st0" points="377 415.1 389.5 393.9 364.2 394.5 377 415.1"/>
      <polygon class="st0" points="382.5 432.9 388.5 443.8 381.1 458.8 383.7 461.6 384.8 461.6 382.7 458.5 389.6 443.8 383.4 432.6 382.5 432.9"/>
      <polygon class="st0" points="372.6 433.1 366.7 444 374 459 371.5 461.7 370.4 461.7 372.5 458.6 365.5 444 371.7 432.8 372.6 433.1"/>
      <g>
        <path class="st0" d="M360.9,401.3c1.7-2.6,2.6-5.3,2.8-6.2v-.3h.2s-.9,3.5-3,6.6h0Z"/>
        <path class="st0" d="M366.2,418.1c-3.1-6.7-4.6-13.7-5-16,0-.5,0-.7,0-.7l-.3.2s1.6,8.8,5.3,16.9c0-.1,0-.2,0-.3h0Z"/>
        <path class="st0" d="M392.6,401.6c-1.6-3-2.4-6-2.6-7v-.3h-.2s.8,3.9,2.7,7.5h0c0-.1,0-.2,0-.2Z"/>
        <path class="st0" d="M389.1,417.1c2-6.3,2.9-12.9,3.1-14.9v-.6l.2.2s-1,8.2-3.3,15.8v-.3h0v-.2Z"/>
      </g>
    </g>
  </g>
  <g>
    <g>
      <path class="st0" d="M64.5,494.1c-1.8.2-3.3-.9-3.5-2.4s1.1-2.9,2.9-3.1,3.3.9,3.5,2.4-1.1,2.9-2.9,3.1Z"/>
      <rect class="st0" x="69.8" y="496.2" width="1.5" height="4.2"/>
      <path class="st0" d="M71.2,496.9c-3.3.4-6.2-1.6-6.5-4.4s2.1-5.4,5.4-5.7c3.3-.4,6.2,1.6,6.5,4.4s-2.1,5.4-5.4,5.7Z"/>
      <polygon class="st0" points="70.4 520.5 82.9 541.6 56.6 542 70.4 520.5"/>
      <polygon class="st0" points="70.4 521.2 82.9 500 57.6 500.6 70.4 521.2"/>
      <polygon class="st0" points="75.5 539 81.5 549.9 74.1 565 76.7 567.7 77.8 567.7 75.7 564.6 82.7 549.9 76.5 538.7 75.5 539"/>
      <polygon class="st0" points="65 539.2 59.1 550.1 66.4 565.1 63.8 567.8 62.7 567.8 64.9 564.7 57.9 550.1 64.1 538.9 65 539.2"/>
      <g>
        <path class="st0" d="M54,507.1c1.7-2.6,2.6-5.3,2.8-6.2v-.3h.2s-.9,3.5-3,6.6h0Z"/>
        <path class="st0" d="M59.4,524c-3.1-6.7-4.6-13.7-5-16,0-.5,0-.7,0-.7l-.3.2s1.6,8.8,5.3,16.9c0-.1,0-.2,0-.3h0Z"/>
        <path class="st0" d="M85.8,507.4c-1.6-3-2.4-6-2.6-7v-.3h-.2s.8,3.9,2.7,7.5h0c0-.1,0-.2,0-.2Z"/>
        <path class="st0" d="M82.3,523c1.9-6.3,2.9-12.9,3.1-14.9v-.6l.2.2s-1,8.2-3.3,15.8v-.3h0v-.2Z"/>
      </g>
    </g>
    <g>
      <rect class="st0" x="24.4" y="496.2" width="1.5" height="4.2"/>
      <path class="st0" d="M25.8,496.9c-3.3.4-6.2-1.6-6.5-4.4s2.1-5.4,5.4-5.7,6.2,1.6,6.5,4.4-2.1,5.4-5.4,5.7Z"/>
      <polygon class="st0" points="25 520.5 37.5 541.6 11.2 542 25 520.5"/>
      <polygon class="st0" points="25 521.2 37.5 500 12.2 500.6 25 521.2"/>
      <polygon class="st0" points="30.5 539 36.4 549.9 29.1 565 31.6 567.7 32.8 567.7 30.6 564.6 37.6 549.9 31.4 538.7 30.5 539"/>
      <polygon class="st0" points="20.6 539.2 14.6 550.1 22 565.1 19.4 567.8 18.3 567.8 20.4 564.7 13.5 550.1 19.7 538.9 20.6 539.2"/>
      <g>
        <path class="st0" d="M8.8,507.4c1.7-2.6,2.6-5.3,2.8-6.2v-.3h.2s-.9,3.5-3,6.6h0Z"/>
        <path class="st0" d="M14.2,524.2c-3.1-6.7-4.6-13.7-5-16,0-.5,0-.7,0-.7l-.3.2s1.6,8.8,5.3,16.9c0-.1,0-.2,0-.3h0Z"/>
        <path class="st0" d="M40.6,507.7c-1.6-3-2.4-6-2.6-7v-.3h-.2s.8,3.9,2.7,7.5h0c0-.1,0-.2,0-.2Z"/>
        <path class="st0" d="M37.1,523.2c2-6.3,2.9-12.9,3.1-14.9v-.6l.2.2s-1,8.2-3.3,15.8v-.3h0v-.2Z"/>
      </g>
    </g>
    <g>
      <path class="st0" d="M152.4,494.1c-1.8.2-3.3-.9-3.5-2.4s1.1-2.9,2.9-3.1,3.3.9,3.5,2.4-1.1,2.9-2.9,3.1Z"/>
      <rect class="st0" x="157.7" y="496.2" width="1.6" height="4.2"/>
      <path class="st0" d="M159.1,496.9c-3.3.4-6.2-1.6-6.5-4.4s2.1-5.4,5.4-5.7c3.3-.4,6.2,1.6,6.5,4.4s-2.1,5.4-5.4,5.7Z"/>
      <polygon class="st0" points="158.3 520.5 170.8 541.6 144.5 542 158.3 520.5"/>
      <polygon class="st0" points="158.3 521.2 170.8 500 145.5 500.6 158.3 521.2"/>
      <polygon class="st0" points="163.5 539 169.4 549.9 162.1 565 164.6 567.7 165.7 567.7 163.6 564.6 170.6 549.9 164.4 538.7 163.5 539"/>
      <polygon class="st0" points="152.9 539.2 147 550.1 154.3 565.1 151.8 567.8 150.6 567.8 152.8 564.7 145.8 550.1 152 538.9 152.9 539.2"/>
      <g>
        <path class="st0" d="M142,507.1c1.7-2.6,2.6-5.3,2.8-6.2v-.3h.2s-.9,3.5-3,6.6h0Z"/>
        <path class="st0" d="M147.3,524c-3.1-6.7-4.6-13.7-5-16,0-.5,0-.7,0-.7l-.3.2s1.6,8.8,5.3,16.9c0-.1,0-.2,0-.3h0Z"/>
        <path class="st0" d="M173.7,507.4c-1.6-3-2.4-6-2.6-7v-.3h-.2s.8,3.9,2.7,7.5h0c0-.1,0-.2,0-.2Z"/>
        <path class="st0" d="M170.2,523c1.9-6.3,2.9-12.9,3.1-14.9v-.6l.2.2s-1,8.2-3.3,15.8v-.3h0v-.2Z"/>
      </g>
    </g>
    <g>
      <rect class="st0" x="112.3" y="496.2" width="1.6" height="4.2"/>
      <path class="st0" d="M113.7,496.9c-3.3.4-6.2-1.6-6.5-4.4s2.1-5.4,5.4-5.7,6.2,1.6,6.5,4.4-2.1,5.4-5.4,5.7Z"/>
      <polygon class="st0" points="112.9 520.5 125.4 541.6 99.2 542 112.9 520.5"/>
      <polygon class="st0" points="112.9 521.2 125.4 500 100.1 500.6 112.9 521.2"/>
      <polygon class="st0" points="118.4 539 124.3 549.9 117 565 119.6 567.7 120.7 567.7 118.5 564.6 125.5 549.9 119.3 538.7 118.4 539"/>
      <polygon class="st0" points="108.5 539.2 102.6 550.1 109.9 565.1 107.3 567.8 106.2 567.8 108.4 564.7 101.4 550.1 107.6 538.9 108.5 539.2"/>
      <g>
        <path class="st0" d="M96.8,507.4c1.7-2.6,2.6-5.3,2.8-6.2v-.3h.2s-.9,3.5-3,6.6h0Z"/>
        <path class="st0" d="M102.1,524.2c-3.1-6.7-4.6-13.7-5-16,0-.5,0-.7,0-.7l-.3.2s1.6,8.8,5.3,16.9c0-.1,0-.2,0-.3h0Z"/>
        <path class="st0" d="M128.5,507.7c-1.6-3-2.4-6-2.6-7v-.3h-.2s.8,3.9,2.7,7.5h0c0-.1,0-.2,0-.2Z"/>
        <path class="st0" d="M125,523.2c1.9-6.3,2.9-12.9,3.1-14.9v-.6l.2.2s-1,8.2-3.3,15.8v-.3h0v-.2Z"/>
      </g>
    </g>
    <g>
      <path class="st0" d="M241.2,494.1c-1.8.2-3.3-.9-3.5-2.4s1.1-2.9,2.9-3.1,3.3.9,3.5,2.4-1.1,2.9-2.9,3.1Z"/>
      <rect class="st0" x="246.5" y="496.2" width="1.6" height="4.2"/>
      <path class="st0" d="M247.9,496.9c-3.3.4-6.2-1.6-6.5-4.4s2.1-5.4,5.4-5.7c3.3-.4,6.2,1.6,6.5,4.4s-2.1,5.4-5.4,5.7Z"/>
      <polygon class="st0" points="247.1 520.5 259.6 541.6 233.3 542 247.1 520.5"/>
      <polygon class="st0" points="247.1 521.2 259.6 500 234.3 500.6 247.1 521.2"/>
      <polygon class="st0" points="252.3 539 258.2 549.9 250.8 565 253.4 567.7 254.5 567.7 252.4 564.6 259.4 549.9 253.2 538.7 252.3 539"/>
      <polygon class="st0" points="241.7 539.2 235.8 550.1 243.1 565.1 240.5 567.8 239.4 567.8 241.6 564.7 234.6 550.1 240.8 538.9 241.7 539.2"/>
      <g>
        <path class="st0" d="M230.7,507.1c1.7-2.6,2.6-5.3,2.8-6.2v-.3h.2s-.9,3.5-3,6.6h0Z"/>
        <path class="st0" d="M236.1,524c-3.1-6.7-4.6-13.7-5-16,0-.5,0-.7,0-.7l-.3.2s1.6,8.8,5.3,16.9c0-.1,0-.2,0-.3h0Z"/>
        <path class="st0" d="M262.5,507.4c-1.6-3-2.4-6-2.6-7v-.3h-.2s.8,3.9,2.7,7.5h0c0-.1,0-.2,0-.2Z"/>
        <path class="st0" d="M259,523c1.9-6.3,2.9-12.9,3.1-14.9v-.6l.2.2s-1,8.2-3.3,15.8v-.3h0v-.2Z"/>
      </g>
    </g>
    <g>
      <rect class="st0" x="201.1" y="496.2" width="1.6" height="4.2"/>
      <path class="st0" d="M202.5,496.9c-3.3.4-6.2-1.6-6.5-4.4s2.1-5.4,5.4-5.7,6.2,1.6,6.5,4.4-2.1,5.4-5.4,5.7Z"/>
      <polygon class="st0" points="201.7 520.5 214.2 541.6 187.9 542 201.7 520.5"/>
      <polygon class="st0" points="201.7 521.2 214.2 500 188.9 500.6 201.7 521.2"/>
      <polygon class="st0" points="207.2 539 213.1 549.9 205.8 565 208.4 567.7 209.5 567.7 207.3 564.6 214.3 549.9 208.1 538.7 207.2 539"/>
      <polygon class="st0" points="197.3 539.2 191.4 550.1 198.7 565.1 196.1 567.8 195 567.8 197.2 564.7 190.2 550.1 196.4 538.9 197.3 539.2"/>
      <g>
        <path class="st0" d="M185.6,507.4c1.7-2.6,2.6-5.3,2.8-6.2v-.3h.2s-.9,3.5-3,6.6h0Z"/>
        <path class="st0" d="M190.9,524.2c-3.1-6.7-4.6-13.7-5-16,0-.5,0-.7,0-.7l-.3.2s1.6,8.8,5.3,16.9c0-.1,0-.2,0-.3h0Z"/>
        <path class="st0" d="M217.3,507.7c-1.6-3-2.4-6-2.6-7v-.3h-.2s.8,3.9,2.7,7.5h0c0-.1,0-.2,0-.2Z"/>
        <path class="st0" d="M213.8,523.2c1.9-6.3,2.9-12.9,3.1-14.9v-.6l.2.2s-1,8.2-3.3,15.8v-.3h0v-.2Z"/>
      </g>
    </g>
    <g>
      <path class="st0" d="M329.2,494.1c-1.8.2-3.3-.9-3.5-2.4s1.1-2.9,2.9-3.1,3.3.9,3.5,2.4-1.1,2.9-2.9,3.1Z"/>
      <rect class="st0" x="334.4" y="496.2" width="1.5" height="4.2"/>
      <path class="st0" d="M335.8,496.9c-3.3.4-6.2-1.6-6.5-4.4s2.1-5.4,5.4-5.7c3.3-.4,6.2,1.6,6.5,4.4s-2.1,5.4-5.4,5.7Z"/>
      <polygon class="st0" points="335 520.5 347.5 541.6 321.3 542 335 520.5"/>
      <polygon class="st0" points="335 521.2 347.5 500 322.2 500.6 335 521.2"/>
      <polygon class="st0" points="340.2 539 346.1 549.9 338.8 565 341.3 567.7 342.5 567.7 340.3 564.6 347.3 549.9 341.1 538.7 340.2 539"/>
      <polygon class="st0" points="329.6 539.2 323.7 550.1 331 565.1 328.5 567.8 327.4 567.8 329.5 564.7 322.5 550.1 328.7 538.9 329.6 539.2"/>
      <g>
        <path class="st0" d="M318.7,507.1c1.7-2.6,2.6-5.3,2.8-6.2v-.3h.2s-.9,3.5-3,6.6h0Z"/>
        <path class="st0" d="M324,524c-3.1-6.7-4.6-13.7-5-16,0-.5,0-.7,0-.7l-.3.2s1.6,8.8,5.3,16.9c0-.1,0-.2,0-.3h0Z"/>
        <path class="st0" d="M350.4,507.4c-1.6-3-2.4-6-2.6-7v-.3h-.2s.8,3.9,2.7,7.5h0c0-.1,0-.2,0-.2Z"/>
        <path class="st0" d="M346.9,523c2-6.3,2.9-12.9,3.1-14.9v-.6l.2.2s-1,8.2-3.3,15.8v-.3h0v-.2Z"/>
      </g>
    </g>
    <g>
      <rect class="st0" x="289" y="496.2" width="1.5" height="4.2"/>
      <path class="st0" d="M290.4,496.9c-3.3.4-6.2-1.6-6.5-4.4s2.1-5.4,5.4-5.7,6.2,1.6,6.5,4.4-2.1,5.4-5.4,5.7Z"/>
      <polygon class="st0" points="289.6 520.5 302.1 541.6 275.9 542 289.6 520.5"/>
      <polygon class="st0" points="289.6 521.2 302.1 500 276.8 500.6 289.6 521.2"/>
      <polygon class="st0" points="295.1 539 301.1 549.9 293.7 565 296.3 567.7 297.4 567.7 295.3 564.6 302.2 549.9 296 538.7 295.1 539"/>
      <polygon class="st0" points="285.2 539.2 279.3 550.1 286.6 565.1 284.1 567.8 283 567.8 285.1 564.7 278.1 550.1 284.3 538.9 285.2 539.2"/>
      <g>
        <path class="st0" d="M273.5,507.4c1.7-2.6,2.6-5.3,2.8-6.2v-.3h.2s-.9,3.5-3,6.6h0Z"/>
        <path class="st0" d="M278.8,524.2c-3.1-6.7-4.6-13.7-5-16,0-.5,0-.7,0-.7l-.3.2s1.6,8.8,5.3,16.9c0-.1,0-.2,0-.3h0Z"/>
        <path class="st0" d="M305.2,507.7c-1.6-3-2.4-6-2.6-7v-.3h-.2s.8,3.9,2.7,7.5h0c0-.1,0-.2,0-.2Z"/>
        <path class="st0" d="M301.8,523.2c2-6.3,2.9-12.9,3.1-14.9v-.6l.2.2s-1,8.2-3.3,15.8v-.3h0v-.2Z"/>
      </g>
    </g>
    <g>
      <path class="st0" d="M416.6,493.7c-1.8.2-3.3-.9-3.5-2.4s1.1-2.9,2.9-3.1,3.3.9,3.5,2.4-1.1,2.9-2.9,3.1Z"/>
      <rect class="st0" x="421.8" y="495.7" width="1.5" height="4.2"/>
      <path class="st0" d="M423.2,496.5c-3.3.4-6.2-1.6-6.5-4.4s2.1-5.4,5.4-5.7c3.3-.4,6.2,1.6,6.5,4.4s-2.1,5.4-5.4,5.7Z"/>
      <polygon class="st0" points="422.4 520 434.9 541.2 408.6 541.6 422.4 520"/>
      <polygon class="st0" points="422.4 520.8 434.9 499.6 409.6 500.2 422.4 520.8"/>
      <polygon class="st0" points="427.6 538.6 433.5 549.5 426.2 564.5 428.7 567.3 429.8 567.3 427.7 564.1 434.7 549.5 428.5 538.3 427.6 538.6"/>
      <polygon class="st0" points="417 538.7 411.1 549.7 418.4 564.7 415.9 567.4 414.8 567.4 416.9 564.3 409.9 549.7 416.1 538.5 417 538.7"/>
      <g>
        <path class="st0" d="M406.1,506.7c1.7-2.6,2.6-5.3,2.8-6.2v-.3h.2s-.9,3.5-3,6.6h0Z"/>
        <path class="st0" d="M411.4,523.5c-3.1-6.7-4.6-13.7-5-16,0-.5,0-.7,0-.7l-.3.2s1.6,8.8,5.3,16.9c0-.1,0-.2,0-.3h0Z"/>
        <path class="st0" d="M437.8,507c-1.6-3-2.4-6-2.6-7v-.3h-.2s.8,3.9,2.7,7.5h0c0-.1,0-.2,0-.2Z"/>
        <path class="st0" d="M434.3,522.5c2-6.3,2.9-12.9,3.1-14.9v-.6l.2.2s-1,8.2-3.3,15.8v-.3h0v-.2Z"/>
      </g>
    </g>
    <g>
      <rect class="st0" x="376.4" y="496.2" width="1.5" height="4.2"/>
      <path class="st0" d="M377.8,496.9c-3.3.4-6.2-1.6-6.5-4.4s2.1-5.4,5.4-5.7,6.2,1.6,6.5,4.4-2.1,5.4-5.4,5.7Z"/>
      <polygon class="st0" points="377 520.5 389.5 541.6 363.3 542 377 520.5"/>
      <polygon class="st0" points="377 521.2 389.5 500 364.2 500.6 377 521.2"/>
      <polygon class="st0" points="382.5 539 388.5 549.9 381.1 565 383.7 567.7 384.8 567.7 382.7 564.6 389.6 549.9 383.4 538.7 382.5 539"/>
      <polygon class="st0" points="372.6 539.2 366.7 550.1 374 565.1 371.5 567.8 370.4 567.8 372.5 564.7 365.5 550.1 371.7 538.9 372.6 539.2"/>
      <g>
        <path class="st0" d="M360.9,507.4c1.7-2.6,2.6-5.3,2.8-6.2v-.3h.2s-.9,3.5-3,6.6h0Z"/>
        <path class="st0" d="M366.2,524.2c-3.1-6.7-4.6-13.7-5-16,0-.5,0-.7,0-.7l-.3.2s1.6,8.8,5.3,16.9c0-.1,0-.2,0-.3h0Z"/>
        <path class="st0" d="M392.6,507.7c-1.6-3-2.4-6-2.6-7v-.3h-.2s.8,3.9,2.7,7.5h0c0-.1,0-.2,0-.2Z"/>
        <path class="st0" d="M389.1,523.2c2-6.3,2.9-12.9,3.1-14.9v-.6l.2.2s-1,8.2-3.3,15.8v-.3h0v-.2Z"/>
      </g>
    </g>
  </g>
  <g>
    <path class="st0" d="M503.8,494c-1.8.2-3.3-.9-3.5-2.4s1.1-2.9,2.9-3.1,3.3.9,3.5,2.4-1.1,2.9-2.9,3.1Z"/>
    <rect class="st0" x="509" y="496" width="1.5" height="4.2"/>
    <path class="st0" d="M510.4,496.7c-3.3.4-6.2-1.6-6.5-4.4s2.1-5.4,5.4-5.7c3.3-.4,6.2,1.6,6.5,4.4s-2.1,5.4-5.4,5.7Z"/>
    <polygon class="st0" points="509.6 520.2 522.1 541.4 495.9 541.8 509.6 520.2"/>
    <polygon class="st0" points="509.6 521 522.1 499.9 496.9 500.5 509.6 521"/>
    <polygon class="st0" points="514.8 538.8 520.7 549.7 513.4 564.7 516 567.4 517.1 567.4 514.9 564.3 521.9 549.7 515.7 538.5 514.8 538.8"/>
    <polygon class="st0" points="504.3 538.9 498.3 549.8 505.7 564.8 503.1 567.6 502 567.6 504.1 564.4 497.2 549.8 503.4 538.7 504.3 538.9"/>
    <g>
      <path class="st0" d="M493.3,507c1.7-2.6,2.6-5.3,2.8-6.2v-.3h.2s-.9,3.5-3,6.6h0Z"/>
      <path class="st0" d="M498.6,523.7c-3.1-6.7-4.6-13.7-5-15.9,0-.5,0-.7,0-.7l-.3.2s1.6,8.8,5.3,16.8c0-.1,0-.2,0-.3h0Z"/>
      <path class="st0" d="M525,507.2c-1.6-3-2.4-6-2.5-7v-.3h-.2s.8,3.9,2.7,7.5h0c0-.1,0-.2,0-.2Z"/>
      <path class="st0" d="M521.5,522.8c2-6.3,2.9-12.8,3.1-14.9v-.6l.2.2s-1,8.2-3.3,15.7v-.3h0Z"/>
    </g>
  </g>
  <g class="st1">
    <g class="st1">
      <text class="st2" transform="translate(539 526.7)"><tspan x="0" y="0">=</tspan></text>
    </g>
  </g>
  <g class="st1">
    <g class="st1">
      <text class="st3" transform="translate(562.1 527.9)"><tspan x="0" y="0">1 Million People</tspan></text>
    </g>
  </g>
  <g class="st1">
    <g class="st1">
      <text class="st4" transform="translate(10.9 50.6)"><tspan x="0" y="0">Number of people attended: 50 Million</tspan></text>
    </g>
  </g>
</svg>