<?xml version="1.0" encoding="UTF-8"?>
<svg id="Layer_1" data-name="Layer 1" xmlns="http://www.w3.org/2000/svg" viewBox="0 0 755.51 792">
  <defs>
    <style>
      .cls-1, .cls-2, .cls-3 {
        font-family: HelveticaNeue-Bold, 'Helvetica Neue';
        font-size: 18.41px;
        font-weight: 700;
      }

      .cls-1, .cls-4 {
        fill: #c02026;
      }

      .cls-5 {
        font-size: 14px;
      }

      .cls-5, .cls-6, .cls-7 {
        fill: #231f20;
        font-family: HelveticaNeue, 'Helvetica Neue';
      }

      .cls-6, .cls-7 {
        font-size: 14.73px;
      }

      .cls-8 {
        fill: none;
        stroke: #231f20;
        stroke-miterlimit: 10;
        stroke-width: .5px;
      }

      .cls-2, .cls-9 {
        fill: #e2a85d;
      }

      .cls-10, .cls-3 {
        fill: #e86e50;
      }

      .cls-7 {
        letter-spacing: .02em;
      }

      .cls-11 {
        letter-spacing: -.06em;
      }
    </style>
  </defs>
  <text class="cls-2" transform="translate(86.35 47.8)"><tspan x="0" y="0">PH </tspan><tspan class="cls-11" x="31.04" y="0">V</tspan><tspan x="41.63" y="0">alues</tspan></text>
  <g>
    <rect class="cls-9" x="129.97" y="135.38" width="31.5" height="31.8"/>
    <rect class="cls-9" x="95.46" y="135.38" width="31.5" height="31.8"/>
    <rect class="cls-9" x="198.73" y="135.38" width="31.5" height="31.8"/>
    <rect class="cls-9" x="164.23" y="135.38" width="31.5" height="31.8"/>
    <rect class="cls-9" x="267.9" y="135.38" width="31.5" height="31.8"/>
    <rect class="cls-9" x="233.39" y="135.38" width="31.5" height="31.8"/>
    <rect class="cls-9" x="336.67" y="135.38" width="31.5" height="31.8"/>
    <rect class="cls-9" x="302.16" y="135.38" width="31.5" height="31.8"/>
    <rect class="cls-9" x="405.65" y="135.38" width="31.5" height="31.8"/>
    <rect class="cls-9" x="371.14" y="135.38" width="31.5" height="31.8"/>
    <rect class="cls-9" x="474.41" y="135.38" width="31.5" height="31.8"/>
    <rect class="cls-9" x="439.9" y="135.38" width="31.5" height="31.8"/>
    <rect class="cls-9" x="543.58" y="135.38" width="31.5" height="31.8"/>
    <rect class="cls-9" x="509.07" y="135.38" width="31.5" height="31.8"/>
  </g>
  <text class="cls-5" transform="translate(105.4 153.43)"><tspan x="0" y="0">1</tspan></text>
  <text class="cls-5" transform="translate(139.78 153.43)"><tspan x="0" y="0">2</tspan></text>
  <text class="cls-5" transform="translate(174.36 153.43)"><tspan x="0" y="0">3</tspan></text>
  <text class="cls-5" transform="translate(207.89 153.43)"><tspan x="0" y="0">4</tspan></text>
  <text class="cls-5" transform="translate(243.25 153.43)"><tspan x="0" y="0">5</tspan></text>
  <text class="cls-5" transform="translate(276.78 153.43)"><tspan x="0" y="0">6</tspan></text>
  <text class="cls-5" transform="translate(312.63 153.43)"><tspan x="0" y="0">7</tspan></text>
  <text class="cls-5" transform="translate(347.01 153.43)"><tspan x="0" y="0">8</tspan></text>
  <text class="cls-5" transform="translate(380.52 153.43)"><tspan x="0" y="0">9</tspan></text>
  <text class="cls-5" transform="translate(408.58 153.43)"><tspan x="0" y="0">10</tspan></text>
  <text class="cls-5" transform="translate(443.99 153.43)"><tspan x="0" y="0">11</tspan></text>
  <text class="cls-5" transform="translate(478.38 153.43)"><tspan x="0" y="0">12</tspan></text>
  <text class="cls-5" transform="translate(512.52 153.43)"><tspan x="0" y="0">13</tspan></text>
  <text class="cls-5" transform="translate(546.9 153.43)"><tspan x="0" y="0">14</tspan></text>
  <text class="cls-6" transform="translate(281.21 83.63)"><tspan x="0" y="0">Optimal Range for Drinking</tspan></text>
  <line class="cls-8" x1="281.93" y1="90.84" x2="351.36" y2="90.84"/>
  <line class="cls-8" x1="282.75" y1="90.78" x2="282.75" y2="131.08"/>
  <line class="cls-8" x1="351.47" y1="90.58" x2="351.47" y2="130.87"/>
  <text class="cls-6" transform="translate(317.32 235.38)"><tspan x="0" y="0">Optimal Range for Bathing</tspan></text>
  <line class="cls-8" x1="318.91" y1="212.99" x2="358.7" y2="212.99"/>
  <line class="cls-8" x1="318.8" y1="173.48" x2="318.8" y2="213.78"/>
  <line class="cls-8" x1="357.82" y1="173.27" x2="357.82" y2="213.57"/>
  <text class="cls-3" transform="translate(86.35 301.53)"><tspan x="0" y="0">BOD - Biochemical Oxygen Demand</tspan></text>
  <text class="cls-5" transform="translate(116.27 367.86)"><tspan x="0" y="0">Clean and Safe</tspan></text>
  <text class="cls-5" transform="translate(176.57 494.47)"><tspan x="0" y="0">Moderatley safe</tspan></text>
  <text class="cls-5" transform="translate(302.63 494.47)"><tspan x="0" y="0">little polluted</tspan></text>
  <text class="cls-5" transform="translate(416.43 494.47)"><tspan x="0" y="0">heavily polluted</tspan></text>
  <text class="cls-1" transform="translate(86.35 582.71)"><tspan x="0" y="0">Fecal Coliform</tspan></text>
  <rect class="cls-4" x="177.93" y="668.38" width="31.5" height="31.8"/>
  <rect class="cls-4" x="143.42" y="668.38" width="31.5" height="31.8"/>
  <rect class="cls-4" x="246.7" y="668.38" width="31.5" height="31.8"/>
  <rect class="cls-4" x="212.19" y="668.38" width="31.5" height="31.8"/>
  <rect class="cls-4" x="315.87" y="668.38" width="31.5" height="31.8"/>
  <rect class="cls-4" x="281.36" y="668.38" width="31.5" height="31.8"/>
  <rect class="cls-4" x="350.12" y="668.38" width="31.5" height="31.8"/>
  <rect class="cls-4" x="657.8" y="667.43" width="31.5" height="31.8"/>
  <rect class="cls-4" x="623.29" y="667.43" width="31.5" height="31.8"/>
  <text class="cls-6" transform="translate(119.29 633.88)"><tspan x="0" y="0">Optimal Range for Drinking</tspan></text>
  <text class="cls-5" transform="translate(154.02 687.86)"><tspan x="0" y="0">1</tspan></text>
  <text class="cls-5" transform="translate(188.4 687.86)"><tspan x="0" y="0">2</tspan></text>
  <text class="cls-5" transform="translate(222.98 687.86)"><tspan x="0" y="0">3</tspan></text>
  <text class="cls-5" transform="translate(256.52 687.86)"><tspan x="0" y="0">4</tspan></text>
  <text class="cls-5" transform="translate(291.87 687.86)"><tspan x="0" y="0">5</tspan></text>
  <text class="cls-5" transform="translate(325.41 687.86)"><tspan x="0" y="0">6</tspan></text>
  <text class="cls-5" transform="translate(361.26 687.86)"><tspan x="0" y="0">7</tspan></text>
  <text class="cls-5" transform="translate(627.4 686.91)"><tspan x="0" y="0">199</tspan></text>
  <text class="cls-5" transform="translate(661.78 686.91)"><tspan x="0" y="0">200</tspan></text>
  <line class="cls-8" x1="123.24" y1="639.32" x2="123.24" y2="667.3"/>
  <rect class="cls-4" x="108.35" y="668.62" width="31.5" height="31.8"/>
  <text class="cls-5" transform="translate(118.95 687.1)"><tspan x="0" y="0">0</tspan></text>
  <text class="cls-7" transform="translate(389.88 686.83)"><tspan x="0" y="0">..................................................</tspan></text>
  <rect class="cls-10" x="139" y="402.74" width="31.5" height="31.8"/>
  <rect class="cls-10" x="104.49" y="402.74" width="31.5" height="31.8"/>
  <rect class="cls-10" x="207.76" y="402.74" width="31.5" height="31.8"/>
  <rect class="cls-10" x="173.25" y="402.74" width="31.5" height="31.8"/>
  <rect class="cls-10" x="276.93" y="402.74" width="31.5" height="31.8"/>
  <rect class="cls-10" x="242.42" y="402.74" width="31.5" height="31.8"/>
  <rect class="cls-10" x="345.7" y="402.74" width="31.5" height="31.8"/>
  <rect class="cls-10" x="311.19" y="402.74" width="31.5" height="31.8"/>
  <rect class="cls-10" x="414.68" y="402.74" width="31.5" height="31.8"/>
  <rect class="cls-10" x="380.17" y="402.74" width="31.5" height="31.8"/>
  <text class="cls-5" transform="translate(114.42 420.79)"><tspan x="0" y="0">1</tspan></text>
  <text class="cls-5" transform="translate(148.81 420.79)"><tspan x="0" y="0">2</tspan></text>
  <text class="cls-5" transform="translate(183.38 420.79)"><tspan x="0" y="0">3</tspan></text>
  <text class="cls-5" transform="translate(216.92 420.79)"><tspan x="0" y="0">4</tspan></text>
  <text class="cls-5" transform="translate(252.28 420.79)"><tspan x="0" y="0">5</tspan></text>
  <text class="cls-5" transform="translate(285.81 420.79)"><tspan x="0" y="0">6</tspan></text>
  <text class="cls-5" transform="translate(321.66 420.79)"><tspan x="0" y="0">7</tspan></text>
  <text class="cls-5" transform="translate(356.04 420.79)"><tspan x="0" y="0">8</tspan></text>
  <text class="cls-5" transform="translate(389.55 420.79)"><tspan x="0" y="0">9</tspan></text>
  <text class="cls-5" transform="translate(417.6 420.79)"><tspan x="0" y="0">10+</tspan></text>
  <text class="cls-7" transform="translate(452.38 418.08)"><tspan x="0" y="0">..................................................</tspan></text>
  <g>
    <line class="cls-8" x1="675.01" y1="705.84" x2="675.01" y2="746.13"/>
    <g>
      <line class="cls-8" x1="123.32" y1="745.55" x2="675.89" y2="745.55"/>
      <line class="cls-8" x1="123.63" y1="705.71" x2="123.63" y2="746.01"/>
    </g>
  </g>
  <text class="cls-6" transform="translate(320.64 741.19)"><tspan x="0" y="0">Optimal Range for Bathing</tspan></text>
  <line class="cls-8" x1="119.1" y1="373.96" x2="119.1" y2="399.36"/>
  <line class="cls-8" x1="153.55" y1="373.82" x2="153.55" y2="399.22"/>
  <line class="cls-8" x1="119.42" y1="374.22" x2="154.01" y2="374.22"/>
  <g>
    <g>
      <line class="cls-8" x1="188.26" y1="437.97" x2="188.26" y2="478.26"/>
      <line class="cls-8" x1="258.06" y1="437.54" x2="258.06" y2="477.83"/>
    </g>
    <line class="cls-8" x1="187.88" y1="477.77" x2="258.14" y2="477.77"/>
  </g>
  <g>
    <g>
      <line class="cls-8" x1="291.68" y1="440.05" x2="291.68" y2="480.34"/>
      <line class="cls-8" x1="395.81" y1="439.62" x2="395.81" y2="479.91"/>
    </g>
    <line class="cls-8" x1="291.12" y1="479.85" x2="395.91" y2="479.85"/>
  </g>
  <line class="cls-8" x1="429.9" y1="440.37" x2="429.9" y2="480.66"/>
</svg>