<?xml version="1.0" encoding="UTF-8"?>
<svg id="Layer_1" xmlns="http://www.w3.org/2000/svg" version="1.1" viewBox="0 0 792 612">
  <!-- Generator: Adobe Illustrator 29.0.1, SVG Export Plug-In . SVG Version: 2.1.0 Build 192)  -->
  <defs>
    <style>
      .st0 {
        fill: #9d0208;
        stroke: #9d0208;
      }

      .st0, .st1 {
        stroke-miterlimit: 10;
      }

      .st1 {
        fill: #e5e5e5;
        stroke: #e5e5e5;
      }

      .st2 {
        font-family: HelveticaNeue-Bold, 'Helvetica Neue';
      }

      .st2, .st3 {
        font-size: 24px;
        font-weight: 700;
      }

      .st4 {
        font-family: HelveticaNeue, 'Helvetica Neue';
        font-size: 21px;
      }

      .st3 {
        font-family: MyriadPro-Bold, 'Myriad Pro';
      }
    </style>
  </defs>
  <g>
    <g>
      <path class="st0" d="M77.3,75.3c-1.8.2-3.3-.9-3.5-2.4-.2-1.5,1.1-2.9,2.9-3.1s3.3.9,3.5,2.4-1.1,2.9-2.9,3.1Z"/>
      <rect class="st0" x="82.5" y="77.3" width="1.5" height="4.2"/>
      <path class="st0" d="M84,78c-3.3.4-6.2-1.6-6.5-4.4s2.1-5.4,5.4-5.7c3.3-.4,6.2,1.6,6.5,4.4s-2.1,5.4-5.4,5.7Z"/>
      <polygon class="st0" points="83.2 101.6 95.7 122.8 69.4 123.1 83.2 101.6"/>
      <polygon class="st0" points="83.2 102.4 95.7 81.2 70.4 81.8 83.2 102.4"/>
      <polygon class="st0" points="88.3 120.2 94.3 131.1 86.9 146.1 89.5 148.8 90.6 148.8 88.5 145.7 95.4 131.1 89.2 119.9 88.3 120.2"/>
      <polygon class="st0" points="77.8 120.3 71.8 131.2 79.2 146.3 76.6 149 75.5 149 77.6 145.9 70.7 131.2 76.9 120.1 77.8 120.3"/>
      <g>
        <path class="st0" d="M66.8,88.3c1.7-2.6,2.6-5.3,2.8-6.2,0-.2,0-.3,0-.3h.2c0,0-.9,3.5-3,6.6,0,0,0,0,0-.1h0Z"/>
        <path class="st0" d="M72.1,105.1c-3.1-6.7-4.6-13.7-5-16,0-.5-.1-.7-.1-.7l-.3.2s1.6,8.8,5.3,16.8c0-.1,0-.2.1-.3h0Z"/>
        <path class="st0" d="M98.6,88.6c-1.6-3-2.4-6-2.6-7,0-.2,0-.3,0-.3h-.2c0,0,.8,3.9,2.7,7.5,0,0,0,0,0-.1h0Z"/>
        <path class="st0" d="M95.1,104.1c1.9-6.3,2.9-12.9,3.1-14.9,0-.4,0-.7,0-.7l.2.2s-1,8.2-3.3,15.8c0,0,0-.2,0-.3h0s0,0,0,0Z"/>
      </g>
    </g>
    <g>
      <rect class="st0" x="37.2" y="77.3" width="1.5" height="4.2"/>
      <path class="st0" d="M38.6,78c-3.3.4-6.2-1.6-6.5-4.4s2.1-5.4,5.4-5.7,6.2,1.6,6.5,4.4-2.1,5.4-5.4,5.7Z"/>
      <polygon class="st0" points="37.8 101.6 50.3 122.8 24 123.1 37.8 101.6"/>
      <polygon class="st0" points="37.8 102.4 50.3 81.2 25 81.8 37.8 102.4"/>
      <polygon class="st0" points="43.3 120.2 49.2 131.1 41.9 146.1 44.4 148.8 45.5 148.8 43.4 145.7 50.4 131.1 44.2 119.9 43.3 120.2"/>
      <polygon class="st0" points="33.4 120.3 27.4 131.2 34.8 146.3 32.2 149 31.1 149 33.2 145.9 26.3 131.2 32.5 120.1 33.4 120.3"/>
      <g>
        <path class="st0" d="M21.6,88.6c1.7-2.6,2.6-5.3,2.8-6.2,0-.2,0-.3,0-.3h.2c0,0-.9,3.5-3,6.6,0,0,0,0,0-.1h0Z"/>
        <path class="st0" d="M27,105.4c-3.1-6.7-4.6-13.7-5-16,0-.5-.1-.7-.1-.7l-.3.2s1.6,8.8,5.3,16.8c0-.1,0-.2.1-.3h0Z"/>
        <path class="st0" d="M53.4,88.8c-1.6-3-2.4-6-2.6-7,0-.2,0-.3,0-.3h-.2c0,0,.8,3.9,2.7,7.5,0,0,0,0,0-.1h0Z"/>
        <path class="st0" d="M49.9,104.4c1.9-6.3,2.9-12.9,3.1-14.9,0-.4,0-.7,0-.7l.2.2s-1,8.2-3.3,15.8c0,0,0-.2,0-.3h0s0,0,0,0Z"/>
      </g>
    </g>
    <g>
      <path class="st0" d="M165.2,75.3c-1.8.2-3.3-.9-3.5-2.4-.2-1.5,1.1-2.9,2.9-3.1s3.3.9,3.5,2.4-1.1,2.9-2.9,3.1Z"/>
      <rect class="st0" x="170.5" y="77.3" width="1.5" height="4.2"/>
      <path class="st0" d="M171.9,78c-3.3.4-6.2-1.6-6.5-4.4s2.1-5.4,5.4-5.7c3.3-.4,6.2,1.6,6.5,4.4s-2.1,5.4-5.4,5.7Z"/>
      <polygon class="st0" points="171.1 101.6 183.6 122.8 157.3 123.1 171.1 101.6"/>
      <polygon class="st0" points="171.1 102.4 183.6 81.2 158.3 81.8 171.1 102.4"/>
      <polygon class="st0" points="176.3 120.2 182.2 131.1 174.9 146.1 177.4 148.8 178.5 148.8 176.4 145.7 183.4 131.1 177.2 119.9 176.3 120.2"/>
      <polygon class="st0" points="165.7 120.3 159.8 131.2 167.1 146.3 164.6 149 163.4 149 165.6 145.9 158.6 131.2 164.8 120.1 165.7 120.3"/>
      <g>
        <path class="st0" d="M154.7,88.3c1.7-2.6,2.6-5.3,2.8-6.2,0-.2,0-.3,0-.3h.2c0,0-.9,3.5-3,6.6,0,0,0,0,0-.1h0Z"/>
        <path class="st0" d="M160.1,105.1c-3.1-6.7-4.6-13.7-5-16,0-.5-.1-.7-.1-.7l-.3.2s1.6,8.8,5.3,16.8c0-.1,0-.2.1-.3h0Z"/>
        <path class="st0" d="M186.5,88.6c-1.6-3-2.4-6-2.6-7,0-.2,0-.3,0-.3h-.2c0,0,.8,3.9,2.7,7.5,0,0,0,0,0-.1h0Z"/>
        <path class="st0" d="M183,104.1c1.9-6.3,2.9-12.9,3.1-14.9,0-.4,0-.7,0-.7l.2.2s-1,8.2-3.3,15.8c0,0,0-.2,0-.3h0s0,0,0,0Z"/>
      </g>
    </g>
    <g>
      <rect class="st0" x="125.1" y="77.3" width="1.5" height="4.2"/>
      <path class="st0" d="M126.5,78c-3.3.4-6.2-1.6-6.5-4.4s2.1-5.4,5.4-5.7,6.2,1.6,6.5,4.4-2.1,5.4-5.4,5.7Z"/>
      <polygon class="st0" points="125.7 101.6 138.2 122.8 112 123.1 125.7 101.6"/>
      <polygon class="st0" points="125.7 102.4 138.2 81.2 112.9 81.8 125.7 102.4"/>
      <polygon class="st0" points="131.2 120.2 137.1 131.1 129.8 146.1 132.4 148.8 133.5 148.8 131.3 145.7 138.3 131.1 132.1 119.9 131.2 120.2"/>
      <polygon class="st0" points="121.3 120.3 115.4 131.2 122.7 146.3 120.1 149 119 149 121.2 145.9 114.2 131.2 120.4 120.1 121.3 120.3"/>
      <g>
        <path class="st0" d="M109.6,88.6c1.7-2.6,2.6-5.3,2.8-6.2,0-.2,0-.3,0-.3h.2c0,0-.9,3.5-3,6.6,0,0,0,0,0-.1h0Z"/>
        <path class="st0" d="M114.9,105.4c-3.1-6.7-4.6-13.7-5-16,0-.5-.1-.7-.1-.7l-.3.2s1.6,8.8,5.3,16.8c0-.1,0-.2.1-.3h0Z"/>
        <path class="st0" d="M141.3,88.8c-1.6-3-2.4-6-2.6-7,0-.2,0-.3,0-.3h-.2c0,0,.8,3.9,2.7,7.5,0,0,0,0,0-.1h0Z"/>
        <path class="st0" d="M137.8,104.4c1.9-6.3,2.9-12.9,3.1-14.9,0-.4,0-.7,0-.7l.2.2s-1,8.2-3.3,15.8c0,0,0-.2,0-.3h0s0,0,0,0Z"/>
      </g>
    </g>
    <g>
      <path class="st0" d="M254,75.3c-1.8.2-3.3-.9-3.5-2.4-.2-1.5,1.1-2.9,2.9-3.1s3.3.9,3.5,2.4-1.1,2.9-2.9,3.1Z"/>
      <rect class="st0" x="259.3" y="77.3" width="1.5" height="4.2"/>
      <path class="st0" d="M260.7,78c-3.3.4-6.2-1.6-6.5-4.4s2.1-5.4,5.4-5.7c3.3-.4,6.2,1.6,6.5,4.4s-2.1,5.4-5.4,5.7Z"/>
      <polygon class="st0" points="259.9 101.6 272.4 122.8 246.1 123.1 259.9 101.6"/>
      <polygon class="st0" points="259.9 102.4 272.4 81.2 247.1 81.8 259.9 102.4"/>
      <polygon class="st0" points="265 120.2 271 131.1 263.6 146.1 266.2 148.8 267.3 148.8 265.2 145.7 272.2 131.1 266 119.9 265 120.2"/>
      <polygon class="st0" points="254.5 120.3 248.6 131.2 255.9 146.3 253.3 149 252.2 149 254.4 145.9 247.4 131.2 253.6 120.1 254.5 120.3"/>
      <g>
        <path class="st0" d="M243.5,88.3c1.7-2.6,2.6-5.3,2.8-6.2,0-.2,0-.3,0-.3h.2c0,0-.9,3.5-3,6.6,0,0,0,0,0-.1h0Z"/>
        <path class="st0" d="M248.9,105.1c-3.1-6.7-4.6-13.7-5-16,0-.5-.1-.7-.1-.7l-.3.2s1.6,8.8,5.3,16.8c0-.1,0-.2.1-.3h0Z"/>
        <path class="st0" d="M275.3,88.6c-1.6-3-2.4-6-2.6-7,0-.2,0-.3,0-.3h-.2c0,0,.8,3.9,2.7,7.5,0,0,0,0,0-.1h0Z"/>
        <path class="st0" d="M271.8,104.1c1.9-6.3,2.9-12.9,3.1-14.9,0-.4,0-.7,0-.7l.2.2s-1,8.2-3.3,15.8c0,0,0-.2,0-.3h0s0,0,0,0Z"/>
      </g>
    </g>
    <g>
      <rect class="st0" x="213.9" y="77.3" width="1.5" height="4.2"/>
      <path class="st0" d="M215.3,78c-3.3.4-6.2-1.6-6.5-4.4s2.1-5.4,5.4-5.7,6.2,1.6,6.5,4.4-2.1,5.4-5.4,5.7Z"/>
      <polygon class="st0" points="214.5 101.6 227 122.8 200.7 123.1 214.5 101.6"/>
      <polygon class="st0" points="214.5 102.4 227 81.2 201.7 81.8 214.5 102.4"/>
      <polygon class="st0" points="220 120.2 225.9 131.1 218.6 146.1 221.1 148.8 222.3 148.8 220.1 145.7 227.1 131.1 220.9 119.9 220 120.2"/>
      <polygon class="st0" points="210.1 120.3 204.1 131.2 211.5 146.3 208.9 149 207.8 149 209.9 145.9 203 131.2 209.2 120.1 210.1 120.3"/>
      <g>
        <path class="st0" d="M198.3,88.6c1.7-2.6,2.6-5.3,2.8-6.2,0-.2,0-.3,0-.3h.2c0,0-.9,3.5-3,6.6,0,0,0,0,0-.1h0Z"/>
        <path class="st0" d="M203.7,105.4c-3.1-6.7-4.6-13.7-5-16,0-.5-.1-.7-.1-.7l-.3.2s1.6,8.8,5.3,16.8c0-.1,0-.2.1-.3h0Z"/>
        <path class="st0" d="M230.1,88.8c-1.6-3-2.4-6-2.6-7,0-.2,0-.3,0-.3h-.2c0,0,.8,3.9,2.7,7.5,0,0,0,0,0-.1h0Z"/>
        <path class="st0" d="M226.6,104.4c1.9-6.3,2.9-12.9,3.1-14.9,0-.4,0-.7,0-.7l.2.2s-1,8.2-3.3,15.8c0,0,0-.2,0-.3h0s0,0,0,0Z"/>
      </g>
    </g>
    <g>
      <path class="st0" d="M342,75.3c-1.8.2-3.3-.9-3.5-2.4-.2-1.5,1.1-2.9,2.9-3.1s3.3.9,3.5,2.4-1.1,2.9-2.9,3.1Z"/>
      <rect class="st0" x="347.2" y="77.3" width="1.5" height="4.2"/>
      <path class="st0" d="M348.6,78c-3.3.4-6.2-1.6-6.5-4.4s2.1-5.4,5.4-5.7c3.3-.4,6.2,1.6,6.5,4.4s-2.1,5.4-5.4,5.7Z"/>
      <polygon class="st0" points="347.8 101.6 360.3 122.8 334 123.1 347.8 101.6"/>
      <polygon class="st0" points="347.8 102.4 360.3 81.2 335 81.8 347.8 102.4"/>
      <polygon class="st0" points="353 120.2 358.9 131.1 351.6 146.1 354.1 148.8 355.2 148.8 353.1 145.7 360.1 131.1 353.9 119.9 353 120.2"/>
      <polygon class="st0" points="342.4 120.3 336.5 131.2 343.8 146.3 341.3 149 340.2 149 342.3 145.9 335.3 131.2 341.5 120.1 342.4 120.3"/>
      <g>
        <path class="st0" d="M331.5,88.3c1.7-2.6,2.6-5.3,2.8-6.2,0-.2,0-.3,0-.3h.2c0,0-.9,3.5-3,6.6,0,0,0,0,0-.1h0Z"/>
        <path class="st0" d="M336.8,105.1c-3.1-6.7-4.6-13.7-5-16,0-.5-.1-.7-.1-.7l-.3.2s1.6,8.8,5.3,16.8c0-.1,0-.2.1-.3h0Z"/>
        <path class="st0" d="M363.2,88.6c-1.6-3-2.4-6-2.6-7,0-.2,0-.3,0-.3h-.2c0,0,.8,3.9,2.7,7.5,0,0,0,0,0-.1h0Z"/>
        <path class="st0" d="M359.7,104.1c1.9-6.3,2.9-12.9,3.1-14.9,0-.4,0-.7,0-.7l.2.2s-1,8.2-3.3,15.8c0,0,0-.2,0-.3h0s0,0,0,0Z"/>
      </g>
    </g>
    <g>
      <rect class="st0" x="301.8" y="77.3" width="1.5" height="4.2"/>
      <path class="st0" d="M303.2,78c-3.3.4-6.2-1.6-6.5-4.4s2.1-5.4,5.4-5.7,6.2,1.6,6.5,4.4-2.1,5.4-5.4,5.7Z"/>
      <polygon class="st0" points="302.4 101.6 314.9 122.8 288.7 123.1 302.4 101.6"/>
      <polygon class="st0" points="302.4 102.4 314.9 81.2 289.6 81.8 302.4 102.4"/>
      <polygon class="st0" points="307.9 120.2 313.9 131.1 306.5 146.1 309.1 148.8 310.2 148.8 308.1 145.7 315 131.1 308.8 119.9 307.9 120.2"/>
      <polygon class="st0" points="298 120.3 292.1 131.2 299.4 146.3 296.9 149 295.8 149 297.9 145.9 290.9 131.2 297.1 120.1 298 120.3"/>
      <g>
        <path class="st0" d="M286.3,88.6c1.7-2.6,2.6-5.3,2.8-6.2,0-.2,0-.3,0-.3h.2c0,0-.9,3.5-3,6.6,0,0,0,0,0-.1h0Z"/>
        <path class="st0" d="M291.6,105.4c-3.1-6.7-4.6-13.7-5-16,0-.5-.1-.7-.1-.7l-.3.2s1.6,8.8,5.3,16.8c0-.1,0-.2.1-.3h0Z"/>
        <path class="st0" d="M318,88.8c-1.6-3-2.4-6-2.6-7,0-.2,0-.3,0-.3h-.2c0,0,.8,3.9,2.7,7.5,0,0,0,0,0-.1h0Z"/>
        <path class="st0" d="M314.6,104.4c1.9-6.3,2.9-12.9,3.1-14.9,0-.4,0-.7,0-.7l.2.2s-1,8.2-3.3,15.8c0,0,0-.2,0-.3h0s0,0,0,0Z"/>
      </g>
    </g>
    <g>
      <path class="st0" d="M429.3,75.3c-1.8.2-3.3-.9-3.5-2.4-.2-1.5,1.1-2.9,2.9-3.1s3.3.9,3.5,2.4-1.1,2.9-2.9,3.1Z"/>
      <rect class="st0" x="434.6" y="77.3" width="1.5" height="4.2"/>
      <path class="st0" d="M436,78c-3.3.4-6.2-1.6-6.5-4.4s2.1-5.4,5.4-5.7c3.3-.4,6.2,1.6,6.5,4.4s-2.1,5.4-5.4,5.7Z"/>
      <polygon class="st0" points="435.2 101.6 447.7 122.8 421.4 123.1 435.2 101.6"/>
      <polygon class="st0" points="435.2 102.4 447.7 81.2 422.4 81.8 435.2 102.4"/>
      <polygon class="st0" points="440.4 120.2 446.3 131.1 439 146.1 441.5 148.8 442.6 148.8 440.5 145.7 447.5 131.1 441.3 119.9 440.4 120.2"/>
      <polygon class="st0" points="429.8 120.3 423.9 131.2 431.2 146.3 428.7 149 427.5 149 429.7 145.9 422.7 131.2 428.9 120.1 429.8 120.3"/>
      <g>
        <path class="st0" d="M418.9,88.3c1.7-2.6,2.6-5.3,2.8-6.2,0-.2,0-.3,0-.3h.2c0,0-.9,3.5-3,6.6,0,0,0,0,0-.1h0Z"/>
        <path class="st0" d="M424.2,105.1c-3.1-6.7-4.6-13.7-5-16,0-.5-.1-.7-.1-.7l-.3.2s1.6,8.8,5.3,16.8c0-.1,0-.2.1-.3h0Z"/>
        <path class="st0" d="M450.6,88.6c-1.6-3-2.4-6-2.6-7,0-.2,0-.3,0-.3h-.2c0,0,.8,3.9,2.7,7.5,0,0,0,0,0-.1h0Z"/>
        <path class="st0" d="M447.1,104.1c1.9-6.3,2.9-12.9,3.1-14.9,0-.4,0-.7,0-.7l.2.2s-1,8.2-3.3,15.8c0,0,0-.2,0-.3h0s0,0,0,0Z"/>
      </g>
    </g>
    <g>
      <rect class="st0" x="389.2" y="77.3" width="1.5" height="4.2"/>
      <path class="st0" d="M390.6,78c-3.3.4-6.2-1.6-6.5-4.4s2.1-5.4,5.4-5.7,6.2,1.6,6.5,4.4-2.1,5.4-5.4,5.7Z"/>
      <polygon class="st0" points="389.8 101.6 402.3 122.8 376.1 123.1 389.8 101.6"/>
      <polygon class="st0" points="389.8 102.4 402.3 81.2 377 81.8 389.8 102.4"/>
      <polygon class="st0" points="395.3 120.2 401.2 131.1 393.9 146.1 396.5 148.8 397.6 148.8 395.4 145.7 402.4 131.1 396.2 119.9 395.3 120.2"/>
      <polygon class="st0" points="385.4 120.3 379.5 131.2 386.8 146.3 384.2 149 383.1 149 385.3 145.9 378.3 131.2 384.5 120.1 385.4 120.3"/>
      <g>
        <path class="st0" d="M373.7,88.6c1.7-2.6,2.6-5.3,2.8-6.2,0-.2,0-.3,0-.3h.2c0,0-.9,3.5-3,6.6,0,0,0,0,0-.1h0Z"/>
        <path class="st0" d="M379,105.4c-3.1-6.7-4.6-13.7-5-16,0-.5-.1-.7-.1-.7l-.3.2s1.6,8.8,5.3,16.8c0-.1,0-.2.1-.3h0Z"/>
        <path class="st0" d="M405.4,88.8c-1.6-3-2.4-6-2.6-7,0-.2,0-.3,0-.3h-.2c0,0,.8,3.9,2.7,7.5,0,0,0,0,0-.1h0Z"/>
        <path class="st0" d="M401.9,104.4c1.9-6.3,2.9-12.9,3.1-14.9,0-.4,0-.7,0-.7l.2.2s-1,8.2-3.3,15.8c0,0,0-.2,0-.3h0s0,0,0,0Z"/>
      </g>
    </g>
  </g>
  <g>
    <path class="st0" d="M77.3,172.6c-1.8.2-3.3-.9-3.5-2.4-.2-1.5,1.1-2.9,2.9-3.1s3.3.9,3.5,2.4-1.1,2.9-2.9,3.1Z"/>
    <rect class="st0" x="82.5" y="174.6" width="1.5" height="4.2"/>
    <path class="st0" d="M84,175.3c-3.3.4-6.2-1.6-6.5-4.4s2.1-5.4,5.4-5.7c3.3-.4,6.2,1.6,6.5,4.4s-2.1,5.4-5.4,5.7Z"/>
    <polygon class="st0" points="83.2 198.9 95.7 220.1 69.4 220.5 83.2 198.9"/>
    <polygon class="st0" points="83.2 199.7 95.7 178.5 70.4 179.1 83.2 199.7"/>
    <polygon class="st0" points="88.3 217.5 94.3 228.4 86.9 243.4 89.5 246.2 90.6 246.2 88.5 243 95.4 228.4 89.2 217.2 88.3 217.5"/>
    <polygon class="st0" points="77.8 217.6 71.8 228.5 79.2 243.6 76.6 246.3 75.5 246.3 77.6 243.2 70.7 228.5 76.9 217.4 77.8 217.6"/>
    <g>
      <path class="st0" d="M66.8,185.6c1.7-2.6,2.6-5.3,2.8-6.2,0-.2,0-.3,0-.3h.2c0,0-.9,3.5-3,6.6,0,0,0,0,0-.1h0Z"/>
      <path class="st0" d="M72.1,202.4c-3.1-6.7-4.6-13.7-5-16,0-.5-.1-.7-.1-.7l-.3.2s1.6,8.8,5.3,16.8c0-.1,0-.2.1-.3h0Z"/>
      <path class="st0" d="M98.6,185.9c-1.6-3-2.4-6-2.6-7,0-.2,0-.3,0-.3h-.2c0,0,.8,3.9,2.7,7.5,0,0,0,0,0-.1h0Z"/>
      <path class="st0" d="M95.1,201.4c1.9-6.3,2.9-12.9,3.1-14.9,0-.4,0-.7,0-.7l.2.2s-1,8.2-3.3,15.8c0,0,0-.2,0-.3h0s0,0,0,0Z"/>
    </g>
  </g>
  <g>
    <rect class="st0" x="37.2" y="174.6" width="1.5" height="4.2"/>
    <path class="st0" d="M38.6,175.3c-3.3.4-6.2-1.6-6.5-4.4s2.1-5.4,5.4-5.7,6.2,1.6,6.5,4.4-2.1,5.4-5.4,5.7Z"/>
    <polygon class="st0" points="37.8 198.9 50.3 220.1 24 220.5 37.8 198.9"/>
    <polygon class="st0" points="37.8 199.7 50.3 178.5 25 179.1 37.8 199.7"/>
    <polygon class="st0" points="43.3 217.5 49.2 228.4 41.9 243.4 44.4 246.2 45.5 246.2 43.4 243 50.4 228.4 44.2 217.2 43.3 217.5"/>
    <polygon class="st0" points="33.4 217.6 27.4 228.5 34.8 243.6 32.2 246.3 31.1 246.3 33.2 243.2 26.3 228.5 32.5 217.4 33.4 217.6"/>
    <g>
      <path class="st0" d="M21.6,185.9c1.7-2.6,2.6-5.3,2.8-6.2,0-.2,0-.3,0-.3h.2c0,0-.9,3.5-3,6.6,0,0,0,0,0-.1h0Z"/>
      <path class="st0" d="M27,202.7c-3.1-6.7-4.6-13.7-5-16,0-.5-.1-.7-.1-.7l-.3.2s1.6,8.8,5.3,16.8c0-.1,0-.2.1-.3h0Z"/>
      <path class="st0" d="M53.4,186.1c-1.6-3-2.4-6-2.6-7,0-.2,0-.3,0-.3h-.2c0,0,.8,3.9,2.7,7.5,0,0,0,0,0-.1h0Z"/>
      <path class="st0" d="M49.9,201.7c1.9-6.3,2.9-12.9,3.1-14.9,0-.4,0-.7,0-.7l.2.2s-1,8.2-3.3,15.8c0,0,0-.2,0-.3h0s0,0,0,0Z"/>
    </g>
  </g>
  <g>
    <path class="st0" d="M165.2,172.6c-1.8.2-3.3-.9-3.5-2.4-.2-1.5,1.1-2.9,2.9-3.1s3.3.9,3.5,2.4-1.1,2.9-2.9,3.1Z"/>
    <rect class="st0" x="170.5" y="174.6" width="1.5" height="4.2"/>
    <path class="st0" d="M171.9,175.3c-3.3.4-6.2-1.6-6.5-4.4s2.1-5.4,5.4-5.7c3.3-.4,6.2,1.6,6.5,4.4s-2.1,5.4-5.4,5.7Z"/>
    <polygon class="st0" points="171.1 198.9 183.6 220.1 157.3 220.5 171.1 198.9"/>
    <polygon class="st0" points="171.1 199.7 183.6 178.5 158.3 179.1 171.1 199.7"/>
    <polygon class="st0" points="176.3 217.5 182.2 228.4 174.9 243.4 177.4 246.2 178.5 246.2 176.4 243 183.4 228.4 177.2 217.2 176.3 217.5"/>
    <polygon class="st0" points="165.7 217.6 159.8 228.5 167.1 243.6 164.6 246.3 163.4 246.3 165.6 243.2 158.6 228.5 164.8 217.4 165.7 217.6"/>
    <g>
      <path class="st0" d="M154.7,185.6c1.7-2.6,2.6-5.3,2.8-6.2,0-.2,0-.3,0-.3h.2c0,0-.9,3.5-3,6.6,0,0,0,0,0-.1h0Z"/>
      <path class="st0" d="M160.1,202.4c-3.1-6.7-4.6-13.7-5-16,0-.5-.1-.7-.1-.7l-.3.2s1.6,8.8,5.3,16.8c0-.1,0-.2.1-.3h0Z"/>
      <path class="st0" d="M186.5,185.9c-1.6-3-2.4-6-2.6-7,0-.2,0-.3,0-.3h-.2c0,0,.8,3.9,2.7,7.5,0,0,0,0,0-.1h0Z"/>
      <path class="st0" d="M183,201.4c1.9-6.3,2.9-12.9,3.1-14.9,0-.4,0-.7,0-.7l.2.2s-1,8.2-3.3,15.8c0,0,0-.2,0-.3h0s0,0,0,0Z"/>
    </g>
  </g>
  <g>
    <rect class="st0" x="125.1" y="174.6" width="1.5" height="4.2"/>
    <path class="st0" d="M126.5,175.3c-3.3.4-6.2-1.6-6.5-4.4s2.1-5.4,5.4-5.7,6.2,1.6,6.5,4.4-2.1,5.4-5.4,5.7Z"/>
    <polygon class="st0" points="125.7 198.9 138.2 220.1 112 220.5 125.7 198.9"/>
    <polygon class="st0" points="125.7 199.7 138.2 178.5 112.9 179.1 125.7 199.7"/>
    <polygon class="st0" points="131.2 217.5 137.1 228.4 129.8 243.4 132.4 246.2 133.5 246.2 131.3 243 138.3 228.4 132.1 217.2 131.2 217.5"/>
    <polygon class="st0" points="121.3 217.6 115.4 228.5 122.7 243.6 120.1 246.3 119 246.3 121.2 243.2 114.2 228.5 120.4 217.4 121.3 217.6"/>
    <g>
      <path class="st0" d="M109.6,185.9c1.7-2.6,2.6-5.3,2.8-6.2,0-.2,0-.3,0-.3h.2c0,0-.9,3.5-3,6.6,0,0,0,0,0-.1h0Z"/>
      <path class="st0" d="M114.9,202.7c-3.1-6.7-4.6-13.7-5-16,0-.5-.1-.7-.1-.7l-.3.2s1.6,8.8,5.3,16.8c0-.1,0-.2.1-.3h0Z"/>
      <path class="st0" d="M141.3,186.1c-1.6-3-2.4-6-2.6-7,0-.2,0-.3,0-.3h-.2c0,0,.8,3.9,2.7,7.5,0,0,0,0,0-.1h0Z"/>
      <path class="st0" d="M137.8,201.7c1.9-6.3,2.9-12.9,3.1-14.9,0-.4,0-.7,0-.7l.2.2s-1,8.2-3.3,15.8c0,0,0-.2,0-.3h0s0,0,0,0Z"/>
    </g>
  </g>
  <g>
    <path class="st0" d="M254,172.6c-1.8.2-3.3-.9-3.5-2.4-.2-1.5,1.1-2.9,2.9-3.1s3.3.9,3.5,2.4-1.1,2.9-2.9,3.1Z"/>
    <rect class="st0" x="259.3" y="174.6" width="1.5" height="4.2"/>
    <path class="st0" d="M260.7,175.3c-3.3.4-6.2-1.6-6.5-4.4s2.1-5.4,5.4-5.7c3.3-.4,6.2,1.6,6.5,4.4s-2.1,5.4-5.4,5.7Z"/>
    <polygon class="st0" points="259.9 198.9 272.4 220.1 246.1 220.5 259.9 198.9"/>
    <polygon class="st0" points="259.9 199.7 272.4 178.5 247.1 179.1 259.9 199.7"/>
    <polygon class="st0" points="265 217.5 271 228.4 263.6 243.4 266.2 246.2 267.3 246.2 265.2 243 272.2 228.4 266 217.2 265 217.5"/>
    <polygon class="st0" points="254.5 217.6 248.6 228.5 255.9 243.6 253.3 246.3 252.2 246.3 254.4 243.2 247.4 228.5 253.6 217.4 254.5 217.6"/>
    <g>
      <path class="st0" d="M243.5,185.6c1.7-2.6,2.6-5.3,2.8-6.2,0-.2,0-.3,0-.3h.2c0,0-.9,3.5-3,6.6,0,0,0,0,0-.1h0Z"/>
      <path class="st0" d="M248.9,202.4c-3.1-6.7-4.6-13.7-5-16,0-.5-.1-.7-.1-.7l-.3.2s1.6,8.8,5.3,16.8c0-.1,0-.2.1-.3h0Z"/>
      <path class="st0" d="M275.3,185.9c-1.6-3-2.4-6-2.6-7,0-.2,0-.3,0-.3h-.2c0,0,.8,3.9,2.7,7.5,0,0,0,0,0-.1h0Z"/>
      <path class="st0" d="M271.8,201.4c1.9-6.3,2.9-12.9,3.1-14.9,0-.4,0-.7,0-.7l.2.2s-1,8.2-3.3,15.8c0,0,0-.2,0-.3h0s0,0,0,0Z"/>
    </g>
  </g>
  <g>
    <rect class="st0" x="213.9" y="174.6" width="1.5" height="4.2"/>
    <path class="st0" d="M215.3,175.3c-3.3.4-6.2-1.6-6.5-4.4s2.1-5.4,5.4-5.7,6.2,1.6,6.5,4.4-2.1,5.4-5.4,5.7Z"/>
    <polygon class="st0" points="214.5 198.9 227 220.1 200.7 220.5 214.5 198.9"/>
    <polygon class="st0" points="214.5 199.7 227 178.5 201.7 179.1 214.5 199.7"/>
    <polygon class="st0" points="220 217.5 225.9 228.4 218.6 243.4 221.1 246.2 222.3 246.2 220.1 243 227.1 228.4 220.9 217.2 220 217.5"/>
    <polygon class="st0" points="210.1 217.6 204.1 228.5 211.5 243.6 208.9 246.3 207.8 246.3 209.9 243.2 203 228.5 209.2 217.4 210.1 217.6"/>
    <g>
      <path class="st0" d="M198.3,185.9c1.7-2.6,2.6-5.3,2.8-6.2,0-.2,0-.3,0-.3h.2c0,0-.9,3.5-3,6.6,0,0,0,0,0-.1h0Z"/>
      <path class="st0" d="M203.7,202.7c-3.1-6.7-4.6-13.7-5-16,0-.5-.1-.7-.1-.7l-.3.2s1.6,8.8,5.3,16.8c0-.1,0-.2.1-.3h0Z"/>
      <path class="st0" d="M230.1,186.1c-1.6-3-2.4-6-2.6-7,0-.2,0-.3,0-.3h-.2c0,0,.8,3.9,2.7,7.5,0,0,0,0,0-.1h0Z"/>
      <path class="st0" d="M226.6,201.7c1.9-6.3,2.9-12.9,3.1-14.9,0-.4,0-.7,0-.7l.2.2s-1,8.2-3.3,15.8c0,0,0-.2,0-.3h0s0,0,0,0Z"/>
    </g>
  </g>
  <g>
    <path class="st0" d="M342,172.6c-1.8.2-3.3-.9-3.5-2.4-.2-1.5,1.1-2.9,2.9-3.1s3.3.9,3.5,2.4-1.1,2.9-2.9,3.1Z"/>
    <rect class="st0" x="347.2" y="174.6" width="1.5" height="4.2"/>
    <path class="st0" d="M348.6,175.3c-3.3.4-6.2-1.6-6.5-4.4s2.1-5.4,5.4-5.7c3.3-.4,6.2,1.6,6.5,4.4s-2.1,5.4-5.4,5.7Z"/>
    <polygon class="st0" points="347.8 198.9 360.3 220.1 334 220.5 347.8 198.9"/>
    <polygon class="st0" points="347.8 199.7 360.3 178.5 335 179.1 347.8 199.7"/>
    <polygon class="st0" points="353 217.5 358.9 228.4 351.6 243.4 354.1 246.2 355.2 246.2 353.1 243 360.1 228.4 353.9 217.2 353 217.5"/>
    <polygon class="st0" points="342.4 217.6 336.5 228.5 343.8 243.6 341.3 246.3 340.2 246.3 342.3 243.2 335.3 228.5 341.5 217.4 342.4 217.6"/>
    <g>
      <path class="st0" d="M331.5,185.6c1.7-2.6,2.6-5.3,2.8-6.2,0-.2,0-.3,0-.3h.2c0,0-.9,3.5-3,6.6,0,0,0,0,0-.1h0Z"/>
      <path class="st0" d="M336.8,202.4c-3.1-6.7-4.6-13.7-5-16,0-.5-.1-.7-.1-.7l-.3.2s1.6,8.8,5.3,16.8c0-.1,0-.2.1-.3h0Z"/>
      <path class="st0" d="M363.2,185.9c-1.6-3-2.4-6-2.6-7,0-.2,0-.3,0-.3h-.2c0,0,.8,3.9,2.7,7.5,0,0,0,0,0-.1h0Z"/>
      <path class="st0" d="M359.7,201.4c1.9-6.3,2.9-12.9,3.1-14.9,0-.4,0-.7,0-.7l.2.2s-1,8.2-3.3,15.8c0,0,0-.2,0-.3h0s0,0,0,0Z"/>
    </g>
  </g>
  <g>
    <rect class="st0" x="301.8" y="174.6" width="1.5" height="4.2"/>
    <path class="st0" d="M303.2,175.3c-3.3.4-6.2-1.6-6.5-4.4s2.1-5.4,5.4-5.7,6.2,1.6,6.5,4.4-2.1,5.4-5.4,5.7Z"/>
    <polygon class="st0" points="302.4 198.9 314.9 220.1 288.7 220.5 302.4 198.9"/>
    <polygon class="st0" points="302.4 199.7 314.9 178.5 289.6 179.1 302.4 199.7"/>
    <polygon class="st0" points="307.9 217.5 313.9 228.4 306.5 243.4 309.1 246.2 310.2 246.2 308.1 243 315 228.4 308.8 217.2 307.9 217.5"/>
    <polygon class="st0" points="298 217.6 292.1 228.5 299.4 243.6 296.9 246.3 295.8 246.3 297.9 243.2 290.9 228.5 297.1 217.4 298 217.6"/>
    <g>
      <path class="st0" d="M286.3,185.9c1.7-2.6,2.6-5.3,2.8-6.2,0-.2,0-.3,0-.3h.2c0,0-.9,3.5-3,6.6,0,0,0,0,0-.1h0Z"/>
      <path class="st0" d="M291.6,202.7c-3.1-6.7-4.6-13.7-5-16,0-.5-.1-.7-.1-.7l-.3.2s1.6,8.8,5.3,16.8c0-.1,0-.2.1-.3h0Z"/>
      <path class="st0" d="M318,186.1c-1.6-3-2.4-6-2.6-7,0-.2,0-.3,0-.3h-.2c0,0,.8,3.9,2.7,7.5,0,0,0,0,0-.1h0Z"/>
      <path class="st0" d="M314.6,201.7c1.9-6.3,2.9-12.9,3.1-14.9,0-.4,0-.7,0-.7l.2.2s-1,8.2-3.3,15.8c0,0,0-.2,0-.3h0s0,0,0,0Z"/>
    </g>
  </g>
  <g>
    <path class="st0" d="M429.3,172.6c-1.8.2-3.3-.9-3.5-2.4-.2-1.5,1.1-2.9,2.9-3.1s3.3.9,3.5,2.4-1.1,2.9-2.9,3.1Z"/>
    <rect class="st0" x="434.6" y="174.6" width="1.5" height="4.2"/>
    <path class="st0" d="M436,175.3c-3.3.4-6.2-1.6-6.5-4.4s2.1-5.4,5.4-5.7c3.3-.4,6.2,1.6,6.5,4.4s-2.1,5.4-5.4,5.7Z"/>
    <polygon class="st0" points="435.2 198.9 447.7 220.1 421.4 220.5 435.2 198.9"/>
    <polygon class="st0" points="435.2 199.7 447.7 178.5 422.4 179.1 435.2 199.7"/>
    <polygon class="st0" points="440.4 217.5 446.3 228.4 439 243.4 441.5 246.2 442.6 246.2 440.5 243 447.5 228.4 441.3 217.2 440.4 217.5"/>
    <polygon class="st0" points="429.8 217.6 423.9 228.5 431.2 243.6 428.7 246.3 427.5 246.3 429.7 243.2 422.7 228.5 428.9 217.4 429.8 217.6"/>
    <g>
      <path class="st0" d="M418.9,185.6c1.7-2.6,2.6-5.3,2.8-6.2,0-.2,0-.3,0-.3h.2c0,0-.9,3.5-3,6.6,0,0,0,0,0-.1h0Z"/>
      <path class="st0" d="M424.2,202.4c-3.1-6.7-4.6-13.7-5-16,0-.5-.1-.7-.1-.7l-.3.2s1.6,8.8,5.3,16.8c0-.1,0-.2.1-.3h0Z"/>
      <path class="st0" d="M450.6,185.9c-1.6-3-2.4-6-2.6-7,0-.2,0-.3,0-.3h-.2c0,0,.8,3.9,2.7,7.5,0,0,0,0,0-.1h0Z"/>
      <path class="st0" d="M447.1,201.4c1.9-6.3,2.9-12.9,3.1-14.9,0-.4,0-.7,0-.7l.2.2s-1,8.2-3.3,15.8c0,0,0-.2,0-.3h0s0,0,0,0Z"/>
    </g>
  </g>
  <g>
    <rect class="st0" x="389.2" y="174.6" width="1.5" height="4.2"/>
    <path class="st0" d="M390.6,175.3c-3.3.4-6.2-1.6-6.5-4.4s2.1-5.4,5.4-5.7,6.2,1.6,6.5,4.4-2.1,5.4-5.4,5.7Z"/>
    <polygon class="st0" points="389.8 198.9 402.3 220.1 376.1 220.5 389.8 198.9"/>
    <polygon class="st0" points="389.8 199.7 402.3 178.5 377 179.1 389.8 199.7"/>
    <polygon class="st0" points="395.3 217.5 401.2 228.4 393.9 243.4 396.5 246.2 397.6 246.2 395.4 243 402.4 228.4 396.2 217.2 395.3 217.5"/>
    <polygon class="st0" points="385.4 217.6 379.5 228.5 386.8 243.6 384.2 246.3 383.1 246.3 385.3 243.2 378.3 228.5 384.5 217.4 385.4 217.6"/>
    <g>
      <path class="st0" d="M373.7,185.9c1.7-2.6,2.6-5.3,2.8-6.2,0-.2,0-.3,0-.3h.2c0,0-.9,3.5-3,6.6,0,0,0,0,0-.1h0Z"/>
      <path class="st0" d="M379,202.7c-3.1-6.7-4.6-13.7-5-16,0-.5-.1-.7-.1-.7l-.3.2s1.6,8.8,5.3,16.8c0-.1,0-.2.1-.3h0Z"/>
      <path class="st0" d="M405.4,186.1c-1.6-3-2.4-6-2.6-7,0-.2,0-.3,0-.3h-.2c0,0,.8,3.9,2.7,7.5,0,0,0,0,0-.1h0Z"/>
      <path class="st0" d="M401.9,201.7c1.9-6.3,2.9-12.9,3.1-14.9,0-.4,0-.7,0-.7l.2.2s-1,8.2-3.3,15.8c0,0,0-.2,0-.3h0s0,0,0,0Z"/>
    </g>
  </g>
  <g>
    <path class="st0" d="M77.3,277.3c-1.8.2-3.3-.9-3.5-2.4-.2-1.5,1.1-2.9,2.9-3.1s3.3.9,3.5,2.4-1.1,2.9-2.9,3.1Z"/>
    <rect class="st0" x="82.5" y="279.3" width="1.5" height="4.2"/>
    <path class="st0" d="M84,280c-3.3.4-6.2-1.6-6.5-4.4s2.1-5.4,5.4-5.7c3.3-.4,6.2,1.6,6.5,4.4s-2.1,5.4-5.4,5.7Z"/>
    <polygon class="st0" points="83.2 303.6 95.7 324.8 69.4 325.2 83.2 303.6"/>
    <polygon class="st0" points="83.2 304.4 95.7 283.2 70.4 283.8 83.2 304.4"/>
    <polygon class="st0" points="88.3 322.2 94.3 333.1 86.9 348.1 89.5 350.9 90.6 350.9 88.5 347.7 95.4 333.1 89.2 321.9 88.3 322.2"/>
    <polygon class="st0" points="77.8 322.3 71.8 333.3 79.2 348.3 76.6 351 75.5 351 77.6 347.9 70.7 333.3 76.9 322.1 77.8 322.3"/>
    <g>
      <path class="st0" d="M66.8,290.3c1.7-2.6,2.6-5.3,2.8-6.2,0-.2,0-.3,0-.3h.2c0,0-.9,3.5-3,6.6,0,0,0,0,0-.1h0Z"/>
      <path class="st0" d="M72.1,307.1c-3.1-6.7-4.6-13.7-5-16,0-.5-.1-.7-.1-.7l-.3.2s1.6,8.8,5.3,16.8c0-.1,0-.2.1-.3h0Z"/>
      <path class="st0" d="M98.6,290.6c-1.6-3-2.4-6-2.6-7,0-.2,0-.3,0-.3h-.2c0,0,.8,3.9,2.7,7.5,0,0,0,0,0-.1h0Z"/>
      <path class="st0" d="M95.1,306.1c1.9-6.3,2.9-12.9,3.1-14.9,0-.4,0-.7,0-.7l.2.2s-1,8.2-3.3,15.8c0,0,0-.2,0-.3h0s0,0,0,0Z"/>
    </g>
  </g>
  <g>
    <rect class="st0" x="37.2" y="279.3" width="1.5" height="4.2"/>
    <path class="st0" d="M38.6,280c-3.3.4-6.2-1.6-6.5-4.4s2.1-5.4,5.4-5.7,6.2,1.6,6.5,4.4-2.1,5.4-5.4,5.7Z"/>
    <polygon class="st0" points="37.8 303.6 50.3 324.8 24 325.2 37.8 303.6"/>
    <polygon class="st0" points="37.8 304.4 50.3 283.2 25 283.8 37.8 304.4"/>
    <polygon class="st0" points="43.3 322.2 49.2 333.1 41.9 348.1 44.4 350.9 45.5 350.9 43.4 347.7 50.4 333.1 44.2 321.9 43.3 322.2"/>
    <polygon class="st0" points="33.4 322.3 27.4 333.3 34.8 348.3 32.2 351 31.1 351 33.2 347.9 26.3 333.3 32.5 322.1 33.4 322.3"/>
    <g>
      <path class="st0" d="M21.6,290.6c1.7-2.6,2.6-5.3,2.8-6.2,0-.2,0-.3,0-.3h.2c0,0-.9,3.5-3,6.6,0,0,0,0,0-.1h0Z"/>
      <path class="st0" d="M27,307.4c-3.1-6.7-4.6-13.7-5-16,0-.5-.1-.7-.1-.7l-.3.2s1.6,8.8,5.3,16.8c0-.1,0-.2.1-.3h0Z"/>
      <path class="st0" d="M53.4,290.9c-1.6-3-2.4-6-2.6-7,0-.2,0-.3,0-.3h-.2c0,0,.8,3.9,2.7,7.5,0,0,0,0,0-.1h0Z"/>
      <path class="st0" d="M49.9,306.4c1.9-6.3,2.9-12.9,3.1-14.9,0-.4,0-.7,0-.7l.2.2s-1,8.2-3.3,15.8c0,0,0-.2,0-.3h0s0,0,0,0Z"/>
    </g>
  </g>
  <path class="st0" d="M165.2,277.3c-1.8.2-3.3-.9-3.5-2.4-.2-1.5,1.1-2.9,2.9-3.1s3.3.9,3.5,2.4-1.1,2.9-2.9,3.1Z"/>
  <rect class="st0" x="170.5" y="279.3" width="1.5" height="4.2"/>
  <path class="st0" d="M171.9,280c-3.3.4-6.2-1.6-6.5-4.4s2.1-5.4,5.4-5.7c3.3-.4,6.2,1.6,6.5,4.4s-2.1,5.4-5.4,5.7Z"/>
  <polygon class="st1" points="171.1 303.6 183.6 324.8 157.3 325.2 171.1 303.6"/>
  <polygon class="st1" points="171.1 304.4 183.6 283.2 158.3 283.8 171.1 304.4"/>
  <polygon class="st1" points="176.3 322.2 182.2 333.1 174.9 348.1 177.4 350.9 178.5 350.9 176.4 347.7 183.4 333.1 177.2 321.9 176.3 322.2"/>
  <polygon class="st1" points="165.7 322.3 159.8 333.3 167.1 348.3 164.6 351 163.4 351 165.6 347.9 158.6 333.3 164.8 322.1 165.7 322.3"/>
  <g>
    <path class="st1" d="M154.7,290.3c1.7-2.6,2.6-5.3,2.8-6.2,0-.2,0-.3,0-.3h.2c0,0-.9,3.5-3,6.6,0,0,0,0,0-.1h0Z"/>
    <path class="st1" d="M160.1,307.1c-3.1-6.7-4.6-13.7-5-16,0-.5-.1-.7-.1-.7l-.3.2s1.6,8.8,5.3,16.8c0-.1,0-.2.1-.3h0Z"/>
    <path class="st1" d="M186.5,290.6c-1.6-3-2.4-6-2.6-7,0-.2,0-.3,0-.3h-.2c0,0,.8,3.9,2.7,7.5,0,0,0,0,0-.1h0Z"/>
    <path class="st1" d="M183,306.1c1.9-6.3,2.9-12.9,3.1-14.9,0-.4,0-.7,0-.7l.2.2s-1,8.2-3.3,15.8c0,0,0-.2,0-.3h0s0,0,0,0Z"/>
  </g>
  <g>
    <rect class="st0" x="125.1" y="279.3" width="1.5" height="4.2"/>
    <path class="st0" d="M126.5,280c-3.3.4-6.2-1.6-6.5-4.4s2.1-5.4,5.4-5.7,6.2,1.6,6.5,4.4-2.1,5.4-5.4,5.7Z"/>
    <polygon class="st0" points="125.7 303.6 138.2 324.8 112 325.2 125.7 303.6"/>
    <polygon class="st0" points="125.7 304.4 138.2 283.2 112.9 283.8 125.7 304.4"/>
    <polygon class="st0" points="131.2 322.2 137.1 333.1 129.8 348.1 132.4 350.9 133.5 350.9 131.3 347.7 138.3 333.1 132.1 321.9 131.2 322.2"/>
    <polygon class="st0" points="121.3 322.3 115.4 333.3 122.7 348.3 120.1 351 119 351 121.2 347.9 114.2 333.3 120.4 322.1 121.3 322.3"/>
    <g>
      <path class="st0" d="M109.6,290.6c1.7-2.6,2.6-5.3,2.8-6.2,0-.2,0-.3,0-.3h.2c0,0-.9,3.5-3,6.6,0,0,0,0,0-.1h0Z"/>
      <path class="st0" d="M114.9,307.4c-3.1-6.7-4.6-13.7-5-16,0-.5-.1-.7-.1-.7l-.3.2s1.6,8.8,5.3,16.8c0-.1,0-.2.1-.3h0Z"/>
      <path class="st0" d="M141.3,290.9c-1.6-3-2.4-6-2.6-7,0-.2,0-.3,0-.3h-.2c0,0,.8,3.9,2.7,7.5,0,0,0,0,0-.1h0Z"/>
      <path class="st0" d="M137.8,306.4c1.9-6.3,2.9-12.9,3.1-14.9,0-.4,0-.7,0-.7l.2.2s-1,8.2-3.3,15.8c0,0,0-.2,0-.3h0s0,0,0,0Z"/>
    </g>
  </g>
  <g>
    <path class="st1" d="M254,277.3c-1.8.2-3.3-.9-3.5-2.4-.2-1.5,1.1-2.9,2.9-3.1s3.3.9,3.5,2.4-1.1,2.9-2.9,3.1Z"/>
    <rect class="st1" x="259.3" y="279.3" width="1.5" height="4.2"/>
    <path class="st1" d="M260.7,280c-3.3.4-6.2-1.6-6.5-4.4s2.1-5.4,5.4-5.7c3.3-.4,6.2,1.6,6.5,4.4s-2.1,5.4-5.4,5.7Z"/>
    <polygon class="st1" points="259.9 303.6 272.4 324.8 246.1 325.2 259.9 303.6"/>
    <polygon class="st1" points="259.9 304.4 272.4 283.2 247.1 283.8 259.9 304.4"/>
    <polygon class="st1" points="265 322.2 271 333.1 263.6 348.1 266.2 350.9 267.3 350.9 265.2 347.7 272.2 333.1 266 321.9 265 322.2"/>
    <polygon class="st1" points="254.5 322.3 248.6 333.3 255.9 348.3 253.3 351 252.2 351 254.4 347.9 247.4 333.3 253.6 322.1 254.5 322.3"/>
    <g>
      <path class="st1" d="M243.5,290.3c1.7-2.6,2.6-5.3,2.8-6.2,0-.2,0-.3,0-.3h.2c0,0-.9,3.5-3,6.6,0,0,0,0,0-.1h0Z"/>
      <path class="st1" d="M248.9,307.1c-3.1-6.7-4.6-13.7-5-16,0-.5-.1-.7-.1-.7l-.3.2s1.6,8.8,5.3,16.8c0-.1,0-.2.1-.3h0Z"/>
      <path class="st1" d="M275.3,290.6c-1.6-3-2.4-6-2.6-7,0-.2,0-.3,0-.3h-.2c0,0,.8,3.9,2.7,7.5,0,0,0,0,0-.1h0Z"/>
      <path class="st1" d="M271.8,306.1c1.9-6.3,2.9-12.9,3.1-14.9,0-.4,0-.7,0-.7l.2.2s-1,8.2-3.3,15.8c0,0,0-.2,0-.3h0s0,0,0,0Z"/>
    </g>
  </g>
  <g>
    <rect class="st1" x="213.9" y="279.3" width="1.5" height="4.2"/>
    <path class="st1" d="M215.3,280c-3.3.4-6.2-1.6-6.5-4.4s2.1-5.4,5.4-5.7,6.2,1.6,6.5,4.4-2.1,5.4-5.4,5.7Z"/>
    <polygon class="st1" points="214.5 303.6 227 324.8 200.7 325.2 214.5 303.6"/>
    <polygon class="st1" points="214.5 304.4 227 283.2 201.7 283.8 214.5 304.4"/>
    <polygon class="st1" points="220 322.2 225.9 333.1 218.6 348.1 221.1 350.9 222.3 350.9 220.1 347.7 227.1 333.1 220.9 321.9 220 322.2"/>
    <polygon class="st1" points="210.1 322.3 204.1 333.3 211.5 348.3 208.9 351 207.8 351 209.9 347.9 203 333.3 209.2 322.1 210.1 322.3"/>
    <g>
      <path class="st1" d="M198.3,290.6c1.7-2.6,2.6-5.3,2.8-6.2,0-.2,0-.3,0-.3h.2c0,0-.9,3.5-3,6.6,0,0,0,0,0-.1h0Z"/>
      <path class="st1" d="M203.7,307.4c-3.1-6.7-4.6-13.7-5-16,0-.5-.1-.7-.1-.7l-.3.2s1.6,8.8,5.3,16.8c0-.1,0-.2.1-.3h0Z"/>
      <path class="st1" d="M230.1,290.9c-1.6-3-2.4-6-2.6-7,0-.2,0-.3,0-.3h-.2c0,0,.8,3.9,2.7,7.5,0,0,0,0,0-.1h0Z"/>
      <path class="st1" d="M226.6,306.4c1.9-6.3,2.9-12.9,3.1-14.9,0-.4,0-.7,0-.7l.2.2s-1,8.2-3.3,15.8c0,0,0-.2,0-.3h0s0,0,0,0Z"/>
    </g>
  </g>
  <g>
    <path class="st1" d="M342,277.3c-1.8.2-3.3-.9-3.5-2.4-.2-1.5,1.1-2.9,2.9-3.1s3.3.9,3.5,2.4-1.1,2.9-2.9,3.1Z"/>
    <rect class="st1" x="347.2" y="279.3" width="1.5" height="4.2"/>
    <path class="st1" d="M348.6,280c-3.3.4-6.2-1.6-6.5-4.4s2.1-5.4,5.4-5.7c3.3-.4,6.2,1.6,6.5,4.4s-2.1,5.4-5.4,5.7Z"/>
    <polygon class="st1" points="347.8 303.6 360.3 324.8 334 325.2 347.8 303.6"/>
    <polygon class="st1" points="347.8 304.4 360.3 283.2 335 283.8 347.8 304.4"/>
    <polygon class="st1" points="353 322.2 358.9 333.1 351.6 348.1 354.1 350.9 355.2 350.9 353.1 347.7 360.1 333.1 353.9 321.9 353 322.2"/>
    <polygon class="st1" points="342.4 322.3 336.5 333.3 343.8 348.3 341.3 351 340.2 351 342.3 347.9 335.3 333.3 341.5 322.1 342.4 322.3"/>
    <g>
      <path class="st1" d="M331.5,290.3c1.7-2.6,2.6-5.3,2.8-6.2,0-.2,0-.3,0-.3h.2c0,0-.9,3.5-3,6.6,0,0,0,0,0-.1h0Z"/>
      <path class="st1" d="M336.8,307.1c-3.1-6.7-4.6-13.7-5-16,0-.5-.1-.7-.1-.7l-.3.2s1.6,8.8,5.3,16.8c0-.1,0-.2.1-.3h0Z"/>
      <path class="st1" d="M363.2,290.6c-1.6-3-2.4-6-2.6-7,0-.2,0-.3,0-.3h-.2c0,0,.8,3.9,2.7,7.5,0,0,0,0,0-.1h0Z"/>
      <path class="st1" d="M359.7,306.1c1.9-6.3,2.9-12.9,3.1-14.9,0-.4,0-.7,0-.7l.2.2s-1,8.2-3.3,15.8c0,0,0-.2,0-.3h0s0,0,0,0Z"/>
    </g>
  </g>
  <g>
    <rect class="st1" x="301.8" y="279.3" width="1.5" height="4.2"/>
    <path class="st1" d="M303.2,280c-3.3.4-6.2-1.6-6.5-4.4s2.1-5.4,5.4-5.7,6.2,1.6,6.5,4.4-2.1,5.4-5.4,5.7Z"/>
    <polygon class="st1" points="302.4 303.6 314.9 324.8 288.7 325.2 302.4 303.6"/>
    <polygon class="st1" points="302.4 304.4 314.9 283.2 289.6 283.8 302.4 304.4"/>
    <polygon class="st1" points="307.9 322.2 313.9 333.1 306.5 348.1 309.1 350.9 310.2 350.9 308.1 347.7 315 333.1 308.8 321.9 307.9 322.2"/>
    <polygon class="st1" points="298 322.3 292.1 333.3 299.4 348.3 296.9 351 295.8 351 297.9 347.9 290.9 333.3 297.1 322.1 298 322.3"/>
    <g>
      <path class="st1" d="M286.3,290.6c1.7-2.6,2.6-5.3,2.8-6.2,0-.2,0-.3,0-.3h.2c0,0-.9,3.5-3,6.6,0,0,0,0,0-.1h0Z"/>
      <path class="st1" d="M291.6,307.4c-3.1-6.7-4.6-13.7-5-16,0-.5-.1-.7-.1-.7l-.3.2s1.6,8.8,5.3,16.8c0-.1,0-.2.1-.3h0Z"/>
      <path class="st1" d="M318,290.9c-1.6-3-2.4-6-2.6-7,0-.2,0-.3,0-.3h-.2c0,0,.8,3.9,2.7,7.5,0,0,0,0,0-.1h0Z"/>
      <path class="st1" d="M314.6,306.4c1.9-6.3,2.9-12.9,3.1-14.9,0-.4,0-.7,0-.7l.2.2s-1,8.2-3.3,15.8c0,0,0-.2,0-.3h0s0,0,0,0Z"/>
    </g>
  </g>
  <g>
    <path class="st1" d="M429.3,277.3c-1.8.2-3.3-.9-3.5-2.4-.2-1.5,1.1-2.9,2.9-3.1s3.3.9,3.5,2.4-1.1,2.9-2.9,3.1Z"/>
    <rect class="st1" x="434.6" y="279.3" width="1.5" height="4.2"/>
    <path class="st1" d="M436,280c-3.3.4-6.2-1.6-6.5-4.4s2.1-5.4,5.4-5.7c3.3-.4,6.2,1.6,6.5,4.4s-2.1,5.4-5.4,5.7Z"/>
    <polygon class="st1" points="435.2 303.6 447.7 324.8 421.4 325.2 435.2 303.6"/>
    <polygon class="st1" points="435.2 304.4 447.7 283.2 422.4 283.8 435.2 304.4"/>
    <polygon class="st1" points="440.4 322.2 446.3 333.1 439 348.1 441.5 350.9 442.6 350.9 440.5 347.7 447.5 333.1 441.3 321.9 440.4 322.2"/>
    <polygon class="st1" points="429.8 322.3 423.9 333.3 431.2 348.3 428.7 351 427.5 351 429.7 347.9 422.7 333.3 428.9 322.1 429.8 322.3"/>
    <g>
      <path class="st1" d="M418.9,290.3c1.7-2.6,2.6-5.3,2.8-6.2,0-.2,0-.3,0-.3h.2c0,0-.9,3.5-3,6.6,0,0,0,0,0-.1h0Z"/>
      <path class="st1" d="M424.2,307.1c-3.1-6.7-4.6-13.7-5-16,0-.5-.1-.7-.1-.7l-.3.2s1.6,8.8,5.3,16.8c0-.1,0-.2.1-.3h0Z"/>
      <path class="st1" d="M450.6,290.6c-1.6-3-2.4-6-2.6-7,0-.2,0-.3,0-.3h-.2c0,0,.8,3.9,2.7,7.5,0,0,0,0,0-.1h0Z"/>
      <path class="st1" d="M447.1,306.1c1.9-6.3,2.9-12.9,3.1-14.9,0-.4,0-.7,0-.7l.2.2s-1,8.2-3.3,15.8c0,0,0-.2,0-.3h0s0,0,0,0Z"/>
    </g>
  </g>
  <g>
    <rect class="st1" x="389.2" y="279.3" width="1.5" height="4.2"/>
    <path class="st1" d="M390.6,280c-3.3.4-6.2-1.6-6.5-4.4s2.1-5.4,5.4-5.7,6.2,1.6,6.5,4.4-2.1,5.4-5.4,5.7Z"/>
    <polygon class="st1" points="389.8 303.6 402.3 324.8 376.1 325.2 389.8 303.6"/>
    <polygon class="st1" points="389.8 304.4 402.3 283.2 377 283.8 389.8 304.4"/>
    <polygon class="st1" points="395.3 322.2 401.2 333.1 393.9 348.1 396.5 350.9 397.6 350.9 395.4 347.7 402.4 333.1 396.2 321.9 395.3 322.2"/>
    <polygon class="st1" points="385.4 322.3 379.5 333.3 386.8 348.3 384.2 351 383.1 351 385.3 347.9 378.3 333.3 384.5 322.1 385.4 322.3"/>
    <g>
      <path class="st1" d="M373.7,290.6c1.7-2.6,2.6-5.3,2.8-6.2,0-.2,0-.3,0-.3h.2c0,0-.9,3.5-3,6.6,0,0,0,0,0-.1h0Z"/>
      <path class="st1" d="M379,307.4c-3.1-6.7-4.6-13.7-5-16,0-.5-.1-.7-.1-.7l-.3.2s1.6,8.8,5.3,16.8c0-.1,0-.2.1-.3h0Z"/>
      <path class="st1" d="M405.4,290.9c-1.6-3-2.4-6-2.6-7,0-.2,0-.3,0-.3h-.2c0,0,.8,3.9,2.7,7.5,0,0,0,0,0-.1h0Z"/>
      <path class="st1" d="M401.9,306.4c1.9-6.3,2.9-12.9,3.1-14.9,0-.4,0-.7,0-.7l.2.2s-1,8.2-3.3,15.8c0,0,0-.2,0-.3h0s0,0,0,0Z"/>
    </g>
  </g>
  <g>
    <path class="st1" d="M77.3,381.7c-1.8.2-3.3-.9-3.5-2.4-.2-1.5,1.1-2.9,2.9-3.1s3.3.9,3.5,2.4-1.1,2.9-2.9,3.1Z"/>
    <rect class="st1" x="82.5" y="383.7" width="1.5" height="4.2"/>
    <path class="st1" d="M84,384.4c-3.3.4-6.2-1.6-6.5-4.4s2.1-5.4,5.4-5.7c3.3-.4,6.2,1.6,6.5,4.4s-2.1,5.4-5.4,5.7Z"/>
    <polygon class="st1" points="83.2 408 95.7 429.2 69.4 429.5 83.2 408"/>
    <polygon class="st1" points="83.2 408.8 95.7 387.6 70.4 388.1 83.2 408.8"/>
    <polygon class="st1" points="88.3 426.5 94.3 437.5 86.9 452.5 89.5 455.2 90.6 455.2 88.5 452.1 95.4 437.5 89.2 426.3 88.3 426.5"/>
    <polygon class="st1" points="77.8 426.7 71.8 437.6 79.2 452.6 76.6 455.4 75.5 455.4 77.6 452.3 70.7 437.6 76.9 426.4 77.8 426.7"/>
    <g>
      <path class="st1" d="M66.8,394.7c1.7-2.6,2.6-5.3,2.8-6.2,0-.2,0-.3,0-.3h.2c0,0-.9,3.5-3,6.6,0,0,0,0,0-.1h0Z"/>
      <path class="st1" d="M72.1,411.5c-3.1-6.7-4.6-13.7-5-16,0-.5-.1-.7-.1-.7l-.3.2s1.6,8.8,5.3,16.8c0-.1,0-.2.1-.3h0Z"/>
      <path class="st1" d="M98.6,394.9c-1.6-3-2.4-6-2.6-7,0-.2,0-.3,0-.3h-.2c0,0,.8,3.9,2.7,7.5,0,0,0,0,0-.1h0Z"/>
      <path class="st1" d="M95.1,410.5c1.9-6.3,2.9-12.9,3.1-14.9,0-.4,0-.7,0-.7l.2.2s-1,8.2-3.3,15.8c0,0,0-.2,0-.3h0s0,0,0,0Z"/>
    </g>
  </g>
  <g>
    <rect class="st1" x="37.2" y="383.7" width="1.5" height="4.2"/>
    <path class="st1" d="M38.6,384.4c-3.3.4-6.2-1.6-6.5-4.4s2.1-5.4,5.4-5.7,6.2,1.6,6.5,4.4-2.1,5.4-5.4,5.7Z"/>
    <polygon class="st1" points="37.8 408 50.3 429.2 24 429.5 37.8 408"/>
    <polygon class="st1" points="37.8 408.8 50.3 387.6 25 388.1 37.8 408.8"/>
    <polygon class="st1" points="43.3 426.5 49.2 437.5 41.9 452.5 44.4 455.2 45.5 455.2 43.4 452.1 50.4 437.5 44.2 426.3 43.3 426.5"/>
    <polygon class="st1" points="33.4 426.7 27.4 437.6 34.8 452.6 32.2 455.4 31.1 455.4 33.2 452.3 26.3 437.6 32.5 426.4 33.4 426.7"/>
    <g>
      <path class="st1" d="M21.6,394.9c1.7-2.6,2.6-5.3,2.8-6.2,0-.2,0-.3,0-.3h.2c0,0-.9,3.5-3,6.6,0,0,0,0,0-.1h0Z"/>
      <path class="st1" d="M27,411.7c-3.1-6.7-4.6-13.7-5-16,0-.5-.1-.7-.1-.7l-.3.2s1.6,8.8,5.3,16.8c0-.1,0-.2.1-.3h0Z"/>
      <path class="st1" d="M53.4,395.2c-1.6-3-2.4-6-2.6-7,0-.2,0-.3,0-.3h-.2c0,0,.8,3.9,2.7,7.5,0,0,0,0,0-.1h0Z"/>
      <path class="st1" d="M49.9,410.8c1.9-6.3,2.9-12.9,3.1-14.9,0-.4,0-.7,0-.7l.2.2s-1,8.2-3.3,15.8c0,0,0-.2,0-.3h0s0,0,0,0Z"/>
    </g>
  </g>
  <g>
    <path class="st1" d="M165.2,381.7c-1.8.2-3.3-.9-3.5-2.4-.2-1.5,1.1-2.9,2.9-3.1s3.3.9,3.5,2.4-1.1,2.9-2.9,3.1Z"/>
    <rect class="st1" x="170.5" y="383.7" width="1.5" height="4.2"/>
    <path class="st1" d="M171.9,384.4c-3.3.4-6.2-1.6-6.5-4.4s2.1-5.4,5.4-5.7c3.3-.4,6.2,1.6,6.5,4.4s-2.1,5.4-5.4,5.7Z"/>
    <polygon class="st1" points="171.1 408 183.6 429.2 157.3 429.5 171.1 408"/>
    <polygon class="st1" points="171.1 408.8 183.6 387.6 158.3 388.1 171.1 408.8"/>
    <polygon class="st1" points="176.3 426.5 182.2 437.5 174.9 452.5 177.4 455.2 178.5 455.2 176.4 452.1 183.4 437.5 177.2 426.3 176.3 426.5"/>
    <polygon class="st1" points="165.7 426.7 159.8 437.6 167.1 452.6 164.6 455.4 163.4 455.4 165.6 452.3 158.6 437.6 164.8 426.4 165.7 426.7"/>
    <g>
      <path class="st1" d="M154.7,394.7c1.7-2.6,2.6-5.3,2.8-6.2,0-.2,0-.3,0-.3h.2c0,0-.9,3.5-3,6.6,0,0,0,0,0-.1h0Z"/>
      <path class="st1" d="M160.1,411.5c-3.1-6.7-4.6-13.7-5-16,0-.5-.1-.7-.1-.7l-.3.2s1.6,8.8,5.3,16.8c0-.1,0-.2.1-.3h0Z"/>
      <path class="st1" d="M186.5,394.9c-1.6-3-2.4-6-2.6-7,0-.2,0-.3,0-.3h-.2c0,0,.8,3.9,2.7,7.5,0,0,0,0,0-.1h0Z"/>
      <path class="st1" d="M183,410.5c1.9-6.3,2.9-12.9,3.1-14.9,0-.4,0-.7,0-.7l.2.2s-1,8.2-3.3,15.8c0,0,0-.2,0-.3h0s0,0,0,0Z"/>
    </g>
  </g>
  <g>
    <rect class="st1" x="125.1" y="383.7" width="1.5" height="4.2"/>
    <path class="st1" d="M126.5,384.4c-3.3.4-6.2-1.6-6.5-4.4s2.1-5.4,5.4-5.7,6.2,1.6,6.5,4.4-2.1,5.4-5.4,5.7Z"/>
    <polygon class="st1" points="125.7 408 138.2 429.2 112 429.5 125.7 408"/>
    <polygon class="st1" points="125.7 408.8 138.2 387.6 112.9 388.1 125.7 408.8"/>
    <polygon class="st1" points="131.2 426.5 137.1 437.5 129.8 452.5 132.4 455.2 133.5 455.2 131.3 452.1 138.3 437.5 132.1 426.3 131.2 426.5"/>
    <polygon class="st1" points="121.3 426.7 115.4 437.6 122.7 452.6 120.1 455.4 119 455.4 121.2 452.3 114.2 437.6 120.4 426.4 121.3 426.7"/>
    <g>
      <path class="st1" d="M109.6,394.9c1.7-2.6,2.6-5.3,2.8-6.2,0-.2,0-.3,0-.3h.2c0,0-.9,3.5-3,6.6,0,0,0,0,0-.1h0Z"/>
      <path class="st1" d="M114.9,411.7c-3.1-6.7-4.6-13.7-5-16,0-.5-.1-.7-.1-.7l-.3.2s1.6,8.8,5.3,16.8c0-.1,0-.2.1-.3h0Z"/>
      <path class="st1" d="M141.3,395.2c-1.6-3-2.4-6-2.6-7,0-.2,0-.3,0-.3h-.2c0,0,.8,3.9,2.7,7.5,0,0,0,0,0-.1h0Z"/>
      <path class="st1" d="M137.8,410.8c1.9-6.3,2.9-12.9,3.1-14.9,0-.4,0-.7,0-.7l.2.2s-1,8.2-3.3,15.8c0,0,0-.2,0-.3h0s0,0,0,0Z"/>
    </g>
  </g>
  <g>
    <path class="st1" d="M254,381.7c-1.8.2-3.3-.9-3.5-2.4-.2-1.5,1.1-2.9,2.9-3.1s3.3.9,3.5,2.4-1.1,2.9-2.9,3.1Z"/>
    <rect class="st1" x="259.3" y="383.7" width="1.5" height="4.2"/>
    <path class="st1" d="M260.7,384.4c-3.3.4-6.2-1.6-6.5-4.4s2.1-5.4,5.4-5.7c3.3-.4,6.2,1.6,6.5,4.4s-2.1,5.4-5.4,5.7Z"/>
    <polygon class="st1" points="259.9 408 272.4 429.2 246.1 429.5 259.9 408"/>
    <polygon class="st1" points="259.9 408.8 272.4 387.6 247.1 388.1 259.9 408.8"/>
    <polygon class="st1" points="265 426.5 271 437.5 263.6 452.5 266.2 455.2 267.3 455.2 265.2 452.1 272.2 437.5 266 426.3 265 426.5"/>
    <polygon class="st1" points="254.5 426.7 248.6 437.6 255.9 452.6 253.3 455.4 252.2 455.4 254.4 452.3 247.4 437.6 253.6 426.4 254.5 426.7"/>
    <g>
      <path class="st1" d="M243.5,394.7c1.7-2.6,2.6-5.3,2.8-6.2,0-.2,0-.3,0-.3h.2c0,0-.9,3.5-3,6.6,0,0,0,0,0-.1h0Z"/>
      <path class="st1" d="M248.9,411.5c-3.1-6.7-4.6-13.7-5-16,0-.5-.1-.7-.1-.7l-.3.2s1.6,8.8,5.3,16.8c0-.1,0-.2.1-.3h0Z"/>
      <path class="st1" d="M275.3,394.9c-1.6-3-2.4-6-2.6-7,0-.2,0-.3,0-.3h-.2c0,0,.8,3.9,2.7,7.5,0,0,0,0,0-.1h0Z"/>
      <path class="st1" d="M271.8,410.5c1.9-6.3,2.9-12.9,3.1-14.9,0-.4,0-.7,0-.7l.2.2s-1,8.2-3.3,15.8c0,0,0-.2,0-.3h0s0,0,0,0Z"/>
    </g>
  </g>
  <g>
    <rect class="st1" x="213.9" y="383.7" width="1.5" height="4.2"/>
    <path class="st1" d="M215.3,384.4c-3.3.4-6.2-1.6-6.5-4.4s2.1-5.4,5.4-5.7,6.2,1.6,6.5,4.4-2.1,5.4-5.4,5.7Z"/>
    <polygon class="st1" points="214.5 408 227 429.2 200.7 429.5 214.5 408"/>
    <polygon class="st1" points="214.5 408.8 227 387.6 201.7 388.1 214.5 408.8"/>
    <polygon class="st1" points="220 426.5 225.9 437.5 218.6 452.5 221.1 455.2 222.3 455.2 220.1 452.1 227.1 437.5 220.9 426.3 220 426.5"/>
    <polygon class="st1" points="210.1 426.7 204.1 437.6 211.5 452.6 208.9 455.4 207.8 455.4 209.9 452.3 203 437.6 209.2 426.4 210.1 426.7"/>
    <g>
      <path class="st1" d="M198.3,394.9c1.7-2.6,2.6-5.3,2.8-6.2,0-.2,0-.3,0-.3h.2c0,0-.9,3.5-3,6.6,0,0,0,0,0-.1h0Z"/>
      <path class="st1" d="M203.7,411.7c-3.1-6.7-4.6-13.7-5-16,0-.5-.1-.7-.1-.7l-.3.2s1.6,8.8,5.3,16.8c0-.1,0-.2.1-.3h0Z"/>
      <path class="st1" d="M230.1,395.2c-1.6-3-2.4-6-2.6-7,0-.2,0-.3,0-.3h-.2c0,0,.8,3.9,2.7,7.5,0,0,0,0,0-.1h0Z"/>
      <path class="st1" d="M226.6,410.8c1.9-6.3,2.9-12.9,3.1-14.9,0-.4,0-.7,0-.7l.2.2s-1,8.2-3.3,15.8c0,0,0-.2,0-.3h0s0,0,0,0Z"/>
    </g>
  </g>
  <g>
    <path class="st1" d="M342,381.7c-1.8.2-3.3-.9-3.5-2.4-.2-1.5,1.1-2.9,2.9-3.1s3.3.9,3.5,2.4-1.1,2.9-2.9,3.1Z"/>
    <rect class="st1" x="347.2" y="383.7" width="1.5" height="4.2"/>
    <path class="st1" d="M348.6,384.4c-3.3.4-6.2-1.6-6.5-4.4s2.1-5.4,5.4-5.7c3.3-.4,6.2,1.6,6.5,4.4s-2.1,5.4-5.4,5.7Z"/>
    <polygon class="st1" points="347.8 408 360.3 429.2 334 429.5 347.8 408"/>
    <polygon class="st1" points="347.8 408.8 360.3 387.6 335 388.1 347.8 408.8"/>
    <polygon class="st1" points="353 426.5 358.9 437.5 351.6 452.5 354.1 455.2 355.2 455.2 353.1 452.1 360.1 437.5 353.9 426.3 353 426.5"/>
    <polygon class="st1" points="342.4 426.7 336.5 437.6 343.8 452.6 341.3 455.4 340.2 455.4 342.3 452.3 335.3 437.6 341.5 426.4 342.4 426.7"/>
    <g>
      <path class="st1" d="M331.5,394.7c1.7-2.6,2.6-5.3,2.8-6.2,0-.2,0-.3,0-.3h.2c0,0-.9,3.5-3,6.6,0,0,0,0,0-.1h0Z"/>
      <path class="st1" d="M336.8,411.5c-3.1-6.7-4.6-13.7-5-16,0-.5-.1-.7-.1-.7l-.3.2s1.6,8.8,5.3,16.8c0-.1,0-.2.1-.3h0Z"/>
      <path class="st1" d="M363.2,394.9c-1.6-3-2.4-6-2.6-7,0-.2,0-.3,0-.3h-.2c0,0,.8,3.9,2.7,7.5,0,0,0,0,0-.1h0Z"/>
      <path class="st1" d="M359.7,410.5c1.9-6.3,2.9-12.9,3.1-14.9,0-.4,0-.7,0-.7l.2.2s-1,8.2-3.3,15.8c0,0,0-.2,0-.3h0s0,0,0,0Z"/>
    </g>
  </g>
  <g>
    <rect class="st1" x="301.8" y="383.7" width="1.5" height="4.2"/>
    <path class="st1" d="M303.2,384.4c-3.3.4-6.2-1.6-6.5-4.4s2.1-5.4,5.4-5.7,6.2,1.6,6.5,4.4-2.1,5.4-5.4,5.7Z"/>
    <polygon class="st1" points="302.4 408 314.9 429.2 288.7 429.5 302.4 408"/>
    <polygon class="st1" points="302.4 408.8 314.9 387.6 289.6 388.1 302.4 408.8"/>
    <polygon class="st1" points="307.9 426.5 313.9 437.5 306.5 452.5 309.1 455.2 310.2 455.2 308.1 452.1 315 437.5 308.8 426.3 307.9 426.5"/>
    <polygon class="st1" points="298 426.7 292.1 437.6 299.4 452.6 296.9 455.4 295.8 455.4 297.9 452.3 290.9 437.6 297.1 426.4 298 426.7"/>
    <g>
      <path class="st1" d="M286.3,394.9c1.7-2.6,2.6-5.3,2.8-6.2,0-.2,0-.3,0-.3h.2c0,0-.9,3.5-3,6.6,0,0,0,0,0-.1h0Z"/>
      <path class="st1" d="M291.6,411.7c-3.1-6.7-4.6-13.7-5-16,0-.5-.1-.7-.1-.7l-.3.2s1.6,8.8,5.3,16.8c0-.1,0-.2.1-.3h0Z"/>
      <path class="st1" d="M318,395.2c-1.6-3-2.4-6-2.6-7,0-.2,0-.3,0-.3h-.2c0,0,.8,3.9,2.7,7.5,0,0,0,0,0-.1h0Z"/>
      <path class="st1" d="M314.6,410.8c1.9-6.3,2.9-12.9,3.1-14.9,0-.4,0-.7,0-.7l.2.2s-1,8.2-3.3,15.8c0,0,0-.2,0-.3h0s0,0,0,0Z"/>
    </g>
  </g>
  <g>
    <path class="st1" d="M429.3,381.7c-1.8.2-3.3-.9-3.5-2.4-.2-1.5,1.1-2.9,2.9-3.1s3.3.9,3.5,2.4-1.1,2.9-2.9,3.1Z"/>
    <rect class="st1" x="434.6" y="383.7" width="1.5" height="4.2"/>
    <path class="st1" d="M436,384.4c-3.3.4-6.2-1.6-6.5-4.4s2.1-5.4,5.4-5.7c3.3-.4,6.2,1.6,6.5,4.4s-2.1,5.4-5.4,5.7Z"/>
    <polygon class="st1" points="435.2 408 447.7 429.2 421.4 429.5 435.2 408"/>
    <polygon class="st1" points="435.2 408.8 447.7 387.6 422.4 388.1 435.2 408.8"/>
    <polygon class="st1" points="440.4 426.5 446.3 437.5 439 452.5 441.5 455.2 442.6 455.2 440.5 452.1 447.5 437.5 441.3 426.3 440.4 426.5"/>
    <polygon class="st1" points="429.8 426.7 423.9 437.6 431.2 452.6 428.7 455.4 427.5 455.4 429.7 452.3 422.7 437.6 428.9 426.4 429.8 426.7"/>
    <g>
      <path class="st1" d="M418.9,394.7c1.7-2.6,2.6-5.3,2.8-6.2,0-.2,0-.3,0-.3h.2c0,0-.9,3.5-3,6.6,0,0,0,0,0-.1h0Z"/>
      <path class="st1" d="M424.2,411.5c-3.1-6.7-4.6-13.7-5-16,0-.5-.1-.7-.1-.7l-.3.2s1.6,8.8,5.3,16.8c0-.1,0-.2.1-.3h0Z"/>
      <path class="st1" d="M450.6,394.9c-1.6-3-2.4-6-2.6-7,0-.2,0-.3,0-.3h-.2c0,0,.8,3.9,2.7,7.5,0,0,0,0,0-.1h0Z"/>
      <path class="st1" d="M447.1,410.5c1.9-6.3,2.9-12.9,3.1-14.9,0-.4,0-.7,0-.7l.2.2s-1,8.2-3.3,15.8c0,0,0-.2,0-.3h0s0,0,0,0Z"/>
    </g>
  </g>
  <g>
    <rect class="st1" x="389.2" y="383.7" width="1.5" height="4.2"/>
    <path class="st1" d="M390.6,384.4c-3.3.4-6.2-1.6-6.5-4.4s2.1-5.4,5.4-5.7,6.2,1.6,6.5,4.4-2.1,5.4-5.4,5.7Z"/>
    <polygon class="st1" points="389.8 408 402.3 429.2 376.1 429.5 389.8 408"/>
    <polygon class="st1" points="389.8 408.8 402.3 387.6 377 388.1 389.8 408.8"/>
    <polygon class="st1" points="395.3 426.5 401.2 437.5 393.9 452.5 396.5 455.2 397.6 455.2 395.4 452.1 402.4 437.5 396.2 426.3 395.3 426.5"/>
    <polygon class="st1" points="385.4 426.7 379.5 437.6 386.8 452.6 384.2 455.4 383.1 455.4 385.3 452.3 378.3 437.6 384.5 426.4 385.4 426.7"/>
    <g>
      <path class="st1" d="M373.7,394.9c1.7-2.6,2.6-5.3,2.8-6.2,0-.2,0-.3,0-.3h.2c0,0-.9,3.5-3,6.6,0,0,0,0,0-.1h0Z"/>
      <path class="st1" d="M379,411.7c-3.1-6.7-4.6-13.7-5-16,0-.5-.1-.7-.1-.7l-.3.2s1.6,8.8,5.3,16.8c0-.1,0-.2.1-.3h0Z"/>
      <path class="st1" d="M405.4,395.2c-1.6-3-2.4-6-2.6-7,0-.2,0-.3,0-.3h-.2c0,0,.8,3.9,2.7,7.5,0,0,0,0,0-.1h0Z"/>
      <path class="st1" d="M401.9,410.8c1.9-6.3,2.9-12.9,3.1-14.9,0-.4,0-.7,0-.7l.2.2s-1,8.2-3.3,15.8c0,0,0-.2,0-.3h0s0,0,0,0Z"/>
    </g>
  </g>
  <g>
    <g>
      <path class="st1" d="M77.3,487.8c-1.8.2-3.3-.9-3.5-2.4-.2-1.5,1.1-2.9,2.9-3.1s3.3.9,3.5,2.4-1.1,2.9-2.9,3.1Z"/>
      <rect class="st1" x="82.5" y="489.8" width="1.5" height="4.2"/>
      <path class="st1" d="M84,490.5c-3.3.4-6.2-1.6-6.5-4.4s2.1-5.4,5.4-5.7c3.3-.4,6.2,1.6,6.5,4.4s-2.1,5.4-5.4,5.7Z"/>
      <polygon class="st1" points="83.2 514.1 95.7 535.3 69.4 535.6 83.2 514.1"/>
      <polygon class="st1" points="83.2 514.9 95.7 493.7 70.4 494.3 83.2 514.9"/>
      <polygon class="st1" points="88.3 532.7 94.3 543.6 86.9 558.6 89.5 561.3 90.6 561.3 88.5 558.2 95.4 543.6 89.2 532.4 88.3 532.7"/>
      <polygon class="st1" points="77.8 532.8 71.8 543.7 79.2 558.8 76.6 561.5 75.5 561.5 77.6 558.4 70.7 543.7 76.9 532.6 77.8 532.8"/>
      <g>
        <path class="st1" d="M66.8,500.8c1.7-2.6,2.6-5.3,2.8-6.2,0-.2,0-.3,0-.3h.2c0,0-.9,3.5-3,6.6,0,0,0,0,0-.1h0Z"/>
        <path class="st1" d="M72.1,517.6c-3.1-6.7-4.6-13.7-5-16,0-.5-.1-.7-.1-.7l-.3.2s1.6,8.8,5.3,16.8c0-.1,0-.2.1-.3h0Z"/>
        <path class="st1" d="M98.6,501c-1.6-3-2.4-6-2.6-7,0-.2,0-.3,0-.3h-.2c0,0,.8,3.9,2.7,7.5,0,0,0,0,0-.1h0Z"/>
        <path class="st1" d="M95.1,516.6c1.9-6.3,2.9-12.9,3.1-14.9,0-.4,0-.7,0-.7l.2.2s-1,8.2-3.3,15.8c0,0,0-.2,0-.3h0s0,0,0,0Z"/>
      </g>
    </g>
    <g>
      <rect class="st1" x="37.2" y="489.8" width="1.5" height="4.2"/>
      <path class="st1" d="M38.6,490.5c-3.3.4-6.2-1.6-6.5-4.4s2.1-5.4,5.4-5.7,6.2,1.6,6.5,4.4-2.1,5.4-5.4,5.7Z"/>
      <polygon class="st1" points="37.8 514.1 50.3 535.3 24 535.6 37.8 514.1"/>
      <polygon class="st1" points="37.8 514.9 50.3 493.7 25 494.3 37.8 514.9"/>
      <polygon class="st1" points="43.3 532.7 49.2 543.6 41.9 558.6 44.4 561.3 45.5 561.3 43.4 558.2 50.4 543.6 44.2 532.4 43.3 532.7"/>
      <polygon class="st1" points="33.4 532.8 27.4 543.7 34.8 558.8 32.2 561.5 31.1 561.5 33.2 558.4 26.3 543.7 32.5 532.6 33.4 532.8"/>
      <g>
        <path class="st1" d="M21.6,501.1c1.7-2.6,2.6-5.3,2.8-6.2,0-.2,0-.3,0-.3h.2c0,0-.9,3.5-3,6.6,0,0,0,0,0-.1h0Z"/>
        <path class="st1" d="M27,517.9c-3.1-6.7-4.6-13.7-5-16,0-.5-.1-.7-.1-.7l-.3.2s1.6,8.8,5.3,16.8c0-.1,0-.2.1-.3h0Z"/>
        <path class="st1" d="M53.4,501.3c-1.6-3-2.4-6-2.6-7,0-.2,0-.3,0-.3h-.2c0,0,.8,3.9,2.7,7.5,0,0,0,0,0-.1h0Z"/>
        <path class="st1" d="M49.9,516.9c1.9-6.3,2.9-12.9,3.1-14.9,0-.4,0-.7,0-.7l.2.2s-1,8.2-3.3,15.8c0,0,0-.2,0-.3h0s0,0,0,0Z"/>
      </g>
    </g>
    <g>
      <path class="st1" d="M165.2,487.8c-1.8.2-3.3-.9-3.5-2.4-.2-1.5,1.1-2.9,2.9-3.1s3.3.9,3.5,2.4-1.1,2.9-2.9,3.1Z"/>
      <rect class="st1" x="170.5" y="489.8" width="1.5" height="4.2"/>
      <path class="st1" d="M171.9,490.5c-3.3.4-6.2-1.6-6.5-4.4s2.1-5.4,5.4-5.7c3.3-.4,6.2,1.6,6.5,4.4s-2.1,5.4-5.4,5.7Z"/>
      <polygon class="st1" points="171.1 514.1 183.6 535.3 157.3 535.6 171.1 514.1"/>
      <polygon class="st1" points="171.1 514.9 183.6 493.7 158.3 494.3 171.1 514.9"/>
      <polygon class="st1" points="176.3 532.7 182.2 543.6 174.9 558.6 177.4 561.3 178.5 561.3 176.4 558.2 183.4 543.6 177.2 532.4 176.3 532.7"/>
      <polygon class="st1" points="165.7 532.8 159.8 543.7 167.1 558.8 164.6 561.5 163.4 561.5 165.6 558.4 158.6 543.7 164.8 532.6 165.7 532.8"/>
      <g>
        <path class="st1" d="M154.7,500.8c1.7-2.6,2.6-5.3,2.8-6.2,0-.2,0-.3,0-.3h.2c0,0-.9,3.5-3,6.6,0,0,0,0,0-.1h0Z"/>
        <path class="st1" d="M160.1,517.6c-3.1-6.7-4.6-13.7-5-16,0-.5-.1-.7-.1-.7l-.3.2s1.6,8.8,5.3,16.8c0-.1,0-.2.1-.3h0Z"/>
        <path class="st1" d="M186.5,501c-1.6-3-2.4-6-2.6-7,0-.2,0-.3,0-.3h-.2c0,0,.8,3.9,2.7,7.5,0,0,0,0,0-.1h0Z"/>
        <path class="st1" d="M183,516.6c1.9-6.3,2.9-12.9,3.1-14.9,0-.4,0-.7,0-.7l.2.2s-1,8.2-3.3,15.8c0,0,0-.2,0-.3h0s0,0,0,0Z"/>
      </g>
    </g>
    <g>
      <rect class="st1" x="125.1" y="489.8" width="1.5" height="4.2"/>
      <path class="st1" d="M126.5,490.5c-3.3.4-6.2-1.6-6.5-4.4s2.1-5.4,5.4-5.7,6.2,1.6,6.5,4.4-2.1,5.4-5.4,5.7Z"/>
      <polygon class="st1" points="125.7 514.1 138.2 535.3 112 535.6 125.7 514.1"/>
      <polygon class="st1" points="125.7 514.9 138.2 493.7 112.9 494.3 125.7 514.9"/>
      <polygon class="st1" points="131.2 532.7 137.1 543.6 129.8 558.6 132.4 561.3 133.5 561.3 131.3 558.2 138.3 543.6 132.1 532.4 131.2 532.7"/>
      <polygon class="st1" points="121.3 532.8 115.4 543.7 122.7 558.8 120.1 561.5 119 561.5 121.2 558.4 114.2 543.7 120.4 532.6 121.3 532.8"/>
      <g>
        <path class="st1" d="M109.6,501.1c1.7-2.6,2.6-5.3,2.8-6.2,0-.2,0-.3,0-.3h.2c0,0-.9,3.5-3,6.6,0,0,0,0,0-.1h0Z"/>
        <path class="st1" d="M114.9,517.9c-3.1-6.7-4.6-13.7-5-16,0-.5-.1-.7-.1-.7l-.3.2s1.6,8.8,5.3,16.8c0-.1,0-.2.1-.3h0Z"/>
        <path class="st1" d="M141.3,501.3c-1.6-3-2.4-6-2.6-7,0-.2,0-.3,0-.3h-.2c0,0,.8,3.9,2.7,7.5,0,0,0,0,0-.1h0Z"/>
        <path class="st1" d="M137.8,516.9c1.9-6.3,2.9-12.9,3.1-14.9,0-.4,0-.7,0-.7l.2.2s-1,8.2-3.3,15.8c0,0,0-.2,0-.3h0s0,0,0,0Z"/>
      </g>
    </g>
    <g>
      <path class="st1" d="M254,487.8c-1.8.2-3.3-.9-3.5-2.4-.2-1.5,1.1-2.9,2.9-3.1s3.3.9,3.5,2.4-1.1,2.9-2.9,3.1Z"/>
      <rect class="st1" x="259.3" y="489.8" width="1.5" height="4.2"/>
      <path class="st1" d="M260.7,490.5c-3.3.4-6.2-1.6-6.5-4.4s2.1-5.4,5.4-5.7c3.3-.4,6.2,1.6,6.5,4.4s-2.1,5.4-5.4,5.7Z"/>
      <polygon class="st1" points="259.9 514.1 272.4 535.3 246.1 535.6 259.9 514.1"/>
      <polygon class="st1" points="259.9 514.9 272.4 493.7 247.1 494.3 259.9 514.9"/>
      <polygon class="st1" points="265 532.7 271 543.6 263.6 558.6 266.2 561.3 267.3 561.3 265.2 558.2 272.2 543.6 266 532.4 265 532.7"/>
      <polygon class="st1" points="254.5 532.8 248.6 543.7 255.9 558.8 253.3 561.5 252.2 561.5 254.4 558.4 247.4 543.7 253.6 532.6 254.5 532.8"/>
      <g>
        <path class="st1" d="M243.5,500.8c1.7-2.6,2.6-5.3,2.8-6.2,0-.2,0-.3,0-.3h.2c0,0-.9,3.5-3,6.6,0,0,0,0,0-.1h0Z"/>
        <path class="st1" d="M248.9,517.6c-3.1-6.7-4.6-13.7-5-16,0-.5-.1-.7-.1-.7l-.3.2s1.6,8.8,5.3,16.8c0-.1,0-.2.1-.3h0Z"/>
        <path class="st1" d="M275.3,501c-1.6-3-2.4-6-2.6-7,0-.2,0-.3,0-.3h-.2c0,0,.8,3.9,2.7,7.5,0,0,0,0,0-.1h0Z"/>
        <path class="st1" d="M271.8,516.6c1.9-6.3,2.9-12.9,3.1-14.9,0-.4,0-.7,0-.7l.2.2s-1,8.2-3.3,15.8c0,0,0-.2,0-.3h0s0,0,0,0Z"/>
      </g>
    </g>
    <g>
      <rect class="st1" x="213.9" y="489.8" width="1.5" height="4.2"/>
      <path class="st1" d="M215.3,490.5c-3.3.4-6.2-1.6-6.5-4.4s2.1-5.4,5.4-5.7,6.2,1.6,6.5,4.4-2.1,5.4-5.4,5.7Z"/>
      <polygon class="st1" points="214.5 514.1 227 535.3 200.7 535.6 214.5 514.1"/>
      <polygon class="st1" points="214.5 514.9 227 493.7 201.7 494.3 214.5 514.9"/>
      <polygon class="st1" points="220 532.7 225.9 543.6 218.6 558.6 221.1 561.3 222.3 561.3 220.1 558.2 227.1 543.6 220.9 532.4 220 532.7"/>
      <polygon class="st1" points="210.1 532.8 204.1 543.7 211.5 558.8 208.9 561.5 207.8 561.5 209.9 558.4 203 543.7 209.2 532.6 210.1 532.8"/>
      <g>
        <path class="st1" d="M198.3,501.1c1.7-2.6,2.6-5.3,2.8-6.2,0-.2,0-.3,0-.3h.2c0,0-.9,3.5-3,6.6,0,0,0,0,0-.1h0Z"/>
        <path class="st1" d="M203.7,517.9c-3.1-6.7-4.6-13.7-5-16,0-.5-.1-.7-.1-.7l-.3.2s1.6,8.8,5.3,16.8c0-.1,0-.2.1-.3h0Z"/>
        <path class="st1" d="M230.1,501.3c-1.6-3-2.4-6-2.6-7,0-.2,0-.3,0-.3h-.2c0,0,.8,3.9,2.7,7.5,0,0,0,0,0-.1h0Z"/>
        <path class="st1" d="M226.6,516.9c1.9-6.3,2.9-12.9,3.1-14.9,0-.4,0-.7,0-.7l.2.2s-1,8.2-3.3,15.8c0,0,0-.2,0-.3h0s0,0,0,0Z"/>
      </g>
    </g>
    <g>
      <path class="st1" d="M342,487.8c-1.8.2-3.3-.9-3.5-2.4-.2-1.5,1.1-2.9,2.9-3.1s3.3.9,3.5,2.4-1.1,2.9-2.9,3.1Z"/>
      <rect class="st1" x="347.2" y="489.8" width="1.5" height="4.2"/>
      <path class="st1" d="M348.6,490.5c-3.3.4-6.2-1.6-6.5-4.4s2.1-5.4,5.4-5.7c3.3-.4,6.2,1.6,6.5,4.4s-2.1,5.4-5.4,5.7Z"/>
      <polygon class="st1" points="347.8 514.1 360.3 535.3 334 535.6 347.8 514.1"/>
      <polygon class="st1" points="347.8 514.9 360.3 493.7 335 494.3 347.8 514.9"/>
      <polygon class="st1" points="353 532.7 358.9 543.6 351.6 558.6 354.1 561.3 355.2 561.3 353.1 558.2 360.1 543.6 353.9 532.4 353 532.7"/>
      <polygon class="st1" points="342.4 532.8 336.5 543.7 343.8 558.8 341.3 561.5 340.2 561.5 342.3 558.4 335.3 543.7 341.5 532.6 342.4 532.8"/>
      <g>
        <path class="st1" d="M331.5,500.8c1.7-2.6,2.6-5.3,2.8-6.2,0-.2,0-.3,0-.3h.2c0,0-.9,3.5-3,6.6,0,0,0,0,0-.1h0Z"/>
        <path class="st1" d="M336.8,517.6c-3.1-6.7-4.6-13.7-5-16,0-.5-.1-.7-.1-.7l-.3.2s1.6,8.8,5.3,16.8c0-.1,0-.2.1-.3h0Z"/>
        <path class="st1" d="M363.2,501c-1.6-3-2.4-6-2.6-7,0-.2,0-.3,0-.3h-.2c0,0,.8,3.9,2.7,7.5,0,0,0,0,0-.1h0Z"/>
        <path class="st1" d="M359.7,516.6c1.9-6.3,2.9-12.9,3.1-14.9,0-.4,0-.7,0-.7l.2.2s-1,8.2-3.3,15.8c0,0,0-.2,0-.3h0s0,0,0,0Z"/>
      </g>
    </g>
    <g>
      <rect class="st1" x="301.8" y="489.8" width="1.5" height="4.2"/>
      <path class="st1" d="M303.2,490.5c-3.3.4-6.2-1.6-6.5-4.4s2.1-5.4,5.4-5.7,6.2,1.6,6.5,4.4-2.1,5.4-5.4,5.7Z"/>
      <polygon class="st1" points="302.4 514.1 314.9 535.3 288.7 535.6 302.4 514.1"/>
      <polygon class="st1" points="302.4 514.9 314.9 493.7 289.6 494.3 302.4 514.9"/>
      <polygon class="st1" points="307.9 532.7 313.9 543.6 306.5 558.6 309.1 561.3 310.2 561.3 308.1 558.2 315 543.6 308.8 532.4 307.9 532.7"/>
      <polygon class="st1" points="298 532.8 292.1 543.7 299.4 558.8 296.9 561.5 295.8 561.5 297.9 558.4 290.9 543.7 297.1 532.6 298 532.8"/>
      <g>
        <path class="st1" d="M286.3,501.1c1.7-2.6,2.6-5.3,2.8-6.2,0-.2,0-.3,0-.3h.2c0,0-.9,3.5-3,6.6,0,0,0,0,0-.1h0Z"/>
        <path class="st1" d="M291.6,517.9c-3.1-6.7-4.6-13.7-5-16,0-.5-.1-.7-.1-.7l-.3.2s1.6,8.8,5.3,16.8c0-.1,0-.2.1-.3h0Z"/>
        <path class="st1" d="M318,501.3c-1.6-3-2.4-6-2.6-7,0-.2,0-.3,0-.3h-.2c0,0,.8,3.9,2.7,7.5,0,0,0,0,0-.1h0Z"/>
        <path class="st1" d="M314.6,516.9c1.9-6.3,2.9-12.9,3.1-14.9,0-.4,0-.7,0-.7l.2.2s-1,8.2-3.3,15.8c0,0,0-.2,0-.3h0s0,0,0,0Z"/>
      </g>
    </g>
    <g>
      <path class="st1" d="M429.3,487.4c-1.8.2-3.3-.9-3.5-2.4-.2-1.5,1.1-2.9,2.9-3.1s3.3.9,3.5,2.4-1.1,2.9-2.9,3.1Z"/>
      <rect class="st1" x="434.6" y="489.4" width="1.5" height="4.2"/>
      <path class="st1" d="M436,490.1c-3.3.4-6.2-1.6-6.5-4.4s2.1-5.4,5.4-5.7c3.3-.4,6.2,1.6,6.5,4.4s-2.1,5.4-5.4,5.7Z"/>
      <polygon class="st1" points="435.2 513.7 447.7 534.9 421.4 535.2 435.2 513.7"/>
      <polygon class="st1" points="435.2 514.4 447.7 493.2 422.4 493.8 435.2 514.4"/>
      <polygon class="st1" points="440.4 532.2 446.3 543.2 439 558.2 441.5 560.9 442.6 560.9 440.5 557.8 447.5 543.2 441.3 532 440.4 532.2"/>
      <polygon class="st1" points="429.8 532.4 423.9 543.3 431.2 558.3 428.7 561.1 427.5 561.1 429.7 558 422.7 543.3 428.9 532.1 429.8 532.4"/>
      <g>
        <path class="st1" d="M418.9,500.4c1.7-2.6,2.6-5.3,2.8-6.2,0-.2,0-.3,0-.3h.2c0,0-.9,3.5-3,6.6,0,0,0,0,0-.1h0Z"/>
        <path class="st1" d="M424.2,517.2c-3.1-6.7-4.6-13.7-5-16,0-.5-.1-.7-.1-.7l-.3.2s1.6,8.8,5.3,16.8c0-.1,0-.2.1-.3h0Z"/>
        <path class="st1" d="M450.6,500.6c-1.6-3-2.4-6-2.6-7,0-.2,0-.3,0-.3h-.2c0,0,.8,3.9,2.7,7.5,0,0,0,0,0-.1h0Z"/>
        <path class="st1" d="M447.1,516.2c1.9-6.3,2.9-12.9,3.1-14.9,0-.4,0-.7,0-.7l.2.2s-1,8.2-3.3,15.8c0,0,0-.2,0-.3h0s0,0,0,0Z"/>
      </g>
    </g>
    <g>
      <rect class="st1" x="389.2" y="489.8" width="1.5" height="4.2"/>
      <path class="st1" d="M390.6,490.5c-3.3.4-6.2-1.6-6.5-4.4s2.1-5.4,5.4-5.7,6.2,1.6,6.5,4.4-2.1,5.4-5.4,5.7Z"/>
      <polygon class="st1" points="389.8 514.1 402.3 535.3 376.1 535.6 389.8 514.1"/>
      <polygon class="st1" points="389.8 514.9 402.3 493.7 377 494.3 389.8 514.9"/>
      <polygon class="st1" points="395.3 532.7 401.2 543.6 393.9 558.6 396.5 561.3 397.6 561.3 395.4 558.2 402.4 543.6 396.2 532.4 395.3 532.7"/>
      <polygon class="st1" points="385.4 532.8 379.5 543.7 386.8 558.8 384.2 561.5 383.1 561.5 385.3 558.4 378.3 543.7 384.5 532.6 385.4 532.8"/>
      <g>
        <path class="st1" d="M373.7,501.1c1.7-2.6,2.6-5.3,2.8-6.2,0-.2,0-.3,0-.3h.2c0,0-.9,3.5-3,6.6,0,0,0,0,0-.1h0Z"/>
        <path class="st1" d="M379,517.9c-3.1-6.7-4.6-13.7-5-16,0-.5-.1-.7-.1-.7l-.3.2s1.6,8.8,5.3,16.8c0-.1,0-.2.1-.3h0Z"/>
        <path class="st1" d="M405.4,501.3c-1.6-3-2.4-6-2.6-7,0-.2,0-.3,0-.3h-.2c0,0,.8,3.9,2.7,7.5,0,0,0,0,0-.1h0Z"/>
        <path class="st1" d="M401.9,516.9c1.9-6.3,2.9-12.9,3.1-14.9,0-.4,0-.7,0-.7l.2.2s-1,8.2-3.3,15.8c0,0,0-.2,0-.3h0s0,0,0,0Z"/>
      </g>
    </g>
  </g>
  <g>
    <path class="st0" d="M516.6,487.6c-1.8.2-3.3-.9-3.5-2.4-.2-1.5,1.1-2.9,2.9-3.1s3.3.9,3.5,2.4-1.1,2.9-2.9,3.1Z"/>
    <rect class="st0" x="521.8" y="489.7" width="1.5" height="4.2"/>
    <path class="st0" d="M523.2,490.4c-3.3.4-6.2-1.6-6.5-4.4s2.1-5.4,5.4-5.7c3.3-.4,6.2,1.6,6.5,4.4s-2.1,5.4-5.4,5.7Z"/>
    <polygon class="st0" points="522.4 513.9 534.9 535 508.7 535.4 522.4 513.9"/>
    <polygon class="st0" points="522.4 514.7 534.9 493.5 509.6 494.1 522.4 514.7"/>
    <polygon class="st0" points="527.6 532.4 533.5 543.3 526.2 558.3 528.7 561.1 529.9 561.1 527.7 557.9 534.7 543.3 528.5 532.2 527.6 532.4"/>
    <polygon class="st0" points="517.1 532.6 511.1 543.5 518.5 558.5 515.9 561.2 514.8 561.2 516.9 558.1 510 543.5 516.2 532.3 517.1 532.6"/>
    <g>
      <path class="st0" d="M506.1,500.6c1.7-2.6,2.6-5.3,2.8-6.2,0-.2,0-.3,0-.3h.2c0,0-.9,3.5-3,6.6,0,0,0,0,0-.1h0Z"/>
      <path class="st0" d="M511.4,517.4c-3.1-6.7-4.6-13.7-5-15.9,0-.5-.1-.7-.1-.7l-.3.2s1.6,8.8,5.3,16.8c0-.1,0-.2.1-.3h0Z"/>
      <path class="st0" d="M537.8,500.9c-1.6-3-2.4-6-2.6-7,0-.2,0-.3,0-.3h-.2c0,0,.8,3.9,2.7,7.5,0,0,0,0,0-.1h0Z"/>
      <path class="st0" d="M534.3,516.4c1.9-6.3,2.9-12.8,3.1-14.9,0-.4,0-.7,0-.7l.2.2s-1,8.2-3.3,15.7c0,0,0-.2,0-.3h0s0,0,0,0Z"/>
    </g>
  </g>
  <text class="st3" transform="translate(551.8 520.4)"><tspan x="0" y="0">=</tspan></text>
  <text class="st2" transform="translate(574.9 521.6)"><tspan x="0" y="0">1 Million People</tspan></text>
  <text class="st4" transform="translate(23.7 44.2)"><tspan x="0" y="0">Number of people attended: 23.3 Million</tspan></text>
  <rect class="st0" x="157.8" y="283.2" width="25.9" height=".5"/>
</svg>